<svg xmlns="http://www.w3.org/2000/svg" xmlns:xlink="http://www.w3.org/1999/xlink" viewBox="0 0 612.36 670.83"><defs><clipPath id="clip-path"><path d="M425.06,277.88l6.15-74.9L410,206.19l-.28-1.09h-20s-32.68,49.23-29.65,60.53,40.55,46.2,40.55,46.2h10s-18.25-46-29.75-49L402.62,236l4.08,47.21,14.93,71.21h11.3S433.53,294.53,425.06,277.88Z" fill="none"/></clipPath><linearGradient id="linear-gradient" x1="332.49" y1="431.32" x2="448.18" y2="431.32" gradientUnits="userSpaceOnUse"><stop offset="0" stop-color="#fde5d9"/><stop offset="0.38" stop-color="#fde7dc"/><stop offset="0.65" stop-color="#feede5"/><stop offset="0.89" stop-color="#fef8f5"/><stop offset="1" stop-color="#fff"/></linearGradient><clipPath id="clip-path-2"><path d="M183,403H141.26l.67,3H126.74l-8.17,103c-12.11,15.89-21.49,103-21.49,103H110.7l43.13-151.8,12.85,58.6c-2.42,20.27,16.34,93.2,16.34,93.2h14.23Z" fill="none"/></clipPath><clipPath id="clip-path-3"><path d="M184.58,343.43l28.1-23.94c-.76-11.5-8-24.51-8-24.51l-19.32,10.7c-4.56,3-13,6.31-22.48,9.94l-4.05-3.43-16.05,5.92-1.25,5.77c-9.06,3.72-17.43,7.62-22.94,11.65-8.27,6.46-21.49,44.59-21.49,44.59l25.36,9.53,1.12-3.59c-.64,18.11-2.63,33.16-2.63,33.16,40.15,2.42,68.09-3.73,68.09-3.73C185.19,400.68,184.46,369,184.58,343.43Z" fill="none"/></clipPath></defs><title>_icons_V.2</title><g id="Illustrations"><path d="M585.43,187.88c-7-52.43-49.63-112-99.41-129.87-96.85-34.84-170.93-12.18-234.28,51.17,0,0-33.69-29.83-59.7-29.83-44.18,0-102.58,31.3-122.14,116.29-9.11,39.59-12.39,124.28-22.57,153.84-24,69.78,11.51,137.81,75.87,202.16h0c27.09,27.09,57.3,48.16,88.69,61.67,78.54,33.82,173.49,28.61,249.05-55.3,52.84-58.69,59-156.93,80.55-183.41C582.93,323.7,593.47,248.25,585.43,187.88Z" fill="#fddbd0"/><path d="M508.05,126.69h0c-66-66-165.59-101.87-259.66-79.57C220.88,53.64,180.47,71,160.81,92.83a203.75,203.75,0,0,0-47.74,93.63h0c-10.51,49-44.43,104.26-72.8,145.55C1.89,387.88,6.72,468.82,19,516.16c10.1,39,43,70.88,75.73,89.2,81.92,45.84,217.45,31.13,284.79-36.21L513.57,435.09C600,348.71,597.47,209.93,508.05,126.69Z" fill="#88306a"/><ellipse cx="148.88" cy="625.47" rx="77.06" ry="13.95" fill="#6c1d5f"/><ellipse cx="403.16" cy="628.02" rx="62.41" ry="14.26" fill="#fddbd0"/><polygon points="356.67 160.92 344.46 172.32 306.43 157.67 300.18 152.95 297.46 154.06 300.79 158.6 289.79 159.81 291.61 168.08 308.35 167.88 347.89 186.64 367.66 169.8 356.67 160.92" fill="#e59c9c"/><polygon points="356.67 160.92 344.46 172.32 306.43 157.67 300.18 152.95 297.46 154.06 300.79 158.6 289.79 159.81 291.61 168.08 308.35 167.88 347.89 186.64 367.66 169.8 356.67 160.92" fill="#231f20" opacity="0.1"/><path d="M331.55,97.46a40.17,40.17,0,1,0-71.23,25.43A35,35,0,0,1,268,142.25l.74,8.76h45.34l.74-8.75A34.75,34.75,0,0,1,322.35,123,39.93,39.93,0,0,0,331.55,97.46Z" fill="#fff"/><path d="M301,108.66c-.86,0-1.66,1.58-2.27,2.29a1.23,1.23,0,0,1-1.89,0c-.61-.71-1.4-2.29-2.27-2.29s-1.66,1.58-2.27,2.29a1.23,1.23,0,0,1-1.89,0c-.61-.71-1.41-2.29-2.28-2.29s-1.66,1.58-2.27,2.29a1.23,1.23,0,0,1-1.89,0c-.61-.71-1.4-2.29-2.27-2.29-1.93,0-3.5,3.26-3.5,5.86L283.12,151h16.53l4.88-36.49C304.53,111.92,303,108.66,301,108.66Z" fill="none" stroke="#ffca83" stroke-miterlimit="10"/><polygon points="268.07 143.44 268.71 151.01 314.05 151.01 314.69 143.44 268.07 143.44" fill="#ffca83"/><rect x="277.78" y="156.47" width="27.2" height="32.92" rx="8.11" fill="#ffca83"/><rect x="267.96" y="148.58" width="46.84" height="34.48" fill="#f9aa31"/><polygon points="314.8 154.21 267.96 158.42 267.96 156.38 314.8 152.18 314.8 154.21" fill="#ffca83"/><polygon points="314.8 161.23 267.96 165.44 267.96 163.4 314.8 159.19 314.8 161.23" fill="#ffca83"/><polygon points="314.8 168.24 267.96 172.45 267.96 170.42 314.8 166.21 314.8 168.24" fill="#ffca83"/><polygon points="314.8 175.26 267.96 179.47 267.96 177.43 314.8 173.22 314.8 175.26" fill="#ffca83"/><path d="M402.83,310.42s-19.07,4.23-21,8.47h30.55l-3.92-8.47Z" fill="#212226"/><path d="M422.65,352.63l-7.41,17a7,7,0,0,0-5.75,4.58l16-1.59,8.93-13.92-3.63-6.05Z" fill="#212226"/><path d="M425.06,277.88l6.15-74.9L410,206.19l-.28-1.09h-20s-32.68,49.23-29.65,60.53,40.55,46.2,40.55,46.2h10s-18.25-46-29.75-49L402.62,236l4.08,47.21,14.93,71.21h11.3S433.53,294.53,425.06,277.88Z" fill="#ffedd9"/><g clip-path="url(#clip-path)"><path d="M430.81,212.37s-18.55.68-30.2,6.32c-15.15,7.32-39.56,38.05-45.86,49.64s11.89-51.19,11.89-51.19l30.2-16.85,34,6.5Z" fill="#231f20" opacity="0.1"/></g><path d="M372.87,103.57s-10.53-6.34-12.76-10.36,1.16-3.39,1.16-3.39-5-7.41-2.59-9.91,11.43,2.15,11.43,2.15-3.13-5.81-.9-6.88,4.53,2.46,10.43,4.67c4.06,1.52,14.12,4,14,9.08,4.82,1.87,7.86,8.21,5.81,13.75s-6.25,15.39-6.25,15.39Z" fill="#231f20"/><polygon points="368.87 141.25 351.47 162.89 366.86 174.09 379.07 160.42 368.87 141.25" fill="#e25065"/><path d="M390.21,125.36c7.28-1.41,20.88,2.43,26.78,14.23s18.91,46.9,17.25,67.78c0,0-26.54,11.5-47.72,2.72,0,0-1.19-25.72-4.42-36.76s-9.19-11.2-13.23-32.08C368.87,141.25,378.56,127.63,390.21,125.36Z" fill="#e25065"/><path d="M386.81,203.28,411.45,153l-29.33,20.46C384.27,180.81,385.94,194.79,386.81,203.28Z" opacity="0.1"/><path d="M371.36,95.71l-2.15,11.34h3.22s-.45,5.62-.45,8,1.34,4.82,7.1,4.11l1.29,15.53S388,138,394.74,125.8l-2.94-15a5.33,5.33,0,0,0,4.37-4.82c.36-4.2-4.91-2.14-4.91-2.14l-1.25,8-3.75.8.36-13.56s-8.72,1.78-11.16-.54a12.6,12.6,0,0,1-2.14-2.86Z" fill="#e59c9c"/><path d="M382.69,159.51l-14.32,16.34-46-11s-11.9-9.65-13.11-8.74,3.43,6.76,3.43,6.76l-11.1,2-7.36-.57,4.64,10.39,8.67,1.21L321,174.09,372.3,192l26.83-21.59Z" fill="#e59c9c"/><path d="M409.12,136.77c-6.56-4.29-13.31.55-18.56,6.4S378,159.51,378,159.51l19.34,16.34s14.07-18.68,15.73-23.49C415.58,145.09,413.61,139.7,409.12,136.77Z" fill="#e25065"/><polygon points="410.44 269.22 345.07 269.22 343.45 263.41 408.81 263.41 410.44 269.22" fill="#2f2f2f"/><polygon points="418.03 296.4 352.66 296.4 351.04 290.59 416.4 290.59 418.03 296.4" fill="#2f2f2f"/><polygon points="425.62 323.58 360.25 323.58 358.63 317.77 423.99 317.77 425.62 323.58" fill="#2f2f2f"/><polygon points="433.2 350.76 367.84 350.76 366.22 344.95 431.58 344.95 433.2 350.76" fill="#2f2f2f"/><polygon points="440.79 377.94 375.43 377.94 373.81 372.13 439.17 372.13 440.79 377.94" fill="#2f2f2f"/><polygon points="448.38 405.11 383.02 405.11 381.4 399.31 446.76 399.31 448.38 405.11" fill="#2f2f2f"/><polygon points="455.97 432.29 390.61 432.29 388.99 426.48 454.35 426.48 455.97 432.29" fill="#2f2f2f"/><polygon points="463.56 459.47 398.2 459.47 396.58 453.66 461.94 453.66 463.56 459.47" fill="#2f2f2f"/><polygon points="471.15 486.65 405.79 486.65 404.17 480.84 469.53 480.84 471.15 486.65" fill="#2f2f2f"/><polygon points="478.74 513.83 413.38 513.83 411.75 508.02 477.12 508.02 478.74 513.83" fill="#2f2f2f"/><polygon points="486.33 541.01 420.97 541.01 419.34 535.2 484.71 535.2 486.33 541.01" fill="#2f2f2f"/><polygon points="493.92 568.19 428.56 568.19 426.93 562.38 492.3 562.38 493.92 568.19" fill="#2f2f2f"/><polygon points="501.51 595.37 436.14 595.37 434.52 589.56 499.89 589.56 501.51 595.37" fill="#2f2f2f"/><polygon points="448.18 625.47 440.92 625.47 332.49 237.17 339.75 237.17 448.18 625.47" fill="url(#linear-gradient)"/><polygon points="513.55 625.47 506.28 625.47 397.86 237.17 405.12 237.17 513.55 625.47" fill="#2f2f2f"/><path d="M209.15,512l-8.43,105a4.74,4.74,0,0,0,9.39,1.17l17.64-103.86Z" fill="#2f2f2f"/><path d="M386.24,512l8.44,105a4.74,4.74,0,0,1-9.39,1.17L367.65,514.31Z" fill="#2f2f2f"/><path d="M166.47,501.54l-8.43,105a4.73,4.73,0,0,0,9.38,1.17l17.65-103.87Z" fill="#2f2f2f"/><path d="M343.56,501.54l8.43,105a4.73,4.73,0,0,1-9.38,1.17L325,503.86Z" fill="#2f2f2f"/><rect x="193.81" y="228.57" width="207.78" height="300.5" fill="#6c1d5f"/><rect x="151.12" y="228.57" width="42.69" height="300.5" transform="translate(344.93 757.64) rotate(180)" fill="#231f20"/><rect x="200.88" y="235.03" width="193.64" height="287.59" fill="#c6a7bf"/><g opacity="0.1"><path d="M386.88,462.25a58.4,58.4,0,0,0,.35-7.63,57.39,57.39,0,0,0-.74-7.59l-12.08.3a47,47,0,0,0-2.61-8.85l10.35-6.33a58.09,58.09,0,0,0-8-12.95l-10.26,6.28a47,47,0,0,0-6.71-6.37l5.75-10.58a58.78,58.78,0,0,0-13.34-7.32l-5.8,10.66a46.4,46.4,0,0,0-9-2.16l-.31-12.08a58.25,58.25,0,0,0-7.62-.35,57.54,57.54,0,0,0-7.6.74l.31,12.08a46.08,46.08,0,0,0-8.85,2.61l-6.33-10.35a58.39,58.39,0,0,0-13,8l6.28,10.26a47.49,47.49,0,0,0-6.37,6.7l-10.57-5.75a58.71,58.71,0,0,0-7.33,13.35l10.66,5.8a46.21,46.21,0,0,0-2.15,9l-12.09.31a58.25,58.25,0,0,0-.35,7.62,57.54,57.54,0,0,0,.74,7.6l12.08-.31a46.8,46.8,0,0,0,2.61,8.85l-10.35,6.33a58.76,58.76,0,0,0,8,13l10.27-6.28a47.51,47.51,0,0,0,6.7,6.37l-5.75,10.57A58.28,58.28,0,0,0,307.19,511L313,500.38a46.38,46.38,0,0,0,9,2.15l.31,12.09a60.13,60.13,0,0,0,7.62.35,61.13,61.13,0,0,0,7.6-.74l-.31-12.09a46.78,46.78,0,0,0,8.85-2.6l6.34,10.35a59.3,59.3,0,0,0,12.95-8L359,491.62a47,47,0,0,0,6.37-6.7L376,490.67a58.71,58.71,0,0,0,7.33-13.35l-10.66-5.79a46.38,46.38,0,0,0,2.15-9ZM328.66,467a10.87,10.87,0,1,1,10.6-11.15A10.88,10.88,0,0,1,328.66,467Z" fill="#2f2f2f"/></g><path d="M389.88,459.25a58.4,58.4,0,0,0,.35-7.63,57.39,57.39,0,0,0-.74-7.59l-12.08.3a47,47,0,0,0-2.61-8.85l10.35-6.33a58.09,58.09,0,0,0-8-12.95l-10.26,6.28a47,47,0,0,0-6.71-6.37l5.75-10.58a58.78,58.78,0,0,0-13.34-7.32l-5.8,10.66a46.4,46.4,0,0,0-9-2.16l-.31-12.08a58.25,58.25,0,0,0-7.62-.35,57.54,57.54,0,0,0-7.6.74l.31,12.08a46.08,46.08,0,0,0-8.85,2.61l-6.33-10.35a58.39,58.39,0,0,0-13,8l6.28,10.26a47.49,47.49,0,0,0-6.37,6.7l-10.57-5.75a58.71,58.71,0,0,0-7.33,13.35l10.66,5.8a46.21,46.21,0,0,0-2.15,9l-12.09.31a58.25,58.25,0,0,0-.35,7.62,57.54,57.54,0,0,0,.74,7.6l12.08-.31a46.8,46.8,0,0,0,2.61,8.85l-10.35,6.33a58.76,58.76,0,0,0,8,13l10.27-6.28a47.51,47.51,0,0,0,6.7,6.37l-5.75,10.57A58.28,58.28,0,0,0,310.19,508L316,497.38a46.38,46.38,0,0,0,9,2.15l.31,12.09a60.13,60.13,0,0,0,7.62.35,61.13,61.13,0,0,0,7.6-.74l-.31-12.09a46.78,46.78,0,0,0,8.85-2.6l6.34,10.35a59.3,59.3,0,0,0,12.95-8L362,488.62a47,47,0,0,0,6.37-6.7L379,487.67a58.71,58.71,0,0,0,7.33-13.35l-10.66-5.79a46.38,46.38,0,0,0,2.15-9ZM331.66,464a10.87,10.87,0,1,1,10.6-11.15A10.88,10.88,0,0,1,331.66,464Z" fill="#6c1d5f"/><path d="M355.58,338.47a70.22,70.22,0,0,0,0-19.92H339.76a60.48,60.48,0,0,0-3.11-11.66L350.4,299a77.33,77.33,0,0,0-10-17.21l-13.64,7.87a61.69,61.69,0,0,0-8.55-8.55l7.87-13.64a77.33,77.33,0,0,0-17.21-10l-7.94,13.75A60.48,60.48,0,0,0,289.24,268V252.21a70.22,70.22,0,0,0-19.92,0V268a60.68,60.68,0,0,0-11.66,3.11l-7.93-13.75a77.18,77.18,0,0,0-17.22,10l7.88,13.64a61.76,61.76,0,0,0-8.56,8.55l-13.63-7.87a76.57,76.57,0,0,0-10,17.21l13.74,7.94a61.21,61.21,0,0,0-3.11,11.66H203a69.25,69.25,0,0,0,0,19.92H218.8a61.41,61.41,0,0,0,3.11,11.66l-13.74,7.93a76.42,76.42,0,0,0,10,17.22l13.63-7.88a61.83,61.83,0,0,0,8.56,8.56l-7.88,13.63a76.42,76.42,0,0,0,17.22,10l7.93-13.74A61.41,61.41,0,0,0,269.32,389V404.8a69.25,69.25,0,0,0,19.92,0V389a61.21,61.21,0,0,0,11.66-3.11l7.94,13.74a76.57,76.57,0,0,0,17.21-10L318.18,376a61.76,61.76,0,0,0,8.55-8.56l13.64,7.88a77.18,77.18,0,0,0,10-17.22l-13.75-7.93a60.68,60.68,0,0,0,3.11-11.66Zm-76.3,4.27a14.23,14.23,0,1,1,14.23-14.23A14.23,14.23,0,0,1,279.28,342.74Z" fill="#2f2f2f" opacity="0.1"/><path d="M358.58,335.47a70.22,70.22,0,0,0,0-19.92H342.76a60.48,60.48,0,0,0-3.11-11.66L353.4,296a77.33,77.33,0,0,0-10-17.21l-13.64,7.87a61.69,61.69,0,0,0-8.55-8.55l7.87-13.64a77.33,77.33,0,0,0-17.21-10l-7.94,13.75A60.48,60.48,0,0,0,292.24,265V249.21a70.22,70.22,0,0,0-19.92,0V265a60.68,60.68,0,0,0-11.66,3.11l-7.93-13.75a77.18,77.18,0,0,0-17.22,10l7.88,13.64a61.76,61.76,0,0,0-8.56,8.55l-13.63-7.87a76.57,76.57,0,0,0-10,17.21l13.74,7.94a61.21,61.21,0,0,0-3.11,11.66H206a69.25,69.25,0,0,0,0,19.92H221.8a61.41,61.41,0,0,0,3.11,11.66l-13.74,7.93a76.42,76.42,0,0,0,10,17.22l13.63-7.88a61.83,61.83,0,0,0,8.56,8.56l-7.88,13.63a76.42,76.42,0,0,0,17.22,10l7.93-13.74A61.41,61.41,0,0,0,272.32,386V401.8a69.25,69.25,0,0,0,19.92,0V386a61.21,61.21,0,0,0,11.66-3.11l7.94,13.74a76.57,76.57,0,0,0,17.21-10L321.18,373a61.76,61.76,0,0,0,8.55-8.56l13.64,7.88a77.18,77.18,0,0,0,10-17.22l-13.75-7.93a60.68,60.68,0,0,0,3.11-11.66Zm-76.3,4.27a14.23,14.23,0,1,1,14.23-14.23A14.23,14.23,0,0,1,282.28,339.74Z" fill="#6c1d5f"/><path d="M434.52,501.26l22.75,15.16-11.33,35.37s-8.24,3.68-9.75,6.53-4.18,6.52-2.68,6.36,5.86-3.85,6.7-3.85-1.34,10-1.34,10,7.53-1,10.37-5.36,4.55-12,4.55-12,13.52-25.27,16.87-42.84c0,0-25.43-21.92-33.63-25.1S423.81,495.3,434.52,501.26Z" fill="#e59c9c"/><path d="M413,545l-2.78,4.48s-62.06-3.23-70.34,7.56,10.79,29.87,33.38,44.43,14.81,10,14.81,10-21.59,3-21.34,6.27,41.16,0,41.16,0l-36.64-41.91,51.45,2.51,11-30.87Z" fill="#f9aa31"/><path d="M388.09,611.53s-21.59,3-21.34,6.27,41.16,0,41.16,0l-35.07-40.12c-6.64,4.25-12.77,8.19-17,11a165.29,165.29,0,0,0,17.44,12.85C395.87,616,388.09,611.53,388.09,611.53Z" opacity="0.1"/><path d="M410.24,553.94s-18.43,11.64-34.9,22.15l47.38,2.31,11-30.87L414,545.13Z" opacity="0.1"/><path d="M414.82,543l-1.8,12s-28.7,18.32-40,34.13-20.63,33-16.21,39.65c7.68,11.55,80.46-19.32,80.46-19.32L435,621.57s-10.74,6.77-9.51,8.53,22.56-4.77,22.56-4.77,6.53-27.36,4.27-33.13-16.48,7.28-16.48,7.28L399.32,604S427,591,442.05,579.4c11.1-8.51,13.66-23.34,6.7-36.39Z" fill="#f9aa31"/><path d="M435.86,599.48l-26.8,3.32c1.08,2.27,2.89,8,.19,17.53,15.33-5.43,28-10.81,28-10.81L435,621.57s-10.74,6.77-9.51,8.53,22.56-4.77,22.56-4.77,6.53-27.36,4.27-33.13S435.86,599.48,435.86,599.48Z" fill="#e59c9c"/><path d="M439.6,596.34l3.58,12-6.58,4.73L435,621.57s-10.74,6.77-9.51,8.53,22.56-4.77,22.56-4.77,6.53-27.36,4.27-33.13C450.83,588.34,444,592.89,439.6,596.34Z" fill="#402c2c"/><path d="M382.94,449.64s-13.05,17.2,11.67,22.34,20.51-8.74,18.88-12.13S391.48,446.38,382.94,449.64Z" fill="#e59c9c"/><path d="M385.45,456.16s2.42,10.61,0,14.5h3.76s2.15,4.17,3.63,7,6.31-1.21,8.19,0,5.42,11.46,5.42,11.46l18.49-5.55-15.45-32Z" fill="#e59c9c"/><path d="M401.39,481.91s6.52,1.11,15.89-4.57l3.35,3.34L432.51,482s10.71,13.29,12.55,29.52,3.68,25.6,7.19,29.11.34,7.53-2.84,8.2-30.79,1.51-36.39,1.51-3.6-5.36-1.26-7.53,2.68-13.39-1.67-17.57-10.18-7.14-12.21-13.72c-2.93-9.45,5-24.26,5-24.26Z" fill="#e25065"/><path d="M369.8,524.25s17.16-17.51,21.68-23.53,12.42-11.61,17.44-5.42c4.33,5.34-3.26,13.45-4.9,16-1.24,1.92-19.39,18.34-27.82,25.93a8,8,0,0,1-9.26,1l-33.28-18.39a13.49,13.49,0,0,1-7.24,1.12c-4.14-.5-3.54-.43-5.3-2.06s-7.53-5.6-7.53-8c0,0,12.8,1.86,14.68.1s-2.13-7.15-.12-8.91l7,8.81Z" fill="#e59c9c"/><path d="M380.14,449.39c.74-9.73,16.73-12.55,26.1-8.86s10.54,11.88,18.74,15.56,8.37,11,12.72,15.39,11.38,11.88,6.69,20.58-16.56-2.68-23.42-4.52-4.69-6.36-8.71-12-15.05-5-16.73-14.9C395.53,460.6,379.14,462.61,380.14,449.39Z" fill="#231f20"/><polygon points="399.32 604.01 385.85 613.36 409.06 602.8 399.32 604.01" opacity="0.2"/><rect x="260.88" y="204.77" width="61.13" height="23.81" fill="#fddbd0"/><rect x="260.88" y="220.6" width="61.13" height="7.97" fill="#6c1d5f"/><path d="M98.72,608l-4,16.46a2.76,2.76,0,0,0,2.51,3.7l32.83,1.06a2,2,0,0,0,1-3.73c-4.8-2.82-15-6.22-19.72-9.15l-1.31-6.5Z" fill="#f9aa31"/><path d="M185.54,607.44l-4.66,17.28a2.68,2.68,0,0,0,2.53,3.37l35.74.71a1.84,1.84,0,0,0,1.07-3.33c-4.23-3.05-16.2-6.22-22.27-9.15l-2.83-6.05Z" fill="#f9aa31"/><path d="M183,403H141.26l.67,3H126.74l-8.17,103c-12.11,15.89-21.49,103-21.49,103H110.7l43.13-151.8,12.85,58.6c-2.42,20.27,16.34,93.2,16.34,93.2h14.23Z" fill="#e25065"/><g clip-path="url(#clip-path-2)"><path d="M184.5,424.75s-31.29-3.58-44.88,19.78S96,619.25,96,619.25l-6.62-205,79.26-5.3,28.61-6Z" fill="#231f20" opacity="0.1"/><path d="M151.12,473.11c0-3.26,3.76-20,3.76-20s16.37,47.77,17.59,67.47,12.6,97.53,12.6,97.53l-38.84-80Z" fill="#231f20" opacity="0.1"/></g><path d="M202.09,301.19l59.46-44.94,15.59-13.47,10.29.76,3,4.39-12.25,5.9s9.07,2.12,9.07,3.17-14.22,3.64-19.21,3.79l-46.76,47L200.88,320Z" fill="#e59c9c"/><polygon points="94.38 399.15 104.04 376.29 116.15 382.94 108.28 403.01 94.38 399.15" fill="#e59c9c"/><path d="M157.73,275.07l8.1,13.25-4.05,1.93s2.77,8,1.48,10.93-5.53,4.62-5.53,7.32a57.63,57.63,0,0,0,1.16,8.23L143.61,323s-2.08-13.75-4-15.17-14.27-7.07-12.86-16.59l22.63-18.13Z" fill="#e59c9c"/><path d="M145.64,300.66c-2,.13-4.37-.38-5.78-4.11s.64-5,2.44-5.28,4.76,6.82,5.86,5.92-.71-9.77-.71-9.77c2.7-3.6.75-8.75.75-8.75l-3.39-1.87-18.07,14.47c-1.41,9.52,10.93,15.18,12.86,16.59.65.47,1.26,2,1.79,3.78C147.5,307.59,145.64,300.66,145.64,300.66Z" fill="#402c2c"/><polygon points="157.73 275.07 149.37 273.14 126.74 291.27 160.57 279.72 157.73 275.07" opacity="0.2"/><path d="M126.74,291.27s44.88-21.21,44.62-22-12.73,3.85-12.73,3.85-5.27-10.41-14.27-9-18.39,10.8-19.16,15.3S126.74,291.27,126.74,291.27Z" fill="#f9aa31"/><path d="M184.58,343.43l28.1-23.94c-.76-11.5-8-24.51-8-24.51l-19.32,10.7c-4.56,3-13,6.31-22.48,9.94l-4.05-3.43-16.05,5.92-1.25,5.77c-9.06,3.72-17.43,7.62-22.94,11.65-8.27,6.46-21.49,44.59-21.49,44.59l25.36,9.53,1.12-3.59c-.64,18.11-2.63,33.16-2.63,33.16,40.15,2.42,68.09-3.73,68.09-3.73C185.19,400.68,184.46,369,184.58,343.43Z" fill="#fff"/><path d="M155.29,362.56a23.55,23.55,0,0,0-.9-4.05,24.45,24.45,0,0,0-1.58-3.83l-6.09,1.91a17.83,17.83,0,0,0-3.6-4.3l2.95-5.65a24.09,24.09,0,0,0-7.33-3.82l-3,5.65a17.68,17.68,0,0,0-5.59-.49l-1.91-6.09a24.31,24.31,0,0,0-4,.9,24.56,24.56,0,0,0-3.84,1.58l1.92,6.09a17.64,17.64,0,0,0-4.3,3.6l-5.66-2.95a24.54,24.54,0,0,0-3.82,7.33l5.66,2.95a17.68,17.68,0,0,0-.5,5.59l-6.08,1.91a23.58,23.58,0,0,0,2.48,7.89l6.08-1.92a17.46,17.46,0,0,0,3.61,4.3l-3,5.66a24.08,24.08,0,0,0,7.33,3.82l3-5.65a17.94,17.94,0,0,0,5.58.49l1.92,6.08a24.49,24.49,0,0,0,4-.89,24.09,24.09,0,0,0,3.83-1.59L140.59,381a17.83,17.83,0,0,0,4.3-3.6l5.65,2.94a24.11,24.11,0,0,0,3.83-7.33l-5.66-2.94a17.42,17.42,0,0,0,.49-5.59ZM133,370.66a5.17,5.17,0,1,1,3.38-6.48A5.16,5.16,0,0,1,133,370.66Z" fill="#231f20" opacity="0.1"/><path d="M158.29,359.56a23.55,23.55,0,0,0-.9-4.05,24.45,24.45,0,0,0-1.58-3.83l-6.09,1.91a17.83,17.83,0,0,0-3.6-4.3l2.95-5.65a24.09,24.09,0,0,0-7.33-3.82l-3,5.65a17.68,17.68,0,0,0-5.59-.49l-1.91-6.09a24.31,24.31,0,0,0-4,.9,24.56,24.56,0,0,0-3.84,1.58l1.92,6.09a17.64,17.64,0,0,0-4.3,3.6l-5.66-2.95a24.54,24.54,0,0,0-3.82,7.33l5.66,2.95a17.68,17.68,0,0,0-.5,5.59l-6.08,1.91a23.58,23.58,0,0,0,2.48,7.89l6.08-1.92a17.46,17.46,0,0,0,3.61,4.3l-3,5.66a24.08,24.08,0,0,0,7.33,3.82l3-5.65a17.94,17.94,0,0,0,5.58.49l1.92,6.08a24.49,24.49,0,0,0,4-.89,24.09,24.09,0,0,0,3.83-1.59L143.59,378a17.83,17.83,0,0,0,4.3-3.6l5.65,2.94a24.11,24.11,0,0,0,3.83-7.33l-5.66-2.94a17.42,17.42,0,0,0,.49-5.59ZM136,367.66a5.17,5.17,0,1,1,3.38-6.48A5.16,5.16,0,0,1,136,367.66Z" fill="#6c1d5f"/><g clip-path="url(#clip-path-3)"><path d="M148.2,381.59s-20.3,14.54-29.88,44.89c-6.76,21.4-2.17-32.22-2.17-32.22Z" fill="#231f20" opacity="0.1"/></g><path d="M93.3,406c2.16,5.48,13,5.6,50.08-20.12,0,0,8.78-.76,12.41-3.94s7.26-11,7.26-11l-1.51-.91s-10.44,5.75-12.26,5,3.18-7.26,2.42-7.71-8.92,5.6-11.8,10.89c0,0-25.57,10.14-35.4,14.38S91.33,401.05,93.3,406Z" fill="#e59c9c"/></g></svg>