<svg width="160" height="32" viewBox="0 0 160 32" fill="none" xmlns="http://www.w3.org/2000/svg">
<path d="M115.352 8.86475H122.228L113.19 19.9348L109.709 15.7808L115.352 8.86475Z" fill="#062C43"/>
<path d="M55.0708 8.28655C56.7141 8.28655 58.2276 8.58632 59.6114 9.18586C60.9952 9.7854 62.206 10.6205 63.2006 11.6911C64.2168 12.7617 64.9952 13.9822 65.579 15.4168C66.1411 16.83 66.4222 18.3502 66.4222 19.9776C66.4222 21.562 66.1411 23.0823 65.579 24.4955C65.0168 25.9087 64.2168 27.1506 63.2006 28.2212C62.1844 29.2918 60.9952 30.1269 59.6114 30.7264C58.2276 31.326 56.7141 31.6257 55.0708 31.6257C53.3195 31.6257 51.7195 31.2831 50.2925 30.5979L52.2168 25.8659C52.9303 26.1656 53.7303 26.3155 54.6384 26.3155C56.4546 26.3155 57.9681 25.6946 59.2006 24.4527C60.4546 23.2108 61.0817 21.7333 61.0817 19.9776C61.0817 18.2003 60.4546 16.7015 59.2006 15.4596C57.9465 14.2177 56.433 13.5967 54.6384 13.5967C52.9087 13.5967 51.3952 14.2177 50.0763 15.4596C48.8222 16.7015 48.1952 18.2003 48.1952 19.9776V29.2704V31.0476H42.833V0.0214844H48.1952V10.6419C49.06 9.95669 50.0546 9.39998 51.179 8.95033C52.3033 8.50067 53.6006 8.28655 55.0708 8.28655Z" fill="#062C43"/>
<path d="M67.9355 0.0214844H73.2977V5.33168H67.9355V0.0214844ZM67.9355 30.9834V8.86468H73.2977V30.9834H67.9355Z" fill="#062C43"/>
<path d="M86.7464 8.24365C88.1951 8.24365 89.5356 8.52201 90.7248 9.05731C91.914 9.61403 92.9302 10.3634 93.7951 11.3056C94.6383 12.2691 95.3086 13.3826 95.7626 14.6459C96.2167 15.9092 96.4545 17.2796 96.4545 18.7142V30.9619H91.0924V18.7142C91.0924 17.2367 90.5735 16.0162 89.5356 15.0527C88.5194 14.0463 87.3086 13.5539 85.8816 13.5539C84.4113 13.5539 83.1789 14.0463 82.1843 15.0527C81.1681 16.0591 80.6708 17.2796 80.6708 18.7142V30.9619H75.3086V8.8646H80.6708V10.5562C81.4708 9.87097 82.3789 9.33567 83.3951 8.90743C84.3464 8.45777 85.4924 8.24365 86.7464 8.24365Z" fill="#062C43"/>
<path d="M122.228 30.9833H115.352L97.2979 8.90747H104.174L122.228 30.9833Z" fill="#062C43"/>
<path d="M123.244 30.9833V25.6731H128.606V30.9833H123.244Z" fill="#062C43"/>
<path d="M129.73 0.0214844H135.093V5.33168H129.73V0.0214844ZM129.73 30.9834V8.86468H135.093V30.9834H129.73Z" fill="#062C43"/>
<path d="M148.001 8.24365C149.644 8.24365 151.179 8.54342 152.606 9.14296C154.033 9.7425 155.287 10.5776 156.368 11.6482C157.449 12.7188 158.271 13.9393 158.898 15.3739C159.503 16.7871 159.806 18.3073 159.806 19.9347C159.806 21.5192 159.503 23.0394 158.898 24.4526C158.293 25.8658 157.449 27.1077 156.368 28.1783C155.287 29.2489 154.055 30.084 152.606 30.6835C151.157 31.2831 149.644 31.5828 148.001 31.5828C146.357 31.5828 144.822 31.2831 143.395 30.6835C141.968 30.084 140.714 29.2489 139.633 28.1783C138.552 27.1077 137.709 25.8872 137.103 24.4526C136.498 23.0394 136.195 21.5406 136.195 19.9347C136.195 18.3073 136.498 16.7871 137.103 15.3739C137.709 13.9607 138.552 12.7188 139.633 11.6482C140.714 10.5776 141.947 9.76391 143.395 9.14296C144.844 8.54342 146.357 8.24365 148.001 8.24365ZM148.001 13.5539C146.206 13.5539 144.693 14.1748 143.439 15.4167C142.185 16.6586 141.557 18.1575 141.557 19.9347C141.557 21.669 142.185 23.1679 143.439 24.4098C144.044 25.0307 144.736 25.5018 145.514 25.8016C146.293 26.1013 147.136 26.2726 148.001 26.2726C148.866 26.2726 149.687 26.1228 150.466 25.8016C151.244 25.5018 151.936 25.0307 152.563 24.4098C153.817 23.1679 154.444 21.6904 154.444 19.9347C154.444 18.1575 153.817 16.6586 152.563 15.4167C151.244 14.1748 149.73 13.5539 148.001 13.5539Z" fill="#062C43"/>
<path d="M105.038 21.4978L109.752 24.1315L104.174 30.9405H97.2979L105.038 21.4978Z" fill="#062C43"/>
<path d="M26.919 30.5765C26.292 30.5765 25.6866 30.3195 25.2541 29.8699L19.4595 23.7889H17.8163L12.0217 29.8699C11.546 30.3624 10.8757 30.6193 10.1839 30.5765C9.49197 30.5123 8.86494 30.1482 8.47575 29.5915L0.47575 17.8791C-0.0647901 17.0869 -0.0431685 16.0163 0.540615 15.2454L8.54062 4.66786C8.97305 4.08974 9.64332 3.76855 10.3785 3.76855H26.9622C27.6757 3.76855 28.3676 4.11115 28.8001 4.66786L36.8001 15.2454C37.3839 16.0163 37.4055 17.0655 36.8649 17.8791L28.8649 29.5915C28.4757 30.1697 27.8487 30.5337 27.1568 30.5765C27.0487 30.5765 26.9839 30.5765 26.919 30.5765ZM16.8217 19.2495H20.4325C21.0595 19.2495 21.6649 19.5064 22.0974 19.9561L26.6163 24.6882L32.1082 16.6586L25.773 8.28651H11.4812L5.14602 16.6586L10.6379 24.6882L15.1568 19.9561C15.5893 19.5064 16.1947 19.2495 16.8217 19.2495Z" fill="#DD3E35"/>
</svg>
