<?xml version="1.0" encoding="UTF-8" standalone="no"?>
<!DOCTYPE svg PUBLIC "-//W3C//DTD SVG 1.1//EN" "http://www.w3.org/Graphics/SVG/1.1/DTD/svg11.dtd">
<svg version="1.1" xmlns="http://www.w3.org/2000/svg" xmlns:xlink="http://www.w3.org/1999/xlink" preserveAspectRatio="xMidYMid meet" viewBox="0 0 200 100" width="200" height="100"><defs><path d="M181.43 39.94C183.02 40.6 184.41 41.53 185.61 42.72C186.81 43.91 187.73 45.27 188.42 46.86C189.1 48.43 189.43 50.12 189.43 51.93C189.43 53.69 189.1 55.38 188.42 56.95C187.75 58.52 186.81 59.89 185.61 61.08C184.41 62.27 183.04 63.2 181.43 63.87C179.82 64.53 178.14 64.87 176.32 64.87C174.49 64.87 172.79 64.53 171.2 63.87C169.62 63.2 168.22 62.27 167.02 61.08C165.82 59.89 164.88 58.54 164.21 56.95C163.54 55.38 163.2 53.71 163.2 51.93C163.2 50.12 163.54 48.43 164.21 46.86C164.88 45.29 165.82 43.91 167.02 42.72C168.22 41.53 169.59 40.63 171.2 39.94C172.81 39.27 174.49 38.94 176.32 38.94C178.14 38.94 179.85 39.27 181.43 39.94ZM171.25 46.91C169.86 48.29 169.16 49.95 169.16 51.93C169.16 53.85 169.86 55.52 171.25 56.9C171.92 57.59 172.69 58.11 173.56 58.44C174.42 58.78 175.36 58.97 176.32 58.97C177.28 58.97 178.19 58.8 179.06 58.44C179.92 58.11 180.69 57.59 181.39 56.9C182.78 55.52 183.48 53.88 183.48 51.93C183.48 49.95 182.78 48.29 181.39 46.91C179.92 45.53 178.24 44.84 176.32 44.84C174.32 44.84 172.64 45.53 171.25 46.91Z" id="a6nzfazqz"></path><path d="M147.79 39.78L137.75 52.08L133.88 47.46L140.15 39.78L147.79 39.78Z" id="eIdlZp67j"></path><path d="M78.23 40.14C79.77 40.8 81.11 41.73 82.22 42.92C83.35 44.11 84.21 45.46 84.86 47.06C85.48 48.63 85.8 50.32 85.8 52.13C85.8 53.89 85.48 55.57 84.86 57.14C84.23 58.71 83.35 60.09 82.22 61.28C81.09 62.47 79.77 63.4 78.23 64.07C76.69 64.73 75.01 65.07 73.18 65.07C71.24 65.07 69.46 64.69 67.88 63.92C68.09 63.4 69.8 59.19 70.01 58.67C70.81 59 71.7 59.17 72.7 59.17C74.72 59.17 76.4 58.48 77.77 57.1C79.17 55.72 79.86 54.08 79.86 52.13C79.86 50.15 79.17 48.49 77.77 47.11C76.38 45.73 74.7 45.04 72.7 45.04C70.78 45.04 69.1 45.73 67.64 47.11C66.24 48.49 65.55 50.15 65.55 52.13C65.55 52.81 65.55 56.26 65.55 62.45L65.55 64.42L59.59 64.42L59.59 29.96L65.55 29.96C65.55 37.03 65.55 40.97 65.55 41.75C66.51 40.99 67.61 40.37 68.86 39.87C70.11 39.38 71.55 39.14 73.18 39.14C75.01 39.14 76.69 39.47 78.23 40.14Z" id="c1YpUwk5k2"></path><path d="M93.43 29.96L93.43 35.85L87.48 35.85L87.48 29.96L93.43 29.96ZM87.48 39.78L93.43 39.78L93.43 64.35L87.48 64.35L87.48 39.78Z" id="bbEBJ5Y2e"></path><path d="M112.79 39.99C114.12 40.61 115.24 41.44 116.21 42.49C117.14 43.56 117.89 44.8 118.39 46.2C118.9 47.61 119.16 49.13 119.16 50.72C119.16 51.63 119.16 56.16 119.16 64.33L113.2 64.33C113.2 56.16 113.2 51.63 113.2 50.72C113.2 49.08 112.63 47.72 111.47 46.65C110.34 45.54 109 44.99 107.41 44.99C105.78 44.99 104.41 45.54 103.31 46.65C102.18 47.77 101.62 49.13 101.62 50.72C101.62 51.63 101.62 56.16 101.62 64.33L95.67 64.33L95.67 39.78L101.62 39.78C101.62 40.91 101.62 41.53 101.62 41.66C102.51 40.9 103.52 40.3 104.65 39.83C105.71 39.33 106.98 39.09 108.37 39.09C109.98 39.09 111.47 39.4 112.79 39.99Z" id="h3CHjvn6M"></path><path d="M140.15 64.35L120.1 39.83L127.74 39.83L147.79 64.35L140.15 64.35Z" id="dQ5VMzNe7"></path><path d="M148.92 58.45L154.88 58.45L154.88 64.35L148.92 64.35L148.92 58.45Z" id="l1cQSDFhsK"></path><path d="M162.08 29.96L162.08 35.85L156.13 35.85L156.13 29.96L162.08 29.96ZM156.13 39.78L162.08 39.78L162.08 64.35L156.13 64.35L156.13 39.78Z" id="dsvkwPSic"></path><path d="M133.93 56.74L127.74 64.3L120.1 64.3L128.7 53.81L133.93 56.74Z" id="a2FyJHo2RL"></path><path d="M40.06 63.12C39.63 62.66 37.48 60.41 33.62 56.36L31.8 56.36C27.93 60.41 25.79 62.66 25.36 63.12C24.83 63.66 24.09 63.95 23.32 63.9C22.55 63.83 21.85 63.42 21.42 62.81C20.53 61.5 13.42 51.1 12.53 49.79C11.93 48.91 11.96 47.72 12.6 46.87C13.49 45.69 20.6 36.29 21.49 35.12C21.97 34.48 22.72 34.12 23.53 34.12C25.38 34.12 40.12 34.12 41.96 34.12C42.75 34.12 43.52 34.5 44 35.12C44.89 36.29 52 45.69 52.89 46.87C53.54 47.72 53.56 48.89 52.96 49.79C52.07 51.1 44.96 61.5 44.07 62.81C43.64 63.45 42.94 63.85 42.17 63.9C42.05 63.9 41.98 63.9 41.91 63.9C41.21 63.9 40.54 63.61 40.06 63.12ZM34.7 51.32C35.4 51.32 36.07 51.6 36.55 52.1C36.89 52.45 38.56 54.2 41.57 57.36L47.67 48.44L40.64 39.14L24.76 39.14L17.72 48.44L23.82 57.36C26.83 54.2 28.51 52.45 28.84 52.1C29.32 51.6 30 51.32 30.69 51.32C31.49 51.32 34.3 51.32 34.7 51.32Z" id="ebmlO80rJ"></path></defs><g><g><g><use xlink:href="#a6nzfazqz" opacity="1" fill="#062c43" fill-opacity="1"></use><g><use xlink:href="#a6nzfazqz" opacity="1" fill-opacity="0" stroke="#000000" stroke-width="1" stroke-opacity="0"></use></g></g><g><use xlink:href="#eIdlZp67j" opacity="1" fill="#062c43" fill-opacity="1"></use><g><use xlink:href="#eIdlZp67j" opacity="1" fill-opacity="0" stroke="#000000" stroke-width="1" stroke-opacity="0"></use></g></g><g><use xlink:href="#c1YpUwk5k2" opacity="1" fill="#062c43" fill-opacity="1"></use><g><use xlink:href="#c1YpUwk5k2" opacity="1" fill-opacity="0" stroke="#000000" stroke-width="1" stroke-opacity="0"></use></g></g><g><use xlink:href="#bbEBJ5Y2e" opacity="1" fill="#062c43" fill-opacity="1"></use><g><use xlink:href="#bbEBJ5Y2e" opacity="1" fill-opacity="0" stroke="#000000" stroke-width="1" stroke-opacity="0"></use></g></g><g><use xlink:href="#h3CHjvn6M" opacity="1" fill="#062c43" fill-opacity="1"></use><g><use xlink:href="#h3CHjvn6M" opacity="1" fill-opacity="0" stroke="#000000" stroke-width="1" stroke-opacity="0"></use></g></g><g><use xlink:href="#dQ5VMzNe7" opacity="1" fill="#062c43" fill-opacity="1"></use><g><use xlink:href="#dQ5VMzNe7" opacity="1" fill-opacity="0" stroke="#000000" stroke-width="1" stroke-opacity="0"></use></g></g><g><use xlink:href="#l1cQSDFhsK" opacity="1" fill="#062c43" fill-opacity="1"></use><g><use xlink:href="#l1cQSDFhsK" opacity="1" fill-opacity="0" stroke="#000000" stroke-width="1" stroke-opacity="0"></use></g></g><g><use xlink:href="#dsvkwPSic" opacity="1" fill="#062c43" fill-opacity="1"></use><g><use xlink:href="#dsvkwPSic" opacity="1" fill-opacity="0" stroke="#000000" stroke-width="1" stroke-opacity="0"></use></g></g><g><use xlink:href="#a2FyJHo2RL" opacity="1" fill="#062c43" fill-opacity="1"></use><g><use xlink:href="#a2FyJHo2RL" opacity="1" fill-opacity="0" stroke="#000000" stroke-width="1" stroke-opacity="0"></use></g></g><g><use xlink:href="#ebmlO80rJ" opacity="1" fill="#dd3e35" fill-opacity="1"></use><g><use xlink:href="#ebmlO80rJ" opacity="1" fill-opacity="0" stroke="#000000" stroke-width="1" stroke-opacity="0"></use></g></g></g></g></svg>