<?xml version="1.0" encoding="UTF-8" standalone="no"?>
<!DOCTYPE svg PUBLIC "-//W3C//DTD SVG 1.1//EN" "http://www.w3.org/Graphics/SVG/1.1/DTD/svg11.dtd">
<svg version="1.1" xmlns="http://www.w3.org/2000/svg" xmlns:xlink="http://www.w3.org/1999/xlink" preserveAspectRatio="xMidYMid meet" viewBox="0 0 200 100" width="200" height="100"><defs><path d="M59.47 8.78C59.35 8.78 58.38 8.78 58.26 8.78C57.68 8.78 57.03 8.34 56.81 7.81C56.74 7.64 56.18 6.31 56.11 6.15C55.89 5.61 56.18 5.18 56.75 5.18C57.13 5.18 60.15 5.18 60.53 5.18C61.18 5.18 61.72 5.41 62.19 5.88C62.43 6.12 64.3 8.01 64.54 8.24C64.94 8.65 64.94 9.32 64.54 9.73C64.42 9.85 63.52 10.76 63.41 10.87C63 11.28 62.34 11.28 61.93 10.88C61.93 10.87 61.93 10.87 61.93 10.87C61.81 10.75 61.21 10.15 60.13 9.06C59.86 8.87 59.64 8.78 59.47 8.78ZM49.89 28.44C49.59 28.14 47.21 25.74 46.92 25.44C46.46 25 46.21 24.39 46.22 23.76C46.22 22.44 46.22 11.88 46.22 10.56C46.22 9.91 46.44 9.36 46.92 8.88C47.22 8.58 49.6 6.18 49.89 5.88C50.37 5.41 50.91 5.18 51.56 5.18C51.62 5.18 52.14 5.18 52.21 5.18C52.67 5.18 53.2 5.53 53.38 5.95C53.46 6.14 54.09 7.62 54.17 7.81C54.4 8.34 54.11 8.78 53.54 8.78C53.45 8.78 52.7 8.78 52.61 8.78C52.36 8.78 52.12 8.88 51.95 9.06C51.79 9.22 50.49 10.54 50.32 10.7C50.14 10.88 50.04 11.12 50.04 11.37C50.04 12.53 50.04 21.8 50.04 22.96C50.04 23.21 50.14 23.43 50.32 23.62C50.49 23.78 51.79 25.1 51.96 25.26C52.13 25.44 52.36 25.54 52.61 25.54C52.74 25.54 53.74 25.54 53.86 25.54C54.44 25.54 55.09 25.98 55.31 26.51C55.38 26.68 55.94 28.01 56.01 28.17C56.23 28.71 55.95 29.14 55.37 29.14C55.12 29.14 53.85 29.14 51.56 29.14C50.76 28.99 50.21 28.75 49.89 28.44ZM58.74 28.37C58.66 28.18 58.02 26.7 57.94 26.51C57.72 25.98 58 25.54 58.58 25.54C58.64 25.54 59.15 25.54 59.22 25.54C59.46 25.54 59.69 25.44 59.86 25.27C59.86 25.27 59.87 25.26 59.87 25.26L61.68 23.43C61.69 23.43 61.69 23.43 61.69 23.43C61.87 23.26 61.97 23.02 61.97 22.77C61.97 22.48 61.97 20.11 61.97 19.81C61.97 19.23 61.5 18.76 60.92 18.76C60.66 18.76 58.59 18.76 58.33 18.76C57.75 18.75 57.29 18.29 57.29 17.71C57.29 17.57 57.29 16.49 57.29 16.36C57.29 15.78 57.76 15.3 58.33 15.3C58.95 15.3 63.95 15.3 64.57 15.3C65.14 15.3 65.61 15.78 65.61 16.36C65.61 17.1 65.61 23.02 65.61 23.76C65.61 24.41 65.38 24.96 64.91 25.44C64.62 25.74 62.23 28.14 61.94 28.44C61.47 28.91 60.92 29.14 60.27 29.14C60.25 29.14 60.13 29.14 59.91 29.14C59.25 28.91 58.86 28.65 58.74 28.37ZM75.16 29.04C74.88 28.97 74.58 28.77 74.25 28.44C73.95 28.14 71.57 25.74 71.27 25.44C70.81 25 70.56 24.39 70.57 23.76C70.57 22.44 70.57 11.88 70.57 10.56C70.57 9.91 70.8 9.36 71.27 8.88C71.57 8.58 73.95 6.18 74.25 5.88C74.72 5.41 75.26 5.18 75.91 5.18C75.98 5.18 76.5 5.18 76.56 5.18C77.02 5.18 77.55 5.53 77.73 5.95C77.81 6.14 78.45 7.62 78.53 7.81C78.75 8.34 78.47 8.78 77.89 8.78C77.81 8.78 77.09 8.78 77 8.78C76.75 8.78 76.52 8.88 76.34 9.06C76.18 9.22 74.87 10.54 74.71 10.7C74.53 10.88 74.43 11.12 74.43 11.37C74.43 12.53 74.43 21.79 74.43 22.95C74.43 23.21 74.53 23.43 74.71 23.62C74.87 23.78 76.18 25.1 76.34 25.26C76.53 25.45 76.75 25.54 77 25.54C77.12 25.54 78.09 25.54 78.21 25.54C78.79 25.54 79.44 25.98 79.66 26.51C79.73 26.68 80.29 28.01 80.36 28.17C80.59 28.71 80.3 29.14 79.72 29.14C79.47 29.14 78.21 29.14 75.95 29.14C75.62 29.12 75.36 29.08 75.16 29.04ZM83.09 28.37C83.01 28.18 82.38 26.7 82.3 26.51C82.07 25.98 82.35 25.54 82.93 25.54C83.02 25.54 83.73 25.54 83.82 25.54C84.07 25.54 84.31 25.44 84.48 25.26C84.64 25.1 85.95 23.78 86.11 23.62C86.29 23.44 86.39 23.2 86.39 22.95C86.39 21.79 86.39 12.53 86.39 11.37C86.39 11.12 86.29 10.88 86.12 10.71C86.11 10.71 86.11 10.71 86.11 10.7C85.13 9.72 84.59 9.17 84.48 9.06C84.31 8.88 84.07 8.78 83.82 8.78C83.7 8.78 82.73 8.78 82.61 8.78C82.04 8.78 81.38 8.34 81.16 7.81C81.09 7.64 80.53 6.31 80.46 6.15C80.24 5.61 80.52 5.18 81.1 5.18C81.48 5.18 84.53 5.18 84.91 5.18C85.56 5.18 86.11 5.41 86.58 5.88C86.88 6.18 89.26 8.58 89.56 8.88C90.02 9.35 90.26 9.9 90.26 10.56C90.26 11.88 90.26 22.44 90.26 23.76C90.26 24.41 90.02 24.96 89.56 25.44C89.26 25.74 86.88 28.14 86.58 28.44C86.24 28.77 85.94 28.97 85.66 29.04C85.4 29.1 85.14 29.14 84.87 29.14C84.83 29.14 84.63 29.14 84.26 29.14C83.6 28.91 83.21 28.65 83.09 28.37Z" id="aFc6zcG6m"></path><path d="M46.47 61.14C46.47 58.91 46.47 41.09 46.47 38.86C46.47 38.4 46.85 38.02 47.31 38.02C47.37 38.02 47.83 38.02 47.89 38.02C48.35 38.02 48.87 38.36 49.05 38.79C49.14 39 49.87 40.69 49.96 40.9C50.19 41.44 50.37 42.34 50.37 42.92C50.37 44.34 50.37 55.66 50.37 57.07C50.37 57.65 50.19 58.56 49.96 59.09C49.87 59.31 49.14 61 49.05 61.21C48.84 61.66 48.39 61.95 47.89 61.98C47.85 61.98 47.66 61.98 47.31 61.98C46.75 61.73 46.47 61.45 46.47 61.14ZM51.79 61.01C51.86 60.85 52.41 59.52 52.48 59.35C52.71 58.82 53.36 58.38 53.94 58.38C54.41 58.38 58.2 58.38 58.68 58.38C58.92 58.38 59.16 58.28 59.33 58.1C59.5 57.94 60.8 56.62 60.96 56.45C61.14 56.28 61.24 56.04 61.24 55.79C61.24 54.64 61.24 45.43 61.24 44.28C61.24 44.03 61.14 43.8 60.97 43.62C60.97 43.62 60.97 43.62 60.96 43.61C59.94 42.58 59.37 42.01 59.26 41.9C59.09 41.72 58.85 41.62 58.6 41.62C58.13 41.62 54.4 41.62 53.94 41.62C53.36 41.62 52.71 41.18 52.48 40.65C52.41 40.48 51.86 39.15 51.79 38.99C51.56 38.45 51.85 38.02 52.43 38.02C53.16 38.02 59.03 38.02 59.76 38.02C60.41 38.02 60.96 38.25 61.43 38.72C61.73 39.02 64.11 41.42 64.41 41.72C64.88 42.2 65.1 42.75 65.1 43.4C65.1 44.72 65.1 55.28 65.1 56.6C65.1 57.25 64.88 57.8 64.41 58.28C64.11 58.58 61.73 60.98 61.43 61.28C60.96 61.75 60.41 61.98 59.76 61.98C59.27 61.98 56.83 61.98 52.43 61.98C51.85 61.69 51.64 61.37 51.79 61.01ZM69.44 60.93C69.44 60.74 69.44 59.27 69.44 59.08C69.44 58.54 69.53 58.03 69.71 57.57C69.71 57.57 69.72 57.56 69.72 57.54C73.65 48.19 75.83 42.99 76.27 41.95C76.49 41.42 76.86 41.42 77.08 41.95C77.19 42.22 78.11 44.39 78.22 44.66C78.44 45.2 78.45 46.07 78.23 46.61C78.04 47.09 76.48 50.96 76.29 51.45C76.07 51.98 76.36 52.42 76.94 52.42C77.28 52.42 79.98 52.42 80.32 52.42C80.89 52.42 81.55 52.86 81.77 53.39C81.84 53.56 82.43 54.96 82.5 55.13C82.66 55.5 82.46 55.8 82.06 55.8C81.41 55.8 76.2 55.8 75.55 55.8C74.97 55.8 74.32 56.24 74.11 56.78C74.05 56.92 73.59 58.05 73.53 58.2C73.46 58.38 73.34 58.68 73.27 58.86C73.21 59.03 73.19 59.2 73.2 59.38C73.2 59.53 73.2 60.77 73.2 60.93C73.2 61.51 72.73 61.98 72.15 61.98C72.04 61.98 71.49 61.98 70.49 61.98C69.79 61.67 69.44 61.31 69.44 60.93ZM86.72 60.93C86.72 60.78 86.72 59.6 86.72 59.45C86.72 59.24 86.7 59.05 86.66 58.87C86.62 58.72 86.58 58.58 86.53 58.44C86.53 58.43 86.52 58.43 86.52 58.41C81.72 46.76 79.05 40.28 78.51 38.99C78.29 38.45 78.58 38.02 79.16 38.02C79.35 38.02 80.89 38.02 81.08 38.02C81.66 38.02 82.31 38.45 82.53 38.99C83.31 40.83 89.56 55.62 90.34 57.47C90.53 57.96 90.62 58.49 90.62 59.01C90.62 59.2 90.62 60.74 90.62 60.93C90.62 61.51 90.15 61.98 89.57 61.98C89.45 61.98 88.85 61.98 87.76 61.98C87.07 61.67 86.72 61.31 86.72 60.93Z" id="bWMp8PVCT"></path><path d="M70.57 93.77C70.57 91.56 70.57 73.91 70.57 71.7C70.57 71.23 70.95 70.86 71.41 70.86C71.46 70.86 71.93 70.86 71.99 70.86C72.45 70.86 72.97 71.2 73.15 71.63C73.24 71.84 73.97 73.53 74.06 73.74C74.28 74.28 74.47 75.18 74.47 75.76C74.47 77.56 74.47 91.97 74.47 93.77C74.47 94.35 74 94.82 73.42 94.82C73.3 94.82 72.7 94.82 71.61 94.82C70.92 94.5 70.57 94.15 70.57 93.77ZM84.94 93.77C84.94 93.2 84.94 88.65 84.94 88.09C84.94 87.84 84.85 87.62 84.67 87.43C84.67 87.43 84.66 87.43 84.66 87.42C83.59 86.35 83 85.75 82.88 85.63C82.71 85.45 82.47 85.35 82.23 85.35C81.8 85.35 78.39 85.35 77.97 85.35C77.39 85.35 76.92 84.88 76.92 84.3C76.92 84.16 76.92 83.02 76.92 82.88C76.92 82.3 77.39 81.83 77.97 81.82C78.4 81.82 81.87 81.82 82.3 81.82C82.55 81.83 82.78 81.72 82.96 81.54C83.13 81.37 84.49 80 84.66 79.83C84.84 79.65 84.94 79.41 84.94 79.16C84.94 78.89 84.94 76.7 84.94 76.42C84.94 76.17 84.84 75.93 84.66 75.76C84.55 75.65 83.68 74.77 83.57 74.66C83.4 74.48 83.16 74.38 82.92 74.38C82.43 74.38 78.52 74.38 78.03 74.38C77.46 74.38 76.8 73.95 76.57 73.42C76.51 73.26 75.96 71.98 75.89 71.82C75.66 71.29 75.95 70.86 76.52 70.86C77.27 70.86 83.26 70.86 84 70.86C84.63 70.86 85.15 71.08 85.6 71.53C85.84 71.77 87.76 73.7 87.99 73.94C88.47 74.41 88.7 74.96 88.7 75.62C88.7 76.02 88.7 79.27 88.7 79.68C88.7 80.33 88.47 80.88 87.99 81.35C87.82 81.53 86.4 82.96 86.22 83.14C85.98 83.39 85.98 83.79 86.22 84.03C86.4 84.21 87.82 85.64 87.99 85.82C88.47 86.3 88.7 86.84 88.7 87.5C88.7 88.13 88.7 93.14 88.7 93.77C88.7 94.35 88.23 94.82 87.65 94.82C87.54 94.82 86.98 94.82 85.98 94.82C85.29 94.5 84.94 94.15 84.94 93.77ZM94.16 93.77C94.16 91.58 94.16 74.09 94.16 71.91C94.16 71.33 94.63 70.86 95.2 70.86C95.38 70.86 96.83 70.86 97.01 70.86C97.59 70.86 98.06 71.33 98.06 71.91C98.06 74.09 98.06 91.58 98.06 93.77C98.06 94.35 97.59 94.82 97.01 94.82C96.89 94.82 96.29 94.82 95.2 94.82C94.51 94.5 94.16 94.15 94.16 93.77ZM114.34 85.57C114.77 84.47 118.24 75.63 118.68 74.53C118.73 74.39 118.77 74.24 118.81 74.07C118.85 73.9 118.87 73.71 118.87 73.5C118.87 73.34 118.87 72.07 118.87 71.91C118.87 71.33 119.34 70.86 119.92 70.86C120.09 70.86 121.45 70.86 121.62 70.86C122.2 70.86 122.66 71.33 122.66 71.91C122.66 72.11 122.66 73.73 122.66 73.94C122.66 74.49 122.57 75 122.39 75.47C122.39 75.47 122.39 75.47 122.39 75.47C118.84 84.51 116.87 89.54 116.47 90.55C116.22 91.19 115.8 91.19 115.55 90.55C115.46 90.35 115.06 89.34 114.34 87.52C114.2 86.58 114.2 85.93 114.34 85.57ZM110.07 93.84C109.34 92.01 103.51 77.31 102.78 75.47C102.59 74.98 102.5 74.46 102.51 73.94C102.51 73.73 102.51 72.11 102.51 71.91C102.51 71.33 102.98 70.86 103.55 70.86C103.73 70.86 105.18 70.86 105.36 70.86C105.94 70.86 106.41 71.33 106.41 71.91C106.41 72.07 106.41 73.34 106.41 73.5C106.4 73.85 106.47 74.2 106.6 74.53C107.36 76.46 113.44 91.91 114.2 93.84C114.41 94.38 114.11 94.82 113.54 94.82C113.4 94.82 112.72 94.82 111.5 94.82C110.69 94.53 110.21 94.2 110.07 93.84ZM133.13 73.56C133.06 73.39 132.49 72 132.42 71.83C132.2 71.29 132.49 70.86 133.06 70.86C134.02 70.86 141.71 70.86 142.67 70.86C143.24 70.86 143.71 71.33 143.71 71.91C143.71 72.07 143.71 73.32 143.71 73.48C143.71 74.06 143.25 74.53 142.67 74.53C142.13 74.53 139.43 74.53 134.58 74.53C133.76 74.24 133.28 73.91 133.13 73.56ZM133.46 83.6C133.46 83.45 133.46 82.19 133.46 82.03C133.46 81.46 133.93 80.98 134.5 80.98C135.32 80.98 141.85 80.98 142.67 80.98C143.24 80.98 143.71 81.46 143.71 82.04C143.71 82.19 143.71 83.45 143.71 83.6C143.71 84.18 143.24 84.66 142.67 84.66C142.12 84.66 139.4 84.66 134.5 84.66C133.81 84.34 133.46 83.99 133.46 83.6ZM127.11 93.98C127.11 91.75 127.11 73.93 127.11 71.7C127.11 71.24 127.49 70.86 127.95 70.86C128 70.86 128.47 70.86 128.53 70.86C128.99 70.86 129.51 71.2 129.69 71.63C129.78 71.85 130.53 73.63 130.62 73.85C130.84 74.39 131.03 75.3 131.03 75.87C131.03 77.28 131.01 88.48 131.01 89.88C131.01 90.46 130.83 91.37 130.6 91.9C130.51 92.12 129.78 93.83 129.69 94.05C129.51 94.47 128.99 94.82 128.53 94.82C128.49 94.82 128.3 94.82 127.95 94.82C127.39 94.57 127.11 94.29 127.11 93.98ZM132.42 93.85C132.49 93.67 133.06 92.29 133.13 92.12C133.35 91.58 134 91.15 134.58 91.15C135.38 91.15 141.86 91.15 142.67 91.15C143.24 91.15 143.71 91.62 143.71 92.2C143.71 92.36 143.71 93.61 143.71 93.77C143.71 94.35 143.24 94.82 142.67 94.82C142.03 94.82 138.83 94.82 133.06 94.82C132.49 94.53 132.27 94.2 132.42 93.85ZM163.58 81.36C163.58 80.42 163.58 72.85 163.58 71.91C163.58 71.33 164.05 70.86 164.63 70.86C164.79 70.86 166.1 70.86 166.26 70.86C166.83 70.86 167.3 71.33 167.3 71.91C167.3 73.29 167.3 84.34 167.3 85.72C167.3 86.42 166.95 86.55 166.51 86.01C166.36 85.82 165.6 84.9 164.25 83.23C163.8 82.37 163.58 81.75 163.58 81.36ZM149.18 93.77C149.18 92.39 149.18 81.34 149.18 79.96C149.18 79.26 149.53 79.13 149.97 79.67C150.2 79.95 152.01 82.17 152.23 82.45C152.6 82.89 152.9 83.74 152.9 84.31C152.9 85.26 152.9 92.82 152.9 93.77C152.9 94.35 152.43 94.82 151.85 94.82C151.74 94.82 151.2 94.82 150.22 94.82C149.52 94.51 149.17 94.15 149.18 93.77ZM163.4 93.77C163.4 93.65 163.4 92.73 163.4 92.62C163.4 92.38 163.31 92.15 163.14 91.98C163.13 91.96 163.11 91.94 163.09 91.92C161.77 90.29 151.18 77.23 149.85 75.6C149.65 75.35 149.49 75.08 149.36 74.8C149.23 74.53 149.17 74.23 149.18 73.94C149.18 73.73 149.18 72.11 149.18 71.91C149.18 71.33 149.64 70.86 150.22 70.86C150.4 70.86 151.85 70.86 152.03 70.86C152.61 70.86 153.08 71.33 153.08 71.91C153.08 72.02 153.08 72.94 153.08 73.06C153.08 73.3 153.16 73.51 153.33 73.7C153.35 73.71 153.37 73.73 153.38 73.75C154.71 75.39 165.3 88.45 166.62 90.08C166.83 90.34 167 90.6 167.12 90.88C167.24 91.14 167.3 91.43 167.3 91.74C167.3 91.94 167.3 93.57 167.3 93.77C167.3 94.35 166.83 94.82 166.26 94.82C166.14 94.82 165.53 94.82 164.45 94.82C163.75 94.5 163.4 94.15 163.4 93.77Z" id="b30MKMU00"></path><path d="M104.28 40.72C104.2 40.52 103.53 38.89 103.44 38.69C103.29 38.32 103.49 38.02 103.89 38.02C104.35 38.02 108.02 38.02 108.48 38.02C109.06 38.02 109.53 38.49 109.53 39.07C109.53 39.23 109.53 40.48 109.53 40.64C109.53 41.22 109.06 41.69 108.48 41.69C108.3 41.69 107.38 41.69 105.72 41.69C104.91 41.4 104.43 41.08 104.28 40.72ZM98.26 60.93C98.26 59.11 98.26 44.56 98.26 42.74C98.26 42.16 97.79 41.69 97.21 41.69C96.69 41.69 92.46 41.69 91.94 41.69C91.36 41.69 90.89 41.22 90.89 40.64C90.89 40.48 90.89 39.23 90.89 39.07C90.89 38.49 91.36 38.02 91.94 38.02C92.69 38.02 98.71 38.02 99.47 38.02C100.04 38.02 100.7 38.45 100.92 38.99C101 39.19 101.68 40.81 101.77 41.01C101.99 41.55 102.17 42.46 102.17 43.04C102.17 44.83 102.16 59.14 102.16 60.93C102.16 61.51 101.69 61.98 101.12 61.98C100.99 61.98 100.39 61.98 99.3 61.98C98.61 61.67 98.26 61.31 98.26 60.93Z" id="a1Gx1dnSae"></path><path d="M46.47 93.98C46.47 91.75 46.47 73.93 46.47 71.7C46.47 71.24 46.85 70.86 47.31 70.86C47.37 70.86 47.83 70.86 47.89 70.86C48.35 70.86 48.87 71.21 49.05 71.63C49.14 71.84 49.87 73.53 49.96 73.74C50.19 74.28 50.37 75.19 50.37 75.76C50.37 77.18 50.37 88.5 50.37 89.92C50.37 90.49 50.19 91.4 49.96 91.93C49.87 92.15 49.14 93.84 49.05 94.05C48.87 94.47 48.35 94.82 47.89 94.82C47.85 94.82 47.66 94.82 47.31 94.82C46.75 94.57 46.47 94.29 46.47 93.98ZM51.79 93.85C51.86 93.68 52.41 92.36 52.48 92.19C52.71 91.66 53.36 91.22 53.94 91.22C54.41 91.22 58.2 91.22 58.68 91.22C58.92 91.22 59.16 91.12 59.33 90.94C59.49 90.78 60.8 89.46 60.96 89.29C61.14 89.12 61.24 88.88 61.24 88.63C61.24 87.48 61.24 78.27 61.24 77.12C61.24 76.87 61.14 76.64 60.97 76.46C60.97 76.46 60.97 76.46 60.96 76.45L59.26 74.74C59.26 74.74 59.26 74.74 59.26 74.74C59.09 74.56 58.85 74.46 58.6 74.46C58.13 74.46 54.4 74.46 53.94 74.46C53.36 74.46 52.71 74.02 52.48 73.49C52.41 73.32 51.86 71.99 51.79 71.82C51.56 71.29 51.85 70.86 52.43 70.86C53.16 70.86 59.03 70.86 59.76 70.86C60.41 70.86 60.96 71.09 61.43 71.56C61.73 71.86 64.11 74.26 64.41 74.56C64.88 75.04 65.1 75.58 65.1 76.24C65.1 77.56 65.1 88.12 65.1 89.44C65.1 90.09 64.88 90.64 64.41 91.12C64.11 91.42 61.73 93.82 61.43 94.12C61 94.57 60.39 94.83 59.76 94.82C59.27 94.82 56.83 94.82 52.43 94.82C51.85 94.53 51.64 94.21 51.79 93.85Z" id="b3AlBMQ5ue"></path><path d="M109.8 60.93C109.8 60.74 109.8 59.27 109.8 59.08C109.8 58.53 109.89 58.02 110.07 57.56C110.07 57.56 110.07 57.56 110.08 57.54C114.01 48.19 116.19 42.99 116.62 41.95C116.85 41.41 117.21 41.41 117.44 41.95C117.55 42.22 118.46 44.39 118.58 44.66C118.8 45.2 118.8 46.07 118.59 46.61C118.12 47.77 114.36 57.04 113.89 58.2C113.81 58.38 113.69 58.68 113.62 58.86C113.57 59.03 113.55 59.2 113.55 59.38C113.55 59.53 113.55 60.77 113.55 60.93C113.56 61.51 113.09 61.98 112.51 61.98C112.4 61.98 111.84 61.98 110.84 61.98C110.15 61.66 109.8 61.31 109.8 60.93Z" id="cG7zktSHI"></path><path d="M127.07 60.93C127.07 60.78 127.07 59.6 127.07 59.45C127.08 59.09 127.01 58.74 126.88 58.41C126.81 58.25 126.27 56.94 126.2 56.77C125.98 56.24 125.33 55.8 124.75 55.8C124.11 55.8 118.94 55.8 118.29 55.8C117.9 55.8 117.7 55.5 117.85 55.13C117.92 54.96 118.5 53.57 118.57 53.39C118.79 52.86 119.44 52.42 120.01 52.42C120.35 52.42 123.03 52.42 123.36 52.42C123.93 52.42 124.23 51.98 124 51.45C123.49 50.2 119.38 40.24 118.87 38.99C118.65 38.45 118.94 38.02 119.51 38.02C119.7 38.02 121.25 38.02 121.44 38.02C122.01 38.02 122.67 38.45 122.89 38.99C123.41 40.22 126.01 46.38 130.7 57.47C130.7 57.49 130.71 57.5 130.71 57.5C130.88 57.95 130.98 58.46 130.98 59.01C130.98 59.2 130.98 60.74 130.98 60.93C130.98 61.51 130.51 61.98 129.93 61.98C129.81 61.98 129.21 61.98 128.12 61.98C127.42 61.67 127.07 61.31 127.07 60.93ZM167.3 9.43C167.3 11.24 167.3 25.69 167.3 27.5C167.3 27.96 166.93 28.34 166.47 28.34C166.41 28.34 165.94 28.34 165.88 28.34C165.43 28.34 164.9 28 164.72 27.57C164.63 27.36 163.91 25.67 163.82 25.46C163.56 24.81 163.42 24.13 163.4 23.44C163.4 22.44 163.4 14.49 163.4 13.5C163.4 12.92 163.59 12.01 163.82 11.48C163.91 11.26 164.63 9.57 164.72 9.36C164.9 8.94 165.43 8.59 165.88 8.59C165.92 8.59 166.12 8.59 166.47 8.59C167.02 8.84 167.3 9.12 167.3 9.43ZM145.19 5.22C146.98 5.22 161.33 5.22 163.12 5.22C163.59 5.22 163.96 5.6 163.96 6.06C163.96 6.12 163.96 6.59 163.96 6.65C163.96 7.11 163.61 7.64 163.19 7.82C162.98 7.92 161.3 8.64 161.09 8.73C160.45 8.99 159.78 9.13 159.09 9.15C158.1 9.15 150.21 9.15 149.22 9.15C148.65 9.15 147.74 8.96 147.22 8.73C147.01 8.64 145.33 7.92 145.12 7.82C144.7 7.64 144.35 7.11 144.35 6.65C144.35 6.61 144.35 6.42 144.35 6.06C144.6 5.5 144.88 5.22 145.19 5.22Z" id="a2mq2ylxw"></path></defs><g><g><g><use xlink:href="#aFc6zcG6m" opacity="1" fill="#364069" fill-opacity="1"></use><g><use xlink:href="#aFc6zcG6m" opacity="1" fill-opacity="0" stroke="#000000" stroke-width="1" stroke-opacity="0"></use></g></g><g><use xlink:href="#bWMp8PVCT" opacity="1" fill="#1eb0e0" fill-opacity="1"></use><g><use xlink:href="#bWMp8PVCT" opacity="1" fill-opacity="0" stroke="#000000" stroke-width="1" stroke-opacity="0"></use></g></g><g><use xlink:href="#b30MKMU00" opacity="1" fill="#364069" fill-opacity="1"></use><g><use xlink:href="#b30MKMU00" opacity="1" fill-opacity="0" stroke="#000000" stroke-width="1" stroke-opacity="0"></use></g></g><g><use xlink:href="#a1Gx1dnSae" opacity="1" fill="#1eb0e0" fill-opacity="1"></use><g><use xlink:href="#a1Gx1dnSae" opacity="1" fill-opacity="0" stroke="#000000" stroke-width="1" stroke-opacity="0"></use></g></g><g><use xlink:href="#b3AlBMQ5ue" opacity="1" fill="#364069" fill-opacity="1"></use><g><use xlink:href="#b3AlBMQ5ue" opacity="1" fill-opacity="0" stroke="#000000" stroke-width="1" stroke-opacity="0"></use></g></g><g><use xlink:href="#cG7zktSHI" opacity="1" fill="#1eb0e0" fill-opacity="1"></use><g><use xlink:href="#cG7zktSHI" opacity="1" fill-opacity="0" stroke="#000000" stroke-width="1" stroke-opacity="0"></use></g></g><g><use xlink:href="#a2mq2ylxw" opacity="1" fill="#1eb0e0" fill-opacity="1"></use><g><use xlink:href="#a2mq2ylxw" opacity="1" fill-opacity="0" stroke="#000000" stroke-width="1" stroke-opacity="0"></use></g></g></g></g></svg>