<svg xmlns="http://www.w3.org/2000/svg" viewBox="0 0 120.5 47.8"><path d="m4 8v-3.9c0-.7.5-1.3 1.2-1.3h20.6c.6 0 1.2.6 1.2 1.3v3.8l2 .8v-4.6c0-1.8-1.4-3.2-3.2-3.2h-20.6c-1.7 0-3.2 1.4-3.2 3.2v4.8zm23 5.8c-.4 7.3-5.4 13.2-11.5 13.2s-11.1-5.9-11.4-13.3l-2-.7c0 8.8 6.1 16 13.5 16s13.4-7.1 13.5-15.9z" fill="#06a99c"/><path d="m15.5 6-14.9 4.9 14.9 4.9 7.1-2.3.6-.2-9.5-2.8 2.5-.8 9.3 2.9.6-.2 4.4-1.5z" fill="#6c1d5f"/><path d="m23.3 13.3.1 3.6s1.5-1.3 2-2.2l.1-2.1z" fill="#6c1d5f"/><path d="m55.8 40.9h-5.7l-.9 2.4h-1.9l4.6-11.6h2.2l4.6 11.6h-1.9zm-5.2-1.5h4.7l-2.3-6.1zm13.2-4.7c1.6 0 2.5.7 3.1 1.5l-1 1c-.5-.7-1.2-1-2-1-1.6 0-2.7 1.3-2.7 3s1.1 3 2.7 3c.8 0 1.5-.3 2-1l1 1c-.6.8-1.6 1.5-3.1 1.5-2.5 0-4.3-1.9-4.3-4.4 0-2.7 1.7-4.6 4.3-4.6zm10.8 7.4c-.6.8-1.6 1.4-2.7 1.4-2.2 0-3.7-1.6-3.7-4.4 0-2.7 1.6-4.4 3.7-4.4 1.1 0 2.1.5 2.7 1.4v-1.2h1.6v8.4h-1.6zm0-4.7c-.4-.7-1.4-1.2-2.3-1.2-1.6 0-2.5 1.2-2.5 3 0 1.7 1 3 2.5 3 1 0 1.9-.5 2.3-1.2zm10 4.7c-.6.9-1.6 1.4-2.7 1.4-2.2 0-3.7-1.6-3.7-4.4 0-2.7 1.6-4.4 3.7-4.4 1.1 0 2.1.5 2.7 1.4v-4.4h1.6v11.6h-1.6zm0-4.7c-.4-.7-1.4-1.2-2.3-1.2-1.6 0-2.5 1.3-2.5 3s1 3 2.5 3c1 0 1.9-.5 2.3-1.2zm7.7-2.7c2.5 0 4.1 2 4.1 4.5v.4h-6.6c.1 1.4 1.2 2.6 2.8 2.6.9 0 1.9-.3 2.5-1l.7 1c-.8.8-2 1.2-3.4 1.2-2.5 0-4.3-1.8-4.3-4.4 0-2.3 1.8-4.3 4.2-4.3zm-2.5 3.8h5.1c0-1.1-.8-2.5-2.5-2.5s-2.5 1.4-2.6 2.5zm18.7-.8c0-1-.4-1.6-1.5-1.6-.8 0-1.7.6-2.1 1.2v6h-1.6v-5.6c0-1-.4-1.6-1.5-1.6-.8 0-1.6.6-2 1.2v6h-1.6v-8.4h1.6v1.2c.3-.5 1.5-1.4 2.7-1.4 1.3 0 2 .7 2.3 1.6.5-.8 1.6-1.6 2.8-1.6 1.5 0 2.4.8 2.4 2.5v6.1h-1.6v-5.6zm4.6 7.6c.6 0 1-.2 1.2-.8l.5-1.1-3.5-8.5h1.7l2.6 6.6 2.6-6.6h1.7l-4.1 10c-.5 1.3-1.5 1.8-2.7 1.8-.3 0-.7-.1-1-.1l.2-1.4c.3.1.6.1.8.1z" fill="#06a99c"/><g fill="#6c1d5f"><path d="m75.8 13.8h-8c.5-1.8 2.1-3 3.9-3 2.2 0 3.6 1.1 4.1 3m-8 2.7h11.7v-.7c0-1.9-.4-3.5-1.4-4.8-1.6-2.1-3.9-3.3-6.3-3.3-2 0-3.9.9-5.4 2.4-1.4 1.4-2.1 3.2-2.1 5.3 0 1.9.8 3.9 2.2 5.4 1.5 1.5 3.3 2.2 5.5 2.2 3.2 0 5.8-1.8 7-5h-3.7c-.7 1.2-2 1.8-3.5 1.8-2.3.1-3.8-1.2-4-3.3m17-1c0-2.5 1.8-4.4 4.2-4.4s4.2 2 4.2 4.3c0 2.4-1.8 4.3-4.4 4.3-2.1.1-4-1.8-4-4.2m-.1-6.2v-5.9h-3.4v19.3h3.4v-1.2c1.4 1.1 2.8 1.6 4.5 1.6 1.9 0 3.5-.6 4.8-1.7 1.8-1.5 2.7-3.7 2.7-6 0-2.1-.9-4.2-2.5-5.7-1.4-1.3-3.1-1.9-5-1.9-1.8 0-3.2.4-4.5 1.5m14.4-1.1h3.2v14.6h-3.2zm0-4.8h3.2v3.2h-3.2zm8.9 11.9c0-2.4 1.9-4.2 4.2-4.2 2.1 0 4.1 1.9 4.1 4.4 0 2.3-1.9 4.2-4.1 4.2-2.3-.1-4.2-1.9-4.2-4.4m8.7 7.5h3.2v-14.6h-3.2v1.7c-1-1.4-2.5-2.1-4.6-2.1-2.2 0-3.9.7-5.4 2.3-1.4 1.4-2.1 3.3-2.1 5.4 0 4.4 3.2 7.7 7.5 7.7 2.3 0 3.7-.6 4.5-2.1z"/><path d="m34.5 29.1h8.9l9.6-9.6 9.6 9.6h9l-14.1-14.1 14.2-14.2h-9l-9.7 9.7-9.7-9.7h-8.9l14.1 14.2z"/><path d="m9.3 15.3v4.3c1.7 1.5 3.8 2.3 6.2 2.3s4.6-.9 6.2-2.3v-4.3l-6.2 2z"/></g></svg>