<?xml version="1.0" encoding="UTF-8" standalone="no"?>
<!DOCTYPE svg PUBLIC "-//W3C//DTD SVG 1.1//EN" "http://www.w3.org/Graphics/SVG/1.1/DTD/svg11.dtd">
<svg version="1.1" xmlns="http://www.w3.org/2000/svg" xmlns:xlink="http://www.w3.org/1999/xlink" preserveAspectRatio="xMidYMid meet" viewBox="0 0 200 100" width="200" height="100"><defs><path d="M24.01 33.11C24.01 30.13 24.01 28.47 24.01 28.13C24.01 27.24 24.65 26.47 25.54 26.47C28.17 26.47 49.21 26.47 51.84 26.47C52.61 26.47 53.37 27.24 53.37 28.13C53.37 28.46 53.37 30.07 53.37 32.98L55.93 34.01C55.93 30.48 55.93 28.53 55.93 28.13C55.93 25.84 54.14 24.05 51.84 24.05C49.21 24.05 28.17 24.05 25.54 24.05C23.37 24.05 21.46 25.84 21.46 28.13C21.46 28.54 21.46 30.58 21.46 34.26L24.01 33.11ZM53.37 40.52C52.86 49.83 46.48 57.37 38.69 57.37C30.91 57.37 24.52 49.83 24.14 40.39C23.89 40.3 21.84 39.58 21.59 39.49C21.59 50.73 29.37 59.92 38.82 59.92C48.27 59.92 55.93 50.86 56.05 39.62C55.52 39.8 53.91 40.34 53.37 40.52Z" id="b5ANBSOCal"></path><path d="M38.69 30.56L19.67 36.81L38.69 43.07L47.76 40.13L48.52 39.88L36.4 36.3L39.59 35.28L51.46 38.98L52.22 38.73L57.84 36.81L38.69 30.56Z" id="b1JeC63rqQ"></path><path d="M48.65 39.88C48.73 42.63 48.77 44.17 48.78 44.47C48.78 44.47 50.69 42.81 51.33 41.66C51.34 41.49 51.38 40.59 51.46 38.98L48.65 39.88Z" id="bAgKszcm3"></path><path d="M90.14 75.11L82.86 75.11L81.71 78.17L79.29 78.17L85.16 63.37L87.97 63.37L93.84 78.17L91.41 78.17L90.14 75.11ZM83.5 73.19L89.5 73.19L86.56 65.41L83.5 73.19ZM104.3 69.11C104.18 69.24 103.16 70.26 103.03 70.39C102.39 69.49 101.5 69.11 100.48 69.11C98.43 69.11 97.03 70.77 97.03 72.94C97.03 75.11 98.43 76.77 100.48 76.77C101.5 76.77 102.39 76.39 103.03 75.49C103.16 75.62 104.18 76.64 104.3 76.77C103.54 77.79 102.26 78.68 100.35 78.68C97.16 78.68 94.86 76.26 94.86 73.07C94.86 69.62 97.03 67.19 100.35 67.19C102.39 67.19 103.54 68.09 104.3 69.11ZM114.13 76.64C113.37 77.66 112.09 78.43 110.69 78.43C107.88 78.43 105.96 76.39 105.96 72.81C105.96 69.36 108.01 67.19 110.69 67.19C112.09 67.19 113.37 67.83 114.13 68.98C114.13 68.88 114.13 68.37 114.13 67.45L116.18 67.45L116.18 78.17L114.13 78.17C114.13 77.36 114.13 76.85 114.13 76.64ZM114.13 70.64C113.62 69.75 112.35 69.11 111.2 69.11C109.16 69.11 108.01 70.64 108.01 72.94C108.01 75.11 109.28 76.77 111.2 76.77C112.47 76.77 113.62 76.13 114.13 75.24C114.13 74.32 114.13 71.56 114.13 70.64ZM126.9 76.64C126.13 77.79 124.86 78.43 123.45 78.43C120.64 78.43 118.73 76.39 118.73 72.81C118.73 69.36 120.77 67.19 123.45 67.19C124.86 67.19 126.13 67.83 126.9 68.98C126.9 68.61 126.9 66.74 126.9 63.37L128.94 63.37L128.94 78.17L126.9 78.17C126.9 77.36 126.9 76.85 126.9 76.64ZM126.9 70.64C126.39 69.75 125.11 69.11 123.96 69.11C121.92 69.11 120.77 70.77 120.77 72.94C120.77 75.11 122.05 76.77 123.96 76.77C125.24 76.77 126.39 76.13 126.9 75.24C126.9 74.32 126.9 71.56 126.9 70.64ZM141.96 72.94C141.96 72.97 141.96 73.14 141.96 73.45C136.91 73.45 134.1 73.45 133.54 73.45C133.66 75.24 135.07 76.77 137.11 76.77C138.26 76.77 139.54 76.39 140.3 75.49C140.39 75.62 141.11 76.64 141.2 76.77C140.17 77.79 138.64 78.3 136.86 78.3C133.66 78.3 131.37 76 131.37 72.68C131.37 69.75 133.66 67.19 136.73 67.19C139.92 67.19 141.96 69.75 141.96 72.94ZM140.05 72.05C140.05 70.64 139.03 68.85 136.86 68.85C134.69 68.85 133.66 70.64 133.54 72.05C134.84 72.05 139.4 72.05 140.05 72.05ZM157.41 71.02C157.41 69.75 156.9 68.98 155.49 68.98C154.47 68.98 153.32 69.75 152.81 70.51C152.81 71.02 152.81 73.58 152.81 78.17L150.77 78.17C150.77 73.88 150.77 71.5 150.77 71.02C150.77 69.75 150.26 68.98 148.85 68.98C147.83 68.98 146.81 69.75 146.3 70.51C146.3 71.02 146.3 73.58 146.3 78.17L144.26 78.17L144.26 67.45L146.3 67.45C146.3 68.37 146.3 68.88 146.3 68.98C146.68 68.34 148.22 67.19 149.75 67.19C151.41 67.19 152.3 68.09 152.68 69.24C153.32 68.22 154.73 67.19 156.26 67.19C158.17 67.19 159.32 68.22 159.32 70.39C159.32 70.91 159.32 73.5 159.32 78.17L157.28 78.17L157.28 71.02C157.35 71.02 157.39 71.02 157.41 71.02ZM164.81 79.7C164.85 79.61 165.07 79.14 165.45 78.3L160.98 67.45L163.15 67.45L166.47 75.87L169.79 67.45L171.96 67.45C168.82 75.11 167.07 79.36 166.73 80.22C166.09 81.87 164.81 82.51 163.28 82.51C162.9 82.51 162.39 82.39 162 82.39C162.03 82.21 162.23 80.78 162.26 80.6C162.64 80.73 163.02 80.73 163.28 80.73C164.04 80.73 164.56 80.47 164.81 79.7Z" id="af9daXNu"></path><path d="M115.67 40.52C109.54 40.52 106.13 40.52 105.45 40.52C106.09 38.22 108.13 36.69 110.43 36.69C113.24 36.69 115.03 38.09 115.67 40.52M105.45 43.96L120.39 43.96C120.39 43.43 120.39 43.13 120.39 43.07C120.39 40.64 119.88 38.6 118.6 36.94C116.56 34.26 113.62 32.73 110.56 32.73C108.01 32.73 105.58 33.88 103.67 35.79C101.88 37.58 100.99 39.88 100.99 42.56C100.99 44.98 102.01 47.54 103.79 49.45C105.71 51.37 108.01 52.26 110.81 52.26C114.9 52.26 118.22 49.96 119.75 45.88C119.28 45.88 115.5 45.88 115.03 45.88C114.13 47.41 112.47 48.17 110.56 48.17C107.62 48.3 105.71 46.64 105.45 43.96M127.15 42.69C127.15 39.49 129.45 37.07 132.52 37.07C135.58 37.07 137.88 39.62 137.88 42.56C137.88 45.62 135.58 48.05 132.26 48.05C129.58 48.17 127.15 45.75 127.15 42.69M127.03 34.77L127.03 27.24L122.69 27.24L122.69 51.88L127.03 51.88C127.03 50.96 127.03 50.45 127.03 50.35C128.81 51.75 130.6 52.39 132.77 52.39C135.2 52.39 137.24 51.62 138.9 50.22C141.2 48.3 142.34 45.49 142.34 42.56C142.34 39.88 141.2 37.2 139.15 35.28C137.37 33.62 135.2 32.86 132.77 32.86C130.47 32.86 128.69 33.37 127.03 34.77M145.41 33.37L149.49 33.37L149.49 52L145.41 52L145.41 33.37ZM145.41 27.24L149.49 27.24L149.49 31.33L145.41 31.33L145.41 27.24ZM156.77 42.43C156.77 39.37 159.19 37.07 162.13 37.07C164.81 37.07 167.36 39.49 167.36 42.69C167.36 45.62 164.94 48.05 162.13 48.05C159.19 47.92 156.77 45.62 156.77 42.43M167.87 52L171.96 52L171.96 33.37L167.87 33.37C167.87 34.67 167.87 35.39 167.87 35.54C166.6 33.75 164.68 32.86 162 32.86C159.19 32.86 157.02 33.75 155.11 35.79C153.32 37.58 152.43 40.01 152.43 42.69C152.43 48.3 156.51 52.52 162 52.52C164.94 52.52 166.73 51.75 167.75 49.83C167.76 50.12 167.81 50.85 167.87 52Z" id="b6L55f2KrR"></path><path d="M62.95 60.05L74.31 60.05L86.56 47.79L98.82 60.05L110.3 60.05L92.31 42.05L110.43 23.92L98.94 23.92L86.56 36.3L74.18 23.92L62.82 23.92L80.82 42.05L62.95 60.05Z" id="aa5JFMI7t"></path><path d="M30.78 42.43C30.78 45.72 30.78 47.55 30.78 47.92C32.95 49.83 35.63 50.86 38.69 50.86C41.76 50.86 44.56 49.71 46.61 47.92C46.61 47.55 46.61 45.72 46.61 42.43L38.69 44.98L30.78 42.43Z" id="bFyvImZja"></path></defs><g><g><g><use xlink:href="#b5ANBSOCal" opacity="1" fill="#06a99c" fill-opacity="1"></use><g><use xlink:href="#b5ANBSOCal" opacity="1" fill-opacity="0" stroke="#000000" stroke-width="1" stroke-opacity="0"></use></g></g><g><use xlink:href="#b1JeC63rqQ" opacity="1" fill="#6c1d5f" fill-opacity="1"></use><g><use xlink:href="#b1JeC63rqQ" opacity="1" fill-opacity="0" stroke="#000000" stroke-width="1" stroke-opacity="0"></use></g></g><g><use xlink:href="#bAgKszcm3" opacity="1" fill="#6c1d5f" fill-opacity="1"></use><g><use xlink:href="#bAgKszcm3" opacity="1" fill-opacity="0" stroke="#000000" stroke-width="1" stroke-opacity="0"></use></g></g><g><use xlink:href="#af9daXNu" opacity="1" fill="#06a99c" fill-opacity="1"></use><g><use xlink:href="#af9daXNu" opacity="1" fill-opacity="0" stroke="#000000" stroke-width="1" stroke-opacity="0"></use></g></g><g><use xlink:href="#b6L55f2KrR" opacity="1" fill="#6c1d5f" fill-opacity="1"></use><g><use xlink:href="#b6L55f2KrR" opacity="1" fill-opacity="0" stroke="#000000" stroke-width="1" stroke-opacity="0"></use></g></g><g><use xlink:href="#aa5JFMI7t" opacity="1" fill="#6c1d5f" fill-opacity="1"></use><g><use xlink:href="#aa5JFMI7t" opacity="1" fill-opacity="0" stroke="#000000" stroke-width="1" stroke-opacity="0"></use></g></g><g><use xlink:href="#bFyvImZja" opacity="1" fill="#6c1d5f" fill-opacity="1"></use><g><use xlink:href="#bFyvImZja" opacity="1" fill-opacity="0" stroke="#000000" stroke-width="1" stroke-opacity="0"></use></g></g></g></g></svg>