<?xml version="1.0" encoding="UTF-8" standalone="no"?>
<!DOCTYPE svg PUBLIC "-//W3C//DTD SVG 1.1//EN" "http://www.w3.org/Graphics/SVG/1.1/DTD/svg11.dtd">
<svg version="1.1" xmlns="http://www.w3.org/2000/svg" xmlns:xlink="http://www.w3.org/1999/xlink" preserveAspectRatio="xMidYMid meet" viewBox="0 0 200 100" width="200" height="100"><defs><path d="M99.02 33.15C90.52 33.15 85.8 33.15 84.86 33.15C85.73 29.95 88.63 27.84 91.7 27.84C95.52 27.84 98.05 29.72 99.02 33.15M84.79 38.01C97.25 38.01 104.18 38.01 105.56 38.01C105.56 37.56 105.56 37.14 105.56 36.69C105.56 33.27 104.77 30.52 103.16 28.19C100.41 24.54 96.32 22.31 91.9 22.31C88.36 22.31 84.93 23.85 82.31 26.6C79.9 29.15 78.66 32.35 78.66 35.97C78.66 39.39 80.1 42.94 82.53 45.49C85.21 48.17 88.41 49.49 92.27 49.49C98.03 49.49 102.59 46.29 104.77 40.63C104.12 40.63 98.9 40.63 98.25 40.63C97.01 42.74 94.7 43.83 92.08 43.83C87.84 43.98 85.08 41.65 84.79 38.01" id="bDto3MicN"></path><path d="M114.94 36.22C114.94 31.78 118.14 28.46 122.35 28.46C126.57 28.46 129.89 32.01 129.89 36.1C129.89 40.39 126.69 43.73 122.03 43.73C118.28 43.76 114.94 40.44 114.94 36.22M114.71 25.16L114.71 14.77L108.76 14.77L108.76 49.06L114.71 49.06C114.71 47.8 114.71 47.1 114.71 46.96C117.12 48.84 119.72 49.71 122.77 49.71C126.09 49.71 128.95 48.62 131.28 46.73C134.4 44.06 136.14 40.21 136.14 36.12C136.14 32.35 134.6 28.58 131.7 26.03C129.29 23.7 126.17 22.61 122.75 22.61C119.6 22.53 117.04 23.28 114.71 25.16" id="b2wqt7JHe6"></path><path d="M146.03 23.2L146.03 49.06L140.28 49.06L140.28 23.2L146.03 23.2ZM146.03 14.77L146.03 20.53L140.28 20.53L140.28 14.77L146.03 14.77Z" id="cjZdDcg9b"></path><path d="M156.12 35.77C156.12 31.56 159.44 28.36 163.53 28.36C167.3 28.36 170.82 31.68 170.82 36.12C170.82 40.11 167.4 43.54 163.63 43.54C159.54 43.54 156.12 40.34 156.12 35.77M177.25 49.06L177.25 23.2L171.49 23.2C171.49 25.06 171.49 26.1 171.49 26.3C169.73 23.75 167.06 22.53 163.29 22.53C159.42 22.53 156.32 23.77 153.69 26.53C151.29 29.08 150.05 32.4 150.05 36.05C150.05 43.81 155.8 49.63 163.41 49.63C167.4 49.63 170.03 48.54 171.47 45.87C171.47 46.08 171.48 47.15 171.49 49.06L171.49 49.06L177.25 49.06Z" id="aoFzUcjQK"></path><path d="M41.49 60.32L58.55 43.31L75.56 60.32L91.53 60.32L66.54 35.33L91.75 10.14L75.79 10.14L58.55 27.39L41.42 10.14L25.5 10.14L50.57 35.33L25.72 60.32L41.49 60.32Z" id="d3JfApFIL"></path><path d="M40.87 88.59L40.87 69.17L43.7 69.17L43.7 88.59L40.87 88.59Z" id="b3KJJZoVkn"></path><path d="M49.55 88.59L49.55 71.76L45.83 71.76L45.83 69.17L56.11 69.17L56.11 71.76L52.38 71.76L52.38 88.59L49.55 88.59Z" id="fsemvRnqG"></path><path d="M78.15 88.59L76 82.86L69.02 82.86L66.86 88.58L63.88 88.58L71.25 69.16L73.8 69.16L81.17 88.59L78.15 88.59ZM72.56 72.84L72.51 72.84L70.02 80.27L75.03 80.27L72.56 72.84Z" id="a1mbqUz7yE"></path><path d="M83.24 88.59L83.24 74.05L85.79 74.05L85.79 75.36C85.82 75.36 85.84 75.36 85.84 75.36C86.5 74.39 87.63 73.76 89.54 73.66C89.54 73.94 89.54 76.18 89.54 76.46C87.18 76.54 85.97 77.98 85.97 80.42C85.97 80.97 85.97 83.68 85.97 88.58L83.24 88.59Z" id="b6Tj5XBvbk"></path><path d="M105.29 83.79C104.12 87.07 101.35 88.96 98.12 88.96C94.01 88.96 90.67 85.62 90.67 81.5C90.67 81.49 90.67 81.47 90.67 81.45C90.67 77.07 93.84 73.66 98.09 73.66C101.4 73.66 104.42 75.73 105.28 78.88C104.98 78.88 102.57 78.88 102.27 78.88C101.45 77.18 100.14 76.15 98.17 76.15C95.32 76.15 93.4 78.33 93.4 81.29C93.4 84.18 95.37 86.47 98.12 86.47C99.91 86.5 101.55 85.44 102.24 83.79C102.85 83.79 104.68 83.79 105.29 83.79Z" id="b3dQgr5Wwf"></path><path d="M117.64 88.59C117.64 83.85 117.64 81.21 117.64 80.69C117.64 77.57 116.44 76.15 114.02 76.15C111.61 76.15 110.19 77.88 110.19 80.71C110.19 81.24 110.19 83.86 110.19 88.59L107.46 88.59L107.46 69.17L110.19 69.17L110.19 75.6C110.22 75.6 110.24 75.6 110.25 75.6C111.11 74.31 112.5 73.66 114.31 73.66C117.78 73.66 120.37 75.86 120.37 79.85C120.37 80.43 120.37 83.34 120.37 88.59L117.64 88.59Z" id="a7MMb7u9N"></path><path d="M123.81 72.38L123.81 69.17L126.54 69.17L126.54 72.38L123.81 72.38ZM123.81 88.59L123.81 74.05L126.54 74.05L126.54 88.59L123.81 88.59Z" id="a1aoGmvZ80"></path><path d="M130.5 88.59L130.5 76.54L128.53 76.54L128.53 74.05L130.5 74.05L130.5 69.16L133.23 69.16L133.23 74.05L135.62 74.05L135.62 76.54L133.23 76.54L133.23 88.59L130.5 88.59Z" id="b39v9bH73n"></path><path d="M139.45 82.5C140.08 84.91 141.99 86.46 144.22 86.46C145.95 86.47 147.54 85.54 148.37 84.02C148.64 84.02 150.83 84.02 151.1 84.02C149.97 87.01 147.24 88.96 144.11 88.96C140.02 88.96 136.71 85.33 136.71 81.45C136.71 76.86 140.17 73.66 144.03 73.66C148.31 73.66 151.56 76.96 151.56 81.14C151.57 81.59 151.55 82.05 151.48 82.5C149.08 82.5 141.85 82.5 139.45 82.5ZM148.84 80.4C148.63 77.94 146.46 76.15 144.12 76.15C141.89 76.15 139.66 77.91 139.45 80.4C141.33 80.4 146.96 80.4 148.84 80.4Z" id="aC9VRfsnI"></path><path d="M168.15 83.79C166.99 87.07 164.22 88.96 160.99 88.96C156.87 88.96 153.54 85.62 153.54 81.5C153.54 81.49 153.54 81.47 153.54 81.45C153.54 77.07 156.71 73.66 160.96 73.66C164.27 73.66 167.29 75.73 168.15 78.88C167.85 78.88 165.44 78.88 165.14 78.88C164.32 77.18 163.01 76.15 161.04 76.15C158.18 76.15 156.27 78.33 156.27 81.29C156.27 84.18 158.24 86.47 160.99 86.47C162.78 86.5 164.41 85.44 165.11 83.79C165.72 83.79 167.55 83.79 168.15 83.79Z" id="b1uCFdio"></path><path d="M171.07 88.59L171.07 76.54L169.1 76.54L169.1 74.05L171.07 74.05L171.07 69.16L173.79 69.16L173.79 74.05L176.18 74.05L176.18 76.54L173.79 76.54L173.79 88.59L171.07 88.59Z" id="d3P5MHVDnd"></path><path d="M183.74 77.91C183.61 76.86 183 76.15 181.88 76.15C180.82 76.15 180.17 76.85 180.17 77.7C180.17 78.93 181.43 79.3 182.87 79.74C184.92 80.37 186.81 81.61 186.81 84.31C186.81 87.1 184.76 88.95 181.91 88.95C179.29 88.95 176.77 87.17 176.77 83.81C177.04 83.81 179.23 83.81 179.5 83.81C179.63 85.57 180.52 86.46 181.97 86.46C183.23 86.46 184.06 85.65 184.06 84.47C184.06 83.47 183.3 82.81 181.6 82.26C178.03 81.13 177.43 79.58 177.43 77.93C177.43 75.37 179.6 73.66 181.99 73.66C184.38 73.66 186.37 75.33 186.45 77.91C185.91 77.91 184.28 77.91 183.74 77.91Z" id="a2Q2B2VZqo"></path></defs><g><g><g><use xlink:href="#bDto3MicN" opacity="1" fill="#6c1d5f" fill-opacity="1"></use><g><use xlink:href="#bDto3MicN" opacity="1" fill-opacity="0" stroke="#000000" stroke-width="1" stroke-opacity="0"></use></g></g><g><use xlink:href="#b2wqt7JHe6" opacity="1" fill="#6c1d5f" fill-opacity="1"></use><g><use xlink:href="#b2wqt7JHe6" opacity="1" fill-opacity="0" stroke="#000000" stroke-width="1" stroke-opacity="0"></use></g></g><g><use xlink:href="#cjZdDcg9b" opacity="1" fill="#6c1d5f" fill-opacity="1"></use><g><use xlink:href="#cjZdDcg9b" opacity="1" fill-opacity="0" stroke="#000000" stroke-width="1" stroke-opacity="0"></use></g></g><g><use xlink:href="#aoFzUcjQK" opacity="1" fill="#6c1d5f" fill-opacity="1"></use><g><use xlink:href="#aoFzUcjQK" opacity="1" fill-opacity="0" stroke="#000000" stroke-width="1" stroke-opacity="0"></use></g></g><g><use xlink:href="#d3JfApFIL" opacity="1" fill="#6c1d5f" fill-opacity="1"></use><g><use xlink:href="#d3JfApFIL" opacity="1" fill-opacity="0" stroke="#000000" stroke-width="1" stroke-opacity="0"></use></g></g><g><use xlink:href="#b3KJJZoVkn" opacity="1" fill="#06a99c" fill-opacity="1"></use><g><use xlink:href="#b3KJJZoVkn" opacity="1" fill-opacity="0" stroke="#000000" stroke-width="1" stroke-opacity="0"></use></g></g><g><use xlink:href="#fsemvRnqG" opacity="1" fill="#06a99c" fill-opacity="1"></use><g><use xlink:href="#fsemvRnqG" opacity="1" fill-opacity="0" stroke="#000000" stroke-width="1" stroke-opacity="0"></use></g></g><g><use xlink:href="#a1mbqUz7yE" opacity="1" fill="#06a99c" fill-opacity="1"></use><g><use xlink:href="#a1mbqUz7yE" opacity="1" fill-opacity="0" stroke="#000000" stroke-width="1" stroke-opacity="0"></use></g></g><g><use xlink:href="#b6Tj5XBvbk" opacity="1" fill="#06a99c" fill-opacity="1"></use><g><use xlink:href="#b6Tj5XBvbk" opacity="1" fill-opacity="0" stroke="#000000" stroke-width="1" stroke-opacity="0"></use></g></g><g><use xlink:href="#b3dQgr5Wwf" opacity="1" fill="#06a99c" fill-opacity="1"></use><g><use xlink:href="#b3dQgr5Wwf" opacity="1" fill-opacity="0" stroke="#000000" stroke-width="1" stroke-opacity="0"></use></g></g><g><use xlink:href="#a7MMb7u9N" opacity="1" fill="#06a99c" fill-opacity="1"></use><g><use xlink:href="#a7MMb7u9N" opacity="1" fill-opacity="0" stroke="#000000" stroke-width="1" stroke-opacity="0"></use></g></g><g><use xlink:href="#a1aoGmvZ80" opacity="1" fill="#06a99c" fill-opacity="1"></use><g><use xlink:href="#a1aoGmvZ80" opacity="1" fill-opacity="0" stroke="#000000" stroke-width="1" stroke-opacity="0"></use></g></g><g><use xlink:href="#b39v9bH73n" opacity="1" fill="#06a99c" fill-opacity="1"></use><g><use xlink:href="#b39v9bH73n" opacity="1" fill-opacity="0" stroke="#000000" stroke-width="1" stroke-opacity="0"></use></g></g><g><use xlink:href="#aC9VRfsnI" opacity="1" fill="#06a99c" fill-opacity="1"></use><g><use xlink:href="#aC9VRfsnI" opacity="1" fill-opacity="0" stroke="#000000" stroke-width="1" stroke-opacity="0"></use></g></g><g><use xlink:href="#b1uCFdio" opacity="1" fill="#06a99c" fill-opacity="1"></use><g><use xlink:href="#b1uCFdio" opacity="1" fill-opacity="0" stroke="#000000" stroke-width="1" stroke-opacity="0"></use></g></g><g><use xlink:href="#d3P5MHVDnd" opacity="1" fill="#06a99c" fill-opacity="1"></use><g><use xlink:href="#d3P5MHVDnd" opacity="1" fill-opacity="0" stroke="#000000" stroke-width="1" stroke-opacity="0"></use></g></g><g><use xlink:href="#a2Q2B2VZqo" opacity="1" fill="#06a99c" fill-opacity="1"></use><g><use xlink:href="#a2Q2B2VZqo" opacity="1" fill-opacity="0" stroke="#000000" stroke-width="1" stroke-opacity="0"></use></g></g></g></g></svg>