<?xml version="1.0" encoding="utf-8"?>
<!-- Generator: Adobe Illustrator 25.2.1, SVG Export Plug-In . SVG Version: 6.00 Build 0)  -->
<svg version="1.1" id="Layer_1" xmlns="http://www.w3.org/2000/svg" xmlns:xlink="http://www.w3.org/1999/xlink" x="0px" y="0px"
	 viewBox="0 0 337 187.6" style="enable-background:new 0 0 337 187.6;" xml:space="preserve">
<style type="text/css">
	.st0{fill:#33475B;}
	.st1{fill:#F97C00;}
</style>
<g id="New_Symbol_3">
</g>
<g id="New_Symbol_2">
</g>
<g id="New_Symbol_2_1_">
</g>
<g id="New_Symbol_3_1_">
</g>
<g>
	<g>
		<path class="st0" d="M152,112.6h-4.3c-0.4,0-0.6-0.1-0.8-0.4c-0.1-0.2-0.1-0.5,0-0.9l14.5-26.6l-13.7-24.2
			c-0.2-0.3-0.2-0.6-0.1-0.9c0.2-0.2,0.4-0.4,0.8-0.4h4.1c0.9,0,1.5,0.4,1.8,1.2l11.1,20.4h0.3l10.9-20.4c0.4-0.8,1-1.2,1.8-1.2h4.3
			c0.4,0,0.6,0.1,0.8,0.4c0.1,0.2,0.1,0.5,0,0.9l-13.8,24.1l14.4,26.6c0.2,0.3,0.3,0.6,0.1,0.9c-0.1,0.2-0.4,0.4-0.8,0.4H179
			c-0.8,0-1.3-0.4-1.6-1.1l-11.8-22.2h-0.3l-11.8,22.2C153.3,112.2,152.7,112.6,152,112.6z"/>
		<path class="st0" d="M198.3,130.9h-3.7c-0.8,0-1.2-0.4-1.2-1.2V71.5c0-0.8,0.4-1.2,1.2-1.2h3.7c0.8,0,1.2,0.4,1.2,1.2v3.2h0.3
			c1.4-2.9,4.2-4.4,8.4-4.4h5c3.8,0,6.7,1.1,8.7,3.2c2.1,2.2,3.1,5.2,3.1,9v17.7c0,3.9-1,6.9-3.1,9c-2.1,2.2-5,3.2-8.7,3.2h-5
			c-4.2,0-7.1-1.5-8.4-4.4h-0.3v21.5C199.4,130.5,199,130.9,198.3,130.9z M207.1,107.3h4.9c4.7,0,7-2.4,7-7.2V82.9
			c0-4.8-2.3-7.2-7-7.2h-4.9c-2.5,0-4.4,0.7-5.7,2s-2,3.2-2,5.6v16.4c0,2.4,0.7,4.3,2,5.6C202.7,106.6,204.6,107.3,207.1,107.3z"/>
		<path class="st0" d="M236,63.4v-7.8c0-0.8,0.4-1.2,1.1-1.2h3.8c0.8,0,1.2,0.4,1.2,1.2v7.8c0,0.8-0.4,1.2-1.2,1.2h-3.8
			C236.4,64.6,236,64.2,236,63.4z M236,111.4V71.5c0-0.8,0.4-1.2,1.1-1.2h3.8c0.8,0,1.2,0.4,1.2,1.2v39.9c0,0.8-0.4,1.2-1.2,1.2
			h-3.7C236.4,112.6,236,112.2,236,111.4z"/>
		<path class="st0" d="M260.4,112.6h-3.7c-0.8,0-1.2-0.4-1.2-1.2V71.5c0-0.8,0.4-1.2,1.2-1.2h3.7c0.8,0,1.2,0.4,1.2,1.2v3.3h0.3
			c0.6-1.2,1.6-2.3,3.1-3.1c1.5-0.9,3.4-1.3,5.5-1.3h3.2c0.7,0,1.1,0.4,1.1,1.2v3.1c0,0.4-0.1,0.7-0.2,0.9c-0.2,0.2-0.4,0.3-0.8,0.2
			h-4.5c-2.5,0-4.4,0.7-5.7,2.2c-1.3,1.5-2,3.5-2,6.1v27.4C261.6,112.2,261.2,112.6,260.4,112.6z"/>
		<path class="st0" d="M284.3,63.4v-7.8c0-0.8,0.4-1.2,1.1-1.2h3.8c0.8,0,1.2,0.4,1.2,1.2v7.8c0,0.8-0.4,1.2-1.2,1.2h-3.8
			C284.7,64.6,284.3,64.2,284.3,63.4z M284.3,111.4V71.5c0-0.8,0.4-1.2,1.1-1.2h3.8c0.8,0,1.2,0.4,1.2,1.2v39.9
			c0,0.8-0.4,1.2-1.2,1.2h-3.7C284.7,112.6,284.3,112.2,284.3,111.4z"/>
		<path class="st0" d="M305.4,75.7h-4.6c-0.8,0-1.2-0.4-1.2-1.1v-3.1c0-0.8,0.4-1.2,1.2-1.2h4.6c0.6,0,0.8-0.2,0.8-0.7v-7.1
			c0-0.8,0.4-1.2,1.2-1.2h3.7c0.7,0,1.1,0.4,1.1,1.2v7.1c0,0.5,0.3,0.7,0.9,0.7h8.8c0.8,0,1.2,0.4,1.2,1.2v3.1
			c0,0.7-0.4,1.1-1.2,1.1h-8.8c-0.6,0-0.9,0.2-0.9,0.7v23.8c0,4.7,2.4,7,7.3,7h3.2c0.8,0,1.2,0.4,1.2,1.2v3.1c0,0.7-0.4,1.1-1.2,1.1
			h-4c-3.8,0-6.8-1.1-9.1-3.2c-2.3-2.1-3.4-5.1-3.4-8.9V76.4C306.3,75.9,306,75.7,305.4,75.7z"/>
	</g>
	<path class="st1" d="M35.1,9.9H22.6c-3.1,0-5.2,1-6.3,3s-0.9,4.2,0.7,6.8c1,1.7,36.4,60.2,36.4,60.2c0.7,1.2,2,1.9,3.4,1.9h1.1
		c1.4,0,2.7-0.7,3.4-1.9l6.3-10.6c0.7-1.1,0.7-2.5,0.2-3.8L44.3,15.8C42.9,12.1,39.5,9.9,35.1,9.9z"/>
	<path class="st1" d="M58,98.9h-1.1c-1.4,0-2.7,0.7-3.4,2l-39.8,67.8c-1.1,1.8-0.5,4.2,1.3,5.4c0.7,0.4,1.4,0.6,2.2,0.6
		c1.2,0,2.5-0.6,3.2-1.7l44.3-62c0.9-1.3,1-3,0.2-4.3l-3.4-5.9C60.7,99.6,59.4,98.9,58,98.9z"/>
	<path class="st1" d="M134.5,9.9h-13c-2.4,0-5.8,1-8.6,5.9L67.6,87c-0.8,1.3-0.8,2.9-0.1,4.2l48.9,81.5c0.7,1.2,2.1,1.9,3.4,1.9
		c0.6,0,1.3-0.1,1.9-0.5c1.9-1,2.6-3.3,1.7-5.2l-37-79.6L139.6,20c0-0.1,0.1-0.1,0.1-0.2c2-2.9,1.3-5.4,0.8-6.6
		C139.9,12,138.3,9.9,134.5,9.9z"/>
</g>
</svg>
