<?xml version="1.0" encoding="UTF-8" standalone="no"?>
<!DOCTYPE svg PUBLIC "-//W3C//DTD SVG 1.1//EN" "http://www.w3.org/Graphics/SVG/1.1/DTD/svg11.dtd">
<svg version="1.1" xmlns="http://www.w3.org/2000/svg" xmlns:xlink="http://www.w3.org/1999/xlink" preserveAspectRatio="xMidYMid meet" viewBox="0 0 200 100" width="200" height="100"><defs><path d="M99.02 33.15C90.52 33.15 85.8 33.15 84.86 33.15C85.73 29.95 88.63 27.84 91.7 27.84C95.52 27.84 98.05 29.72 99.02 33.15M84.79 38.01C97.25 38.01 104.18 38.01 105.56 38.01C105.56 37.56 105.56 37.14 105.56 36.69C105.56 33.27 104.77 30.52 103.16 28.19C100.41 24.54 96.32 22.31 91.9 22.31C88.36 22.31 84.93 23.85 82.31 26.6C79.9 29.15 78.66 32.35 78.66 35.97C78.66 39.39 80.1 42.94 82.53 45.49C85.21 48.17 88.41 49.49 92.27 49.49C98.03 49.49 102.59 46.29 104.77 40.63C104.12 40.63 98.9 40.63 98.25 40.63C97.01 42.74 94.7 43.83 92.08 43.83C87.84 43.98 85.08 41.65 84.79 38.01" id="bDto3MicN"></path><path d="M114.94 36.22C114.94 31.78 118.14 28.46 122.35 28.46C126.57 28.46 129.89 32.01 129.89 36.1C129.89 40.39 126.69 43.73 122.03 43.73C118.28 43.76 114.94 40.44 114.94 36.22M114.71 25.16L114.71 14.77L108.76 14.77L108.76 49.06L114.71 49.06C114.71 47.8 114.71 47.1 114.71 46.96C117.12 48.84 119.72 49.71 122.77 49.71C126.09 49.71 128.95 48.62 131.28 46.73C134.4 44.06 136.14 40.21 136.14 36.12C136.14 32.35 134.6 28.58 131.7 26.03C129.29 23.7 126.17 22.61 122.75 22.61C119.6 22.53 117.04 23.28 114.71 25.16" id="ajU9NygI7"></path><path d="M146.03 23.2L146.03 49.06L140.28 49.06L140.28 23.2L146.03 23.2ZM146.03 14.77L146.03 20.53L140.28 20.53L140.28 14.77L146.03 14.77Z" id="cjZdDcg9b"></path><path d="M156.12 35.77C156.12 31.56 159.44 28.36 163.53 28.36C167.3 28.36 170.82 31.68 170.82 36.12C170.82 40.11 167.4 43.54 163.63 43.54C159.54 43.54 156.12 40.34 156.12 35.77M177.25 49.06L177.25 23.2L171.49 23.2C171.49 25.06 171.49 26.1 171.49 26.3C169.73 23.75 167.06 22.53 163.29 22.53C159.42 22.53 156.32 23.77 153.69 26.53C151.29 29.08 150.05 32.4 150.05 36.05C150.05 43.81 155.8 49.63 163.41 49.63C167.4 49.63 170.03 48.54 171.47 45.87C171.47 46.08 171.48 47.15 171.49 49.06L171.49 49.06L177.25 49.06Z" id="aoFzUcjQK"></path><path d="M41.49 60.32L58.55 43.31L75.56 60.32L91.53 60.32L66.54 35.33L91.75 10.14L75.79 10.14L58.55 27.39L41.42 10.14L25.5 10.14L50.57 35.33L25.72 60.32L41.49 60.32Z" id="d3JfApFIL"></path><path d="M57.86 72.82C55.85 72.82 54.34 74.33 54.34 76.22C54.34 77.88 55.33 78.89 58.11 79.61C62.32 80.7 63.73 82.89 63.73 85.51C63.73 88.71 61.13 91.24 57.86 91.24C54.41 91.24 51.91 88.91 51.86 85.44C52.05 85.44 53.62 85.44 53.82 85.44C53.94 87.94 55.53 89.48 57.88 89.48C60.09 89.48 61.8 87.74 61.8 85.61C61.8 83.5 60.41 82.31 57.86 81.57C55.06 80.78 52.4 79.86 52.4 76.29C52.4 73.21 54.88 71.06 57.88 71.06C60.91 71.06 63.29 73.34 63.29 76.36C63.16 76.36 62.5 76.36 61.3 76.36C60.21 74 59.07 72.82 57.86 72.82Z" id="b7e6aclHIU"></path><path d="M72.74 89.55C74.97 89.55 77.1 88.27 77.89 86.16C78.09 86.16 79.66 86.16 79.85 86.16C78.74 89.26 75.83 91.22 72.76 91.22C68.67 91.22 65.25 87.89 65.25 83.68C65.25 79.49 68.69 76.09 72.74 76.09C77.05 76.09 80.3 79.81 80.3 83.78C80.3 83.95 80.27 84.15 80.27 84.32C79.4 84.32 75.03 84.32 67.16 84.32C69.02 87.81 70.88 89.55 72.74 89.55ZM72.76 77.75C70.08 77.75 67.68 79.71 67.18 82.69C67.93 82.69 71.67 82.69 78.41 82.69C76.53 79.4 74.64 77.75 72.76 77.75Z" id="d8YHM6laKk"></path><path d="M89.74 91.24C85.46 91.24 82.01 88.04 82.01 83.55C82.01 79.61 85.48 76.12 89.74 76.12C92.92 76.12 95.72 77.88 96.91 80.83C96.71 80.83 95.08 80.83 94.88 80.83C93.79 78.82 91.88 77.78 89.79 77.78C86.47 77.78 83.84 80.38 83.84 83.65C83.84 86.98 86.45 89.58 89.79 89.58C91.98 89.58 93.86 88.59 94.88 86.65C95.01 86.65 95.69 86.65 96.91 86.65C94.36 89.71 91.98 91.24 89.74 91.24Z" id="e5qsbTEREl"></path><path d="M109.95 88.66C109.92 88.66 109.91 88.66 109.9 88.66C109.08 90.32 107.4 91.24 105.32 91.24C102.24 91.24 99.07 89.6 99.07 84.74C99.07 84.19 99.07 81.44 99.07 76.49L100.9 76.49C100.9 81.31 100.9 83.99 100.9 84.52C100.9 87.79 102.29 89.58 105.29 89.58C107.77 89.58 109.83 87.84 109.83 84.4C109.83 83.87 109.83 81.23 109.83 76.49L111.66 76.49L111.66 90.89L109.95 90.89L109.95 88.66Z" id="b4J9n1SeBe"></path><path d="M114.94 76.49L116.77 76.49L116.77 78.57C116.8 78.57 116.82 78.57 116.82 78.57C117.44 77.06 118.56 76.24 120.89 76.12C120.89 76.25 120.89 76.9 120.89 78.07C120.87 78.07 120.86 78.07 120.86 78.07C118.21 78.35 116.77 80.08 116.77 82.39C116.77 82.96 116.77 85.79 116.77 90.89L114.94 90.89L114.94 76.49Z" id="b2CE8Loykw"></path><path d="M122.47 71.38L124.31 71.38L124.31 74.7L122.47 74.7L122.47 71.38ZM122.47 76.49L124.31 76.49L124.31 90.89L122.47 90.89L122.47 76.49Z" id="k9dvuIT3b"></path><path d="M128.97 78.15L125.92 78.15L125.92 76.49L128.95 76.49L128.95 71.38L130.78 71.38L130.78 76.46L134.23 76.46L134.23 78.12L130.78 78.12L130.78 90.87L128.97 90.87L128.97 78.15Z" id="e5hVXDDLdf"></path><path d="M140.85 90.42L135.24 76.49L137.2 76.49L141.79 87.97L146.7 76.49L148.66 76.49L140.3 95.95L138.34 95.95L140.85 90.42Z" id="e5ApGoLT4k"></path></defs><g><g><g><use xlink:href="#bDto3MicN" opacity="1" fill="#6c1d5f" fill-opacity="1"></use><g><use xlink:href="#bDto3MicN" opacity="1" fill-opacity="0" stroke="#000000" stroke-width="1" stroke-opacity="0"></use></g></g><g><use xlink:href="#ajU9NygI7" opacity="1" fill="#6c1d5f" fill-opacity="1"></use><g><use xlink:href="#ajU9NygI7" opacity="1" fill-opacity="0" stroke="#000000" stroke-width="1" stroke-opacity="0"></use></g></g><g><use xlink:href="#cjZdDcg9b" opacity="1" fill="#6c1d5f" fill-opacity="1"></use><g><use xlink:href="#cjZdDcg9b" opacity="1" fill-opacity="0" stroke="#000000" stroke-width="1" stroke-opacity="0"></use></g></g><g><use xlink:href="#aoFzUcjQK" opacity="1" fill="#6c1d5f" fill-opacity="1"></use><g><use xlink:href="#aoFzUcjQK" opacity="1" fill-opacity="0" stroke="#000000" stroke-width="1" stroke-opacity="0"></use></g></g><g><use xlink:href="#d3JfApFIL" opacity="1" fill="#6c1d5f" fill-opacity="1"></use><g><use xlink:href="#d3JfApFIL" opacity="1" fill-opacity="0" stroke="#000000" stroke-width="1" stroke-opacity="0"></use></g></g><g><use xlink:href="#b7e6aclHIU" opacity="1" fill="#06a99c" fill-opacity="1"></use><g><use xlink:href="#b7e6aclHIU" opacity="1" fill-opacity="0" stroke="#000000" stroke-width="1" stroke-opacity="0"></use></g></g><g><use xlink:href="#d8YHM6laKk" opacity="1" fill="#06a99c" fill-opacity="1"></use><g><use xlink:href="#d8YHM6laKk" opacity="1" fill-opacity="0" stroke="#000000" stroke-width="1" stroke-opacity="0"></use></g></g><g><use xlink:href="#e5qsbTEREl" opacity="1" fill="#06a99c" fill-opacity="1"></use><g><use xlink:href="#e5qsbTEREl" opacity="1" fill-opacity="0" stroke="#000000" stroke-width="1" stroke-opacity="0"></use></g></g><g><use xlink:href="#b4J9n1SeBe" opacity="1" fill="#06a99c" fill-opacity="1"></use><g><use xlink:href="#b4J9n1SeBe" opacity="1" fill-opacity="0" stroke="#000000" stroke-width="1" stroke-opacity="0"></use></g></g><g><use xlink:href="#b2CE8Loykw" opacity="1" fill="#06a99c" fill-opacity="1"></use><g><use xlink:href="#b2CE8Loykw" opacity="1" fill-opacity="0" stroke="#000000" stroke-width="1" stroke-opacity="0"></use></g></g><g><use xlink:href="#k9dvuIT3b" opacity="1" fill="#06a99c" fill-opacity="1"></use><g><use xlink:href="#k9dvuIT3b" opacity="1" fill-opacity="0" stroke="#000000" stroke-width="1" stroke-opacity="0"></use></g></g><g><use xlink:href="#e5hVXDDLdf" opacity="1" fill="#06a99c" fill-opacity="1"></use><g><use xlink:href="#e5hVXDDLdf" opacity="1" fill-opacity="0" stroke="#000000" stroke-width="1" stroke-opacity="0"></use></g></g><g><use xlink:href="#e5ApGoLT4k" opacity="1" fill="#06a99c" fill-opacity="1"></use><g><use xlink:href="#e5ApGoLT4k" opacity="1" fill-opacity="0" stroke="#000000" stroke-width="1" stroke-opacity="0"></use></g></g></g></g></svg>
