<svg xmlns="http://www.w3.org/2000/svg"><g fill="none" fill-rule="evenodd"><path fill="#364069" d="M9.245 2.58a.597.597 0 0 0-.436-.187h-.805c-.383 0-.816-.29-.965-.645L6.575.644C6.427.29 6.618 0 7 0h2.509c.432 0 .794.154 1.108.47l1.557 1.568c.27.273.27.717 0 .989l-.751.758a.693.693 0 0 1-.982 0L9.245 2.58zM3.55 15.926c-.432 0-.794-.154-1.107-.47L.466 13.466A1.519 1.519 0 0 1 0 12.348v-8.77c0-.435.152-.8.466-1.116L2.444.469C2.758.154 3.12 0 3.55 0h.433c.306 0 .655.232.776.514l.528 1.236c.15.354-.038.643-.42.643h-.617a.596.596 0 0 0-.437.187L2.73 3.673a.606.606 0 0 0-.186.44v7.701c0 .167.062.315.186.44l1.085 1.092a.6.6 0 0 0 .436.188h.829c.382 0 .816.289.964.643l.463 1.105c.15.354-.041.644-.423.644H3.55zm5.547 0c-.305 0-.654-.232-.775-.514l-.528-1.236c-.151-.354.038-.642.42-.642h.425a.6.6 0 0 0 .43-.183l.007-.006 1.203-1.213.002-.002a.602.602 0 0 0 .185-.437V9.725a.7.7 0 0 0-.694-.7H8.05a.699.699 0 0 1-.694-.698V7.43c0-.385.312-.7.694-.7h4.146c.382 0 .695.315.695.7v4.918c0 .436-.153.801-.466 1.117l-1.978 1.992c-.313.315-.676.469-1.108.469H9.1zm10.66 0c-.15 0-.325-.024-.524-.07-.182-.042-.386-.176-.607-.4l-1.978-1.992a1.513 1.513 0 0 1-.466-1.116v-8.77c0-.436.152-.801.466-1.116L18.627.469C18.94.154 19.3 0 19.733 0h.434c.306 0 .654.232.775.514l.529 1.236c.15.354-.039.643-.42.643h-.593a.597.597 0 0 0-.437.187l-1.085 1.093a.607.607 0 0 0-.185.44v7.7c0 .168.062.317.185.44l1.085 1.093c.124.124.27.188.437.188h.804c.383 0 .816.289.965.643l.463 1.105c.15.354-.041.644-.423.644h-2.51zm5.522 0c-.305 0-.653-.232-.774-.514l-.529-1.236c-.15-.354.038-.642.42-.642h.594a.603.603 0 0 0 .436-.187l1.085-1.094a.609.609 0 0 0 .185-.44v-7.7a.609.609 0 0 0-.182-.437l-.004-.005-1.084-1.09a.596.596 0 0 0-.436-.188h-.805c-.382 0-.816-.29-.965-.645L22.758.644c-.15-.354.041-.644.424-.644h2.532c.433 0 .795.154 1.109.47L28.8 2.461c.312.315.465.68.465 1.115v8.771c0 .436-.153.801-.465 1.116l-1.978 1.993c-.222.222-.427.357-.61.4a2.4 2.4 0 0 1-.523.069h-.41z"/><path fill="#1EB0E0" d="M.725 37.748a.56.56 0 0 1-.556-.56V22.383c0-.308.25-.56.556-.56h.386c.306 0 .655.231.775.514l.6 1.405c.152.354.275.957.275 1.342v9.403c0 .385-.123.989-.275 1.342l-.6 1.405a.916.916 0 0 1-.775.514H.725zm3.4 0c-.381 0-.572-.29-.423-.644L4.165 36c.15-.354.584-.644.965-.644H8.28a.602.602 0 0 0 .436-.187L9.8 34.075a.61.61 0 0 0 .184-.44v-7.651a.611.611 0 0 0-.179-.435l-.007-.007-1.132-1.14a.596.596 0 0 0-.436-.186h-3.1c-.381 0-.816-.29-.965-.644l-.463-1.105c-.149-.354.042-.644.424-.644h4.876c.431 0 .794.154 1.107.469l1.978 1.993c.314.315.465.68.465 1.116v8.77c0 .435-.151.8-.465 1.115L10.11 37.28c-.313.315-.676.469-1.107.469H4.126zm12.004 0a.698.698 0 0 1-.694-.7v-1.225c0-.365.06-.704.18-1.008l.006-.016 4.349-10.363c.149-.354.392-.354.54 0l.757 1.803c.148.354.152.936.01 1.293l-1.295 3.215c-.144.357.051.648.433.648h2.246c.382 0 .816.29.965.644l.487 1.157c.103.245-.03.446-.293.446H19.49c-.382 0-.813.292-.957.647l-.382.944c-.05.122-.129.321-.176.443a.983.983 0 0 0-.045.34v1.033a.698.698 0 0 1-.695.699H16.13zm11.48 0a.699.699 0 0 1-.695-.7v-.982c0-.141-.012-.267-.04-.384a2.027 2.027 0 0 0-.086-.29l-.006-.016-5.32-12.907c-.147-.355.046-.646.427-.646h1.28c.382 0 .816.29.965.644l5.187 12.285a2.763 2.763 0 0 1 .186 1.022v1.275a.699.699 0 0 1-.694.699H27.61z"/><path fill="#364069" d="M16.877 59.57a.698.698 0 0 1-.694-.699V44.205c0-.308.25-.56.556-.56h.386c.306 0 .654.232.775.514l.6 1.405c.151.354.275.958.275 1.342v11.965c0 .385-.313.7-.694.7h-1.204zm9.55 0a.699.699 0 0 1-.694-.699v-3.776c0-.165-.06-.31-.18-.434l-.007-.007-1.18-1.19a.598.598 0 0 0-.436-.186h-2.832a.7.7 0 0 1-.695-.7v-.945a.7.7 0 0 1 .695-.699h2.88a.596.596 0 0 0 .436-.186l1.134-1.142a.61.61 0 0 0 .185-.44v-1.822a.606.606 0 0 0-.185-.439l-.724-.729a.595.595 0 0 0-.436-.187h-3.246c-.381 0-.818-.289-.969-.642l-.452-1.06c-.152-.353.038-.642.42-.642h4.97c.416 0 .762.146 1.06.445l1.592 1.604c.314.315.466.68.466 1.115v2.698c0 .434-.152.8-.466 1.115l-1.178 1.187a.424.424 0 0 0 0 .594l1.178 1.187c.314.316.466.68.466 1.116v4.165a.7.7 0 0 1-.694.7h-1.108zm6.126 0a.699.699 0 0 1-.695-.699V44.344c0-.384.313-.699.695-.699h1.204c.38 0 .693.315.693.7V58.87c0 .385-.312.7-.693.7h-1.204zm12.718-4.847c-.141-.358-.143-.942-.003-1.3l2.884-7.339c.034-.088.064-.187.09-.3.027-.116.04-.241.04-.383v-1.057c0-.384.312-.699.695-.699h1.13a.7.7 0 0 1 .695.7v1.347c0 .368-.062.71-.183 1.017v.001l-3.931 10.02c-.168.43-.446.43-.617.002l-.8-2.01zm-1.886 4.848c-.383 0-.81-.293-.953-.65L37.59 46.71a2.73 2.73 0 0 1-.184-1.018v-1.348c0-.384.313-.699.694-.699h1.204a.7.7 0 0 1 .694.7V45.4a1.77 1.77 0 0 0 .131.684l5.046 12.835c.14.358-.056.65-.438.65h-1.351zm15.332-13.485c-.381 0-.813-.29-.96-.645l-.474-1.15c-.146-.355.046-.645.429-.645h6.382c.383 0 .695.314.695.699v1.042a.698.698 0 0 1-.695.7h-5.377zm-.047 6.73a.699.699 0 0 1-.693-.699v-1.043c0-.384.312-.699.693-.699h5.424c.383 0 .695.315.695.7v1.042c0 .385-.312.7-.695.7H58.67zm-4.358 6.755a.56.56 0 0 1-.556-.56V44.205c0-.307.25-.56.556-.56h.386c.305 0 .653.232.771.515l.62 1.477c.148.355.27.959.27 1.343l-.01 9.31c0 .384-.124.988-.274 1.342l-.603 1.424c-.12.283-.468.515-.774.515h-.386zm3.4 0c-.383 0-.575-.291-.429-.647l.474-1.149c.147-.355.579-.646.96-.646h5.377c.383 0 .695.315.695.7v1.042c0 .385-.312.7-.695.7h-6.382zm20.722-7.703c-.242-.298-.44-.856-.44-1.24v-6.284c0-.384.312-.699.694-.699h1.083c.382 0 .694.315.694.7v9.18c0 .46-.237.547-.528.189l-1.503-1.846zm-9.32 7.703a.699.699 0 0 1-.695-.7v-9.179c0-.462.238-.547.529-.19l1.503 1.846c.242.297.44.856.44 1.24v6.283c0 .385-.312.7-.694.7h-1.083zm9.454 0a.699.699 0 0 1-.694-.7v-.764a.602.602 0 0 0-.172-.424.504.504 0 0 1-.033-.038l-8.8-10.85a2.45 2.45 0 0 1-.33-.53 1.367 1.367 0 0 1-.12-.573v-1.348c0-.384.312-.699.695-.699h1.203c.382 0 .694.315.694.7v.763c0 .162.058.304.17.425a.68.68 0 0 1 .035.038l8.798 10.851c.137.168.247.346.331.529.08.175.12.368.12.573v1.347c0 .385-.312.7-.694.7h-1.203z"/><path fill="#1EB0E0" d="M39.545 24.264c-.382 0-.814-.29-.96-.645l-.557-1.35c-.1-.245.032-.446.297-.446h3.052c.383 0 .695.314.695.699v1.043c0 .385-.312.7-.695.7h-1.832zm-4.267 13.484a.699.699 0 0 1-.694-.699V24.964c0-.385-.313-.7-.694-.7h-3.508a.699.699 0 0 1-.694-.7v-1.042c0-.385.312-.699.694-.699h5.005c.381 0 .816.29.964.644l.565 1.347c.15.355.27.96.27 1.344l-.01 11.891a.7.7 0 0 1-.694.7h-1.204z"/><path fill="#364069" d="M.725 59.57a.56.56 0 0 1-.556-.56V44.206c0-.308.25-.56.556-.56h.386c.306 0 .655.232.775.514l.6 1.405c.152.354.275.958.275 1.342v9.404c0 .384-.123.988-.275 1.341l-.6 1.406c-.12.282-.47.514-.775.514H.725zm3.4 0c-.381 0-.572-.29-.423-.644l.463-1.104c.15-.354.584-.644.965-.644H8.28a.6.6 0 0 0 .435-.186L9.8 55.898a.61.61 0 0 0 .184-.44v-7.652a.61.61 0 0 0-.179-.434l-.007-.008-1.132-1.138v-.002a.596.596 0 0 0-.436-.186h-3.1c-.381 0-.816-.29-.965-.644l-.463-1.105c-.149-.354.042-.644.424-.644h4.876c.431 0 .794.154 1.107.47l1.978 1.992c.314.316.465.68.465 1.116v8.77c0 .435-.151.8-.465 1.116l-1.978 1.993a1.498 1.498 0 0 1-1.107.469H4.126z"/><path fill="#1EB0E0" d="M42.947 37.748a.699.699 0 0 1-.694-.7v-1.225c0-.366.06-.706.18-1.01l.006-.014 4.349-10.363c.148-.355.391-.355.54 0l.757 1.803c.149.354.152.936.008 1.292l-3.124 7.702c-.049.122-.128.321-.175.443a.997.997 0 0 0-.046.34v1.033a.698.698 0 0 1-.694.699h-1.107z"/><path fill="#1EB0E0" d="M54.426 37.748a.698.698 0 0 1-.694-.7v-.982a1.775 1.775 0 0 0-.132-.69l-.449-1.088c-.146-.355-.578-.646-.96-.646h-4.293c-.264 0-.397-.2-.295-.447l.477-1.154c.147-.355.579-.646.96-.646h2.224c.382 0 .575-.29.428-.645l-3.413-8.281c-.146-.355.047-.646.428-.646h1.28c.381 0 .816.29.965.644l5.187 12.285.007.018c.118.3.179.64.179 1.004v1.275a.699.699 0 0 1-.694.699h-1.205zM79.91 2.268a.56.56 0 0 1 .555.56v12.007a.56.56 0 0 1-.555.56h-.387c-.305 0-.654-.231-.775-.514l-.6-1.405a4.076 4.076 0 0 1-.275-1.342V5.529c0-.385.124-.99.275-1.343l.6-1.405c.121-.282.47-.513.775-.513h.387zM65.213.588c0-.307.25-.559.556-.559h11.92a.56.56 0 0 1 .555.56v.39c0 .307-.23.659-.51.78l-1.395.605a4.01 4.01 0 0 1-1.332.277H68.45c-.382 0-.982-.125-1.332-.277l-1.395-.605c-.28-.121-.51-.473-.51-.78v-.39z"/></g></svg>