<?xml version="1.0" encoding="utf-8"?>
<!-- Generator: Adobe Illustrator 25.0.1, SVG Export Plug-In . SVG Version: 6.00 Build 0)  -->
<svg version="1.1" id="Laag_1" xmlns="http://www.w3.org/2000/svg" xmlns:xlink="http://www.w3.org/1999/xlink" x="0px" y="0px"
	 viewBox="0 0 680.3 283.5" style="enable-background:new 0 0 680.3 283.5;" xml:space="preserve">
<style type="text/css">
	.st0{fill:#008853;}
	.st1{fill-rule:evenodd;clip-rule:evenodd;fill:#FFFFFF;}
	.st2{fill:#FFFFFF;}
</style>
<g>
	<path class="st0" d="M507.1,215.2H113.6v-89.6c0-34.4,27.9-62.3,62.3-62.3h393.5v89.6C569.4,187.3,541.5,215.2,507.1,215.2z"/>
</g>
<g>
	<path class="st1" d="M323.2,109.4c-15.4,0-20.5,11-20.5,11h-0.2c0,0,0.1-1.5,0.1-3.3c0-3.9-2.1-6.2-7.6-6.2h-10h-1.1h-6.6
		c-5.7,0-7.6,1-10.8,6.2l-7.5,12c-1,1.6-2.1,3.9-2.1,3.9h-0.2c0,0-1.1-2.3-2-3.9c0,0,0,0,0,0l-7.6-12c-3.3-5.1-5-6.2-10.8-6.2H229
		c-0.1,0-0.2,0.1-0.2,0.2v9.8c0,0.1,0.1,0.2,0.2,0.2h3.3c2.6,0,3.9,0.4,5.3,2.3l11.8,17.5c0,0.1,0,0.1,0,0.2l-20.7,31.4
		c-0.1,0.1,0,0.2,0.1,0.2h13.1c0.1,0,0.1,0,0.1-0.1l12.8-20.1c1-1.5,2-3.3,2-3.3h0.2c0,0,1,1.8,1.8,3.3l13,20.1c0,0,0.1,0.1,0.1,0.1
		h13c0.1,0,0.2-0.1,0.1-0.2L264.4,141c0-0.1,0-0.1,0-0.2l11.8-17.6c1.2-1.8,2.8-2.2,5.3-2.2h2.4h1.1h3.9c1.7,0,2.7,0.9,2.7,2.7V197
		c0,0.1,0.1,0.2,0.2,0.2h0c6.5,0,11.7-5.2,11.7-11.7v-15.8c0-3.2-0.2-5.4-0.2-5.4h0.2c0,0,5.3,9.9,18.9,9.9
		c16.1,0,28.1-12.7,28.1-32.4C350.5,122.6,339.8,109.4,323.2,109.4z M320.5,164c-11.5,0-17.5-11-17.5-22c0-15.8,8.7-22.2,17.8-22.2
		c10.3,0,17.5,8.7,17.5,22.1C338.4,156,330.3,164,320.5,164z"/>
	<path class="st1" d="M385.9,109.4c-17.6,0-31,12.7-31,32.4c0,18.3,13.3,32.4,32.9,32.4c14.7,0,23.8-9,23.8-9l-5.1-8.4
		c0,0-7.5,7.2-18.1,7.2c-11,0-20.5-7.5-21.3-20.6h45.1c0,0,0.4-3.3,0.4-4.9C412.5,122.4,403.2,109.4,385.9,109.4z M367.6,134.6
		c1.8-10.3,9.2-15.8,18.2-15.8c7.7,0,14.2,5.5,14.5,15.8H367.6z"/>
	<path class="st1" d="M476.8,148.8v-28.3h14.8v-9.5h-14.8v-17h-0.1c-6.4,0-11.5,5.2-11.5,11.5v5.4h-8.3h0c-0.1,0-1.6,0-3.2,0
		c-9.5,0-16.6,6.4-19.5,15.4h-0.2c0,0,0.2-1.8,0.2-4.3v-3.9c0-5-2.6-7.2-7.9-7.2H415V121h5c1.7,0,2.7,0.9,2.7,2.7v49h11.9v-25.3
		c0-3.8,0.4-7.6,1.5-11.1c2.8-9.2,9.8-15.9,17.3-15.9c1.9,0,3.4,0,3.5,0h0h8v29.7c0,20.6,15.8,23.1,23.6,23.1c2.6,0,4.2-0.2,4.2-0.2
		v-10.5c0,0-1.1,0.2-2.8,0.2C485.3,162.7,476.8,161.1,476.8,148.8z"/>
	<path class="st1" d="M508.8,126.3c0-4.9,4.5-7.3,11.5-7.3c3.8,0,9.3,1.6,9.3,5.3v3.1h10.6v-5.9c0-9.4-12.8-12-20.3-12
		c-12.6,0-23,5.5-23,17.3c0,19.9,33.7,18.7,33.7,29.8c0,5.4-5,7.9-10.8,7.9c-11.4,0-18.7-9.2-18.7-9.2l-6.1,7.9
		c0,0,8.2,10.9,24.7,10.9c13,0,22.7-7.1,22.7-18.1C542.5,135.4,508.8,138,508.8,126.3z"/>
	<path class="st2" d="M226.8,129.7c0-24.7-20-44.7-44.7-44.7c-24.7,0-44.7,20-44.7,44.7c0,24.7,20,44.7,44.7,44.7
		c4,0,7.9-0.5,11.7-1.5l5.6,4.7c3.4,2.4,10.1,5.6,16-1.5l-9.9-8.3C218.3,159.8,226.8,145.7,226.8,129.7z M148.9,129.7
		c0-18.4,14.9-33.3,33.3-33.3c18.4,0,33.3,14.9,33.3,33.3c0,13.4-7.9,24.9-19.3,30.2l-4.1-3.5c-3.4-2.4-10.1-5.6-16,1.5l6,5.1
		C163.8,162.9,148.9,148,148.9,129.7z"/>
</g>
</svg>
