<svg xmlns="http://www.w3.org/2000/svg" viewBox="0 0 780.58 163.17">
  <g style="isolation: isolate">
    <g>
      <g>
        <polygon points="338.02 107.14 338.02 42.94 322.87 42.94 322.87 120.23 369.24 120.23 369.24 107.14 338.02 107.14" style="fill: #332668"/>
        <path d="M483.93,70.25V64.17c0-14.73-7.63-21.23-25.87-21.23H432.3v77.29h15.15V91.48h8.86l14.53,28.75h16l-15.66-31C481,85.71,483.93,78.9,483.93,70.25Zm-14.53-.93c0,7.32-2.89,9.48-10.82,9.48H447.45V56.13h11.13c7.93,0,10.82,2.17,10.82,9.38Z" style="fill: #332668"/>
        <path d="M510.6,42.94l-21.53,77.29H503.9l4.23-16.39h21.22l4.44,16.39h15.14L527.4,42.94Zm.31,48.84,7.73-29.36h.2l7.73,29.36Z" style="fill: #332668"/>
        <polygon points="540.67 56.44 560.15 56.44 560.15 120.23 575.29 120.23 575.29 56.44 594.77 56.44 594.77 42.94 540.67 42.94 540.67 56.44" style="fill: #332668"/>
        <path d="M682.53,42.94H656.35v77.29h26.18c17,0,27.41-7.73,27.41-25.76V68.7C709.94,50.57,699.53,42.94,682.53,42.94Zm12.26,50.6c0,9.79-3.09,13.81-12.26,13.81h-11V56.23h11c9.17,0,12.26,3.92,12.26,13.81Z" style="fill: #332668"/>
        <path d="M170.19,55.51c8.6,0,12.46,4.05,13,12.51h15.21c-.2-17.78-11.15-25.9-28.19-25.9C153,42.12,142,50.36,142,68.5V94.67c0,18,10.93,26.38,28.24,26.38,17,0,28-8.22,28.19-25.9H183.19c-.43,8.65-4.27,12.82-13,12.82-9.28,0-13.09-4.64-13.09-14.43V70C157.1,60.15,160.91,55.51,170.19,55.51Z" style="fill: #332668"/>
        <path d="M231,55.51c8.6,0,12.46,4.05,13,12.51h15.22C259,50.24,248,42.12,231,42.12c-17.21,0-28.23,8.24-28.23,26.38V94.67c0,18,10.92,26.38,28.23,26.38,17,0,28-8.22,28.2-25.9H244c-.43,8.65-4.28,12.82-13,12.82-9.27,0-13.08-4.64-13.08-14.43V70C217.88,60.15,221.69,55.51,231,55.51Z" style="fill: #332668"/>
        <polygon points="268.45 42.94 268.45 56.46 314.83 56.44 314.82 42.94 268.45 42.94" style="fill: #3d2773"/>
        <polygon points="268.45 120.23 314.82 120.23 314.83 107.14 268.45 107.15 268.45 120.23" style="fill: #332668"/>
        <rect x="268.45" y="73.34" width="44" height="13.7" style="fill: #332668"/>
        <polygon points="377.64 42.94 377.64 56.46 424.01 56.44 424.01 42.94 377.64 42.94" style="fill: #3d2773"/>
        <polygon points="377.64 120.23 424.01 120.23 424.01 107.14 377.64 107.15 377.64 120.23" style="fill: #332668"/>
        <rect x="377.64" y="73.34" width="44" height="13.7" style="fill: #332668"/>
        <polygon points="602.45 42.94 602.45 56.46 648.82 56.44 648.82 42.94 602.45 42.94" style="fill: #3d2773"/>
        <polygon points="602.45 120.23 648.82 120.23 648.82 107.14 602.45 107.15 602.45 120.23" style="fill: #332668"/>
        <rect x="602.45" y="73.34" width="44" height="13.7" style="fill: #332668"/>
        <polygon points="143.28 42.79 124.87 42.76 106.96 68.34 89.04 42.76 70.64 42.79 97.71 81.53 70.64 120.22 89.16 120.23 106.96 94.77 124.75 120.23 143.28 120.22 116.2 81.53 143.28 42.79" style="fill: #332668"/>
      </g>
      <g style="mix-blend-mode: multiply">
        <path d="M329.85,42.94h-3.74l-3.24.65v.75Z" style="fill: #009ee2"/>
        <path d="M322.87,46.94,338,43.86v-.72q-7.59,1.52-15.15,3.06Z" style="fill: #009ee2"/>
        <path d="M322.87,49.47q7.58-1.56,15.15-3.12v-.7l-15.15,3.1Z" style="fill: #009ee2"/>
        <path d="M322.87,51.92,338,48.78v-.69l-15.15,3.14Z" style="fill: #009ee2"/>
        <path d="M322.87,54.18,338,51v-.57l-15.15,3.16Z" style="fill: #009ee2"/>
        <path d="M338,52.22l-15.15,3.12v.47L338,52.7Z" style="fill: #009ee2"/>
        <path d="M338,53.9,322.87,57v.47q7.56-1.55,15.15-3.07Z" style="fill: #009ee2"/>
        <path d="M338,55.6q-7.59,1.49-15.15,3v.47q7.56-1.51,15.15-3Z" style="fill: #009ee2"/>
        <path d="M338,57.32q-7.61,1.45-15.15,3v.48q7.56-1.5,15.15-3Z" style="fill: #009ee2"/>
        <path d="M338,59.07q-7.61,1.41-15.15,2.9v.48Q330.42,61,338,59.57Z" style="fill: #009ee2"/>
        <path d="M338,61.36v-.52q-7.62,1.38-15.15,2.83v.49C327.9,63.2,332.94,62.26,338,61.36Z" style="fill: #009ee2"/>
        <path d="M338,62.66Q330.4,64,322.87,65.4v.5q7.53-1.41,15.15-2.72Z" style="fill: #009ee2"/>
        <path d="M338,65c-5.12.89-10.17,1.8-15.15,2.7v.52c5-.9,10-1.81,15.15-2.69Z" style="fill: #009ee2"/>
        <path d="M338,67.07c-5.12.88-10.17,1.79-15.15,2.69v.52c5-.9,10-1.8,15.15-2.67Z" style="fill: #009ee2"/>
        <path d="M338,69q-7.68,1.27-15.15,2.61v.52c5-.88,10-1.75,15.15-2.58Z" style="fill: #009ee2"/>
        <path d="M338,70.9c-5.12.81-10.17,1.66-15.15,2.52V74c5-.86,10-1.7,15.15-2.49Z" style="fill: #009ee2"/>
        <path d="M338,72.87c-5.12.76-10.17,1.58-15.15,2.41v.54c5-.83,10-1.63,15.15-2.38Z" style="fill: #009ee2"/>
        <path d="M338,74.87c-5.11.71-10.17,1.49-15.15,2.29v.54c5-.79,10-1.55,15.15-2.25Z" style="fill: #009ee2"/>
        <path d="M338,76.89q-7.66,1-15.15,2.18v.54q7.49-1.14,15.15-2.14Z" style="fill: #009ee2"/>
        <path d="M338,78.93c-5.1.62-10.16,1.31-15.15,2v.55c5-.72,10.05-1.4,15.15-2Z" style="fill: #009ee2"/>
        <path d="M338,81c-5.1.57-10.16,1.22-15.15,1.92v.55c5-.69,10.05-1.33,15.15-1.89Z" style="fill: #009ee2"/>
        <path d="M338,83c-5.1.52-10.15,1.14-15.15,1.8v.55c5-.65,10.06-1.25,15.15-1.77Z" style="fill: #009ee2"/>
        <path d="M338,85.07c-5.09.48-10.15,1.05-15.15,1.69v.54c5-.62,10.06-1.19,15.15-1.66Z" style="fill: #009ee2"/>
        <path d="M338,87.07c-5.09.44-10.15,1-15.15,1.58v.54c5-.6,10.06-1.13,15.15-1.56Z" style="fill: #009ee2"/>
        <path d="M322.87,90.79v.55q7.59-.77,15.15-1.3v-.56Q330.46,90,322.87,90.79Z" style="fill: #009ee2"/>
        <path d="M338,91.15c-5.08.42-10.14.94-15.15,1.53v.66c5-.59,10.07-1.12,15.15-1.55Z" style="fill: #009ee2"/>
        <path d="M338,93.46c-5.08.44-10.14,1-15.15,1.57v.69c5-.6,10.07-1.13,15.15-1.57Z" style="fill: #009ee2"/>
        <path d="M338,95.9c-5.08.45-10.14,1-15.15,1.58v.71c5-.59,10.07-1.13,15.15-1.57Z" style="fill: #009ee2"/>
        <path d="M338,98.45c-5.08.44-10.14,1-15.15,1.56v.74c5-.58,10.07-1.11,15.15-1.56Z" style="fill: #009ee2"/>
        <path d="M322.87,102.62v.75c5-.56,10.07-1.08,15.15-1.51v-.77C332.94,101.53,327.88,102.05,322.87,102.62Z" style="fill: #009ee2"/>
        <path d="M338,103.46q-7.57.51-15.15,1.23v.78q7.58-.7,15.15-1.22Z" style="fill: #009ee2"/>
        <path d="M338,106.23q-7.57.51-15.15,1.2v.78c5.05-.45,10.1-.85,15.15-1.17Z" style="fill: #009ee2"/>
        <path d="M322.87,110.18V111c15.43-1.3,30.95-2.1,46.37-2.16V108C353.84,108,338.32,108.85,322.87,110.18Z" style="fill: #009ee2"/>
        <path d="M322.87,112.93v.79c15.4-1.2,30.89-2,46.37-2.07v-.81C353.78,110.93,338.28,111.71,322.87,112.93Z" style="fill: #009ee2"/>
        <path d="M322.87,116.45c15.37-1.08,30.85-1.79,46.37-1.93v-.82c-15.51.13-31,.86-46.37,2Z" style="fill: #009ee2"/>
        <path d="M369.24,116.57c-15.55.15-31,.81-46.37,1.8v.76c15.36-.95,30.82-1.59,46.37-1.74Z" style="fill: #009ee2"/>
        <path d="M369.24,119.42c-10.14.1-20.23.39-30.27.81h30.27Z" style="fill: #009ee2"/>
        <path d="M477.62,47.86c-.46-.36-.94-.71-1.45-1-4.68-1.34-9.42-2.62-14.23-3.77-1,0-2-.09-3.07-.1C465.25,44.39,471.48,46.08,477.62,47.86Z" style="fill: #009ee2"/>
        <path d="M446.58,42.94a275.24,275.24,0,0,1,34.18,8.36c-.22-.33-.44-.65-.68-1a288.17,288.17,0,0,0-29.49-7.4Z" style="fill: #009ee2"/>
        <path d="M432.3,43.65c18.16,1.58,34.3,6.17,50.15,11q-.18-.49-.39-1c-15.69-4.76-31.69-9.23-49.63-10.75h-.13Z" style="fill: #009ee2"/>
        <path d="M483.4,58.08c-.07-.34-.14-.67-.22-1-16.12-4.95-32.41-9.81-50.88-11.58v.75C450.86,48.12,467.18,53.08,483.4,58.08Z" style="fill: #009ee2"/>
        <path d="M432.3,49c18.75,2.2,35.09,7.51,51.54,12.61,0-.35,0-.69-.08-1C467.36,55.52,451,50.3,432.3,48.2Z" style="fill: #009ee2"/>
        <path d="M468.63,60.52c5.12,1.56,10.19,3.19,15.3,4.77V64.23c-5.31-1.65-10.59-3.33-15.93-5A6,6,0,0,1,468.63,60.52Z" style="fill: #009ee2"/>
        <path d="M457,56.13a189.42,189.42,0,0,0-24.71-5V52a185,185,0,0,1,21,4.18Z" style="fill: #009ee2"/>
        <path d="M447.45,57.16c-4.89-1.19-9.92-2.22-15.15-3v.91c5.23.83,10.26,1.9,15.15,3.11Z" style="fill: #009ee2"/>
        <path d="M469.37,64.53c4.84,1.54,9.67,3.09,14.56,4.58V68c-4.91-1.5-9.76-3.06-14.64-4.6C469.33,63.76,469.36,64.14,469.37,64.53Z" style="fill: #009ee2"/>
        <path d="M469.4,68.49c4.76,1.54,9.54,3.07,14.41,4.51,0-.37.06-.74.08-1.12-4.89-1.46-9.69-3-14.49-4.55Z" style="fill: #009ee2"/>
        <path d="M447.45,60.72c-4.9-1.29-9.92-2.44-15.15-3.36v1c5.23,1,10.25,2.15,15.15,3.48Z" style="fill: #009ee2"/>
        <path d="M483.2,76.85c.09-.36.17-.72.24-1.09-4.81-1.38-9.49-2.86-14.14-4.37,0,.4-.09.78-.16,1.14C473.76,74,478.41,75.49,483.2,76.85Z" style="fill: #009ee2"/>
        <path d="M447.45,64.5c-4.9-1.41-9.92-2.68-15.15-3.75v1c5.23,1.11,10.24,2.43,15.15,3.87Z" style="fill: #009ee2"/>
        <path d="M468.21,75.28a6.51,6.51,0,0,1-.7,1c4.66,1.52,9.41,3,14.34,4.29.17-.33.32-.68.47-1C477.48,78.22,472.81,76.78,468.21,75.28Z" style="fill: #009ee2"/>
        <path d="M447.45,68.47c-4.91-1.52-9.92-2.94-15.15-4.15v1c5.22,1.26,10.23,2.72,15.15,4.28Z" style="fill: #009ee2"/>
        <path d="M432.3,69.12c5.21,1.41,10.21,3,15.15,4.67v-1.2C442.52,71,437.51,69.41,432.3,68Z" style="fill: #009ee2"/>
        <path d="M464.13,78.21a15.46,15.46,0,0,1-2.39.44c5.73,1.91,11.58,3.74,17.79,5.31a11.29,11.29,0,0,0,.77-.94C474.69,81.58,469.35,79.93,464.13,78.21Z" style="fill: #009ee2"/>
        <path d="M432.3,71.9V73c5.18,1.56,10.17,3.27,15.15,5V76.82C442.48,75.1,437.49,73.41,432.3,71.9Z" style="fill: #009ee2"/>
        <path d="M449.65,78.8c8.38,2.94,16.83,5.89,26.19,8.19.42-.26.83-.54,1.21-.82-8.47-2.1-16.23-4.71-23.88-7.37Z" style="fill: #009ee2"/>
        <path d="M432.3,77c12.91,4.24,24.86,9.29,39.16,12.8l-.31-.61c.31-.11.6-.24.91-.36-14.43-3.6-26.56-8.75-39.76-13Z" style="fill: #009ee2"/>
        <path d="M432.3,81.07c13.1,4.61,25.5,9.83,41.26,12.92L473,92.85c-15.35-3.22-27.62-8.42-40.69-12.94Z" style="fill: #009ee2"/>
        <path d="M449.9,91.48h3.49c-7.35-2.34-14.16-5-21.09-7.52v1.15C438.09,87.25,443.83,89.46,449.9,91.48Z" style="fill: #009ee2"/>
        <path d="M457.5,93.84a138.65,138.65,0,0,0,17.93,3.85l-.51-1a142.53,142.53,0,0,1-18.07-4.14Z" style="fill: #009ee2"/>
        <path d="M432.3,89.06c4.94,1.88,9.9,3.77,15.15,5.5v-1.1c-5.23-1.74-10.19-3.64-15.15-5.52Z" style="fill: #009ee2"/>
        <path d="M459.62,98A133.1,133.1,0,0,0,477.09,101l-.45-.89A133.59,133.59,0,0,1,459,96.87Z" style="fill: #009ee2"/>
        <path d="M432.3,92.84c4.87,1.87,9.82,3.72,15.15,5.36v-1c-5.31-1.67-10.26-3.53-15.15-5.41Z" style="fill: #009ee2"/>
        <path d="M461,100.72l.51,1a130.37,130.37,0,0,0,13.41,1.9c1.21.11,2.44.2,3.68.29l-.41-.81-2.35-.19A131.44,131.44,0,0,1,461,100.72Z" style="fill: #009ee2"/>
        <path d="M432.3,96.38c4.81,1.84,9.76,3.62,15.15,5.16v-.93c-5.37-1.57-10.33-3.36-15.15-5.22Z" style="fill: #009ee2"/>
        <path d="M462.69,104.09l.45.89c2.83.44,5.79.81,8.94,1.08,2.56.22,5.18.39,7.85.53l-.38-.74c-2.28-.13-4.53-.28-6.73-.48C469.24,105.06,465.88,104.62,462.69,104.09Z" style="fill: #009ee2"/>
        <path d="M432.3,99.61a158.45,158.45,0,0,0,15.15,5v-.83c-5.42-1.48-10.38-3.2-15.15-5Z" style="fill: #009ee2"/>
        <path d="M469.94,108.42c3.64.3,7.39.51,11.23.64l-.34-.69c-3.54-.13-7-.33-10.36-.61-2.17-.19-4.25-.42-6.28-.69l.4.79C466.33,108.07,468.09,108.27,469.94,108.42Z" style="fill: #009ee2"/>
        <path d="M465.54,109.73l.35.7c.89.09,1.77.18,2.69.25,4.44.35,9,.57,13.75.67l-.32-.64c-4.5-.11-8.89-.32-13.13-.66C467.74,110,466.64,109.85,465.54,109.73Z" style="fill: #009ee2"/>
        <path d="M432.3,101.7v.78a141.49,141.49,0,0,0,15.15,4.78v-.73A147.55,147.55,0,0,1,432.3,101.7Z" style="fill: #009ee2"/>
        <path d="M466.74,112.12l.32.62,1.06.09c4.92.37,10,.57,15.29.65l-.3-.59c-5.13-.09-10.14-.29-15-.65Z" style="fill: #009ee2"/>
        <path d="M447.45,109A124.82,124.82,0,0,1,432.3,104v.64a124.93,124.93,0,0,0,15.15,4.9Z" style="fill: #009ee2"/>
        <path d="M467.76,114.12l.26.52.79.07c5,.39,10.21.61,15.56.69l-.26-.53c-5.36-.08-10.58-.29-15.59-.68Z" style="fill: #009ee2"/>
        <path d="M447.45,110.84a146.39,146.39,0,0,1-15.15-4.67v.45a150.42,150.42,0,0,0,15.15,4.68Z" style="fill: #009ee2"/>
        <path d="M447.45,112.31c-5.39-1.35-10.36-3-15.15-4.64v.39c4.8,1.68,9.78,3.27,15.15,4.62Z" style="fill: #009ee2"/>
        <path d="M468.63,115.85l.23.45,1.53.14c4.77.37,9.75.58,14.85.67l-.24-.47c-5.21-.08-10.28-.3-15.15-.68Z" style="fill: #009ee2"/>
        <path d="M447.45,113.54c-5.33-1.36-10.3-2.92-15.15-4.56v.34c4.86,1.62,9.84,3.17,15.15,4.52Z" style="fill: #009ee2"/>
        <path d="M469.39,117.35l.19.39c1.05.1,2.09.2,3.17.28,4.29.33,8.72.53,13.27.63l-.22-.42c-4.73-.1-9.35-.3-13.8-.65Z" style="fill: #009ee2"/>
        <path d="M474.86,119.07c-1.64-.12-3.25-.27-4.82-.44l.16.33c1.83.2,3.68.38,5.6.52,3.54.26,7.19.42,10.9.53l-.18-.37C482.54,119.53,478.64,119.35,474.86,119.07Z" style="fill: #009ee2"/>
        <path d="M432.3,110.16v.33c4.92,1.52,9.91,3,15.15,4.33v-.27C442.19,113.22,437.2,111.71,432.3,110.16Z" style="fill: #009ee2"/>
        <path d="M432.3,111.3v.33c5,1.41,10,2.8,15.15,4.07v-.25C442.25,114.16,437.25,112.75,432.3,111.3Z" style="fill: #009ee2"/>
        <path d="M470.59,119.73l.14.27,2,.23h2.88C473.89,120.08,472.22,119.92,470.59,119.73Z" style="fill: #009ee2"/>
        <path d="M432.3,112.49v.35c5,1.27,10,2.54,15.15,3.72v-.25C442.31,115.1,437.3,113.8,432.3,112.49Z" style="fill: #009ee2"/>
        <path d="M432.3,114.15c5,1.12,10.06,2.25,15.15,3.33v-.28c-5.1-1.1-10.12-2.27-15.15-3.44Z" style="fill: #009ee2"/>
        <path d="M432.3,115.6c5.05,1,10.08,2,15.15,2.91v-.31c-5.08-1-10.1-2-15.15-3Z" style="fill: #009ee2"/>
        <path d="M432.3,116.73v.48c5.06.82,10.1,1.66,15.15,2.49v-.36C442.39,118.48,437.36,117.59,432.3,116.73Z" style="fill: #009ee2"/>
        <path d="M432.3,118.46V119q4.59.61,9.16,1.26h3.08C440.46,119.63,436.39,119,432.3,118.46Z" style="fill: #009ee2"/>
        <path d="M527.86,44.61l-.28-1c-1.28-.21-2.57-.44-3.86-.67h-5.05C521.74,43.54,524.8,44.09,527.86,44.61Z" style="fill: #009ee2"/>
        <path d="M510.22,44.3c6.22,1.4,12.42,2.69,18.61,3.77l-.28-1c-6-1.05-12-2.28-18.1-3.6Z" style="fill: #009ee2"/>
        <path d="M509.45,47.07c6.78,1.64,13.53,3.12,20.3,4.32l-.26-.93c-6.6-1.17-13.2-2.6-19.82-4.17Z" style="fill: #009ee2"/>
        <path d="M508.92,49l-.21.74c7.3,1.86,14.58,3.54,21.92,4.83l-.25-.88C523.21,52.39,516.07,50.77,508.92,49Z" style="fill: #009ee2"/>
        <path d="M508,52.18c7.76,2.08,15.54,3.94,23.42,5.3l-.23-.82c-7.73-1.34-15.36-3.15-23-5.17Z" style="fill: #009ee2"/>
        <path d="M507.39,54.47a235.26,235.26,0,0,0,24.79,5.65l-.2-.72a243.56,243.56,0,0,1-24.42-5.56Z" style="fill: #009ee2"/>
        <path d="M506.8,56.58a220.93,220.93,0,0,0,26,5.9l-.18-.64A227.93,227.93,0,0,1,507,56Z" style="fill: #009ee2"/>
        <path d="M533.51,64.87l-.2-.71a216.39,216.39,0,0,1-27-6l-.19.69A214.87,214.87,0,0,0,533.51,64.87Z" style="fill: #009ee2"/>
        <path d="M519.29,64.11l.22.84c4.22.89,8.51,1.67,12.9,2.27l1.82.23L534,66.7l-1.09-.14C528.28,65.92,523.75,65.08,519.29,64.11Z" style="fill: #009ee2"/>
        <path d="M518.06,64.63l.19-.75c-4.25-1-8.45-2-12.6-3.16l-.22.77C509.59,62.63,513.79,63.69,518.06,64.63Z" style="fill: #009ee2"/>
        <path d="M520.08,67.1l.23.89c3.21.62,6.47,1.17,9.8,1.61,1.62.21,3.25.41,4.88.59l-.22-.8c-1.32-.15-2.63-.3-3.93-.48Q525.35,68.18,520.08,67.1Z" style="fill: #009ee2"/>
        <path d="M504.64,64.34c4.16,1.12,8.38,2.15,12.69,3l.21-.81c-4.29-.91-8.51-2-12.67-3.08Z" style="fill: #009ee2"/>
        <path d="M520.9,70.25l.24.91c2,.33,4,.64,6,.9,2.84.37,5.72.67,8.61,1l-.22-.82c-2.51-.25-5-.52-7.49-.84S523.26,70.66,520.9,70.25Z" style="fill: #009ee2"/>
        <path d="M503.78,67.42c4.17,1.08,8.42,2.06,12.78,2.91l.22-.85c-4.34-.87-8.58-1.87-12.75-3Z" style="fill: #009ee2"/>
        <path d="M521.75,73.45l.24.91,1.64.23c4.26.53,8.58,1,12.94,1.29l-.22-.82q-5.9-.48-11.66-1.2Z" style="fill: #009ee2"/>
        <path d="M502.88,70.65c4.19,1,8.46,2,12.87,2.75l.23-.89c-4.39-.8-8.66-1.75-12.84-2.8Z" style="fill: #009ee2"/>
        <path d="M537.35,78.65l-.23-.8c-4.93-.27-9.79-.68-14.54-1.22l.24.89C527.56,78,532.42,78.4,537.35,78.65Z" style="fill: #009ee2"/>
        <path d="M501.94,74c4.21,1,8.52,1.83,13,2.51l.23-.9c-4.45-.71-8.75-1.58-12.95-2.57Z" style="fill: #009ee2"/>
        <path d="M514.1,79.65l.24-.9c-4.51-.61-8.86-1.4-13.07-2.31l-.27,1C505.22,78.31,509.57,79.07,514.1,79.65Z" style="fill: #009ee2"/>
        <path d="M523.64,80.63q7.1.57,14.47.76l-.22-.78c-4.91-.16-9.75-.44-14.48-.85Z" style="fill: #009ee2"/>
        <path d="M524.42,83.63q7.11.38,14.44.44l-.22-.77c-4.88-.06-9.71-.22-14.44-.51Z" style="fill: #009ee2"/>
        <path d="M500.31,79.87l-.27,1c3.41.65,6.92,1.2,10.56,1.63.89.11,1.79.19,2.69.28l.23-.88L512,81.71C507.93,81.23,504.06,80.61,500.31,79.87Z" style="fill: #009ee2"/>
        <path d="M499.35,83.3l-.26,1c2.18.34,4.39.66,6.67.91s4.46.45,6.73.64l.22-.86q-2.81-.24-5.55-.55C504.49,84.09,501.89,83.72,499.35,83.3Z" style="fill: #009ee2"/>
        <path d="M525,85.68l.21.8c4.74.15,9.55.19,14.4.14l-.21-.73C534.51,85.91,529.7,85.86,525,85.68Z" style="fill: #009ee2"/>
        <path d="M525.7,88.46l.2.77c4.74,0,9.54,0,14.36-.12l-.19-.7C535.24,88.51,530.43,88.54,525.7,88.46Z" style="fill: #009ee2"/>
        <path d="M502.25,87.09c-1.29-.14-2.56-.3-3.82-.47l-.26.91c.89.12,1.77.23,2.67.33,3.54.39,7.17.68,10.87.9l.22-.85C508.65,87.7,505.41,87.44,502.25,87.09Z" style="fill: #009ee2"/>
        <path d="M526.39,91.11l.18.67h-9.84c7.91.16,16,0,24.2-.27l-.19-.67C535.93,91,531.14,91.1,526.39,91.11Z" style="fill: #009ee2"/>
        <path d="M497.54,89.81l-.24.88c4.42.44,9,.73,13.66.92l.21-.81C506.51,90.59,502,90.28,497.54,89.81Z" style="fill: #009ee2"/>
        <path d="M496.69,92.86l-.24.86a368.51,368.51,0,0,0,45.13.11l-.19-.66A354.62,354.62,0,0,1,496.69,92.86Z" style="fill: #009ee2"/>
        <path d="M495.88,95.78l-.23.81a411.36,411.36,0,0,0,46.55-.53l-.18-.63A398.67,398.67,0,0,1,495.88,95.78Z" style="fill: #009ee2"/>
        <path d="M495.09,98.59l-.21.78a465.23,465.23,0,0,0,47.92-1.13l-.17-.61A448.94,448.94,0,0,1,495.09,98.59Z" style="fill: #009ee2"/>
        <path d="M494.35,101.25l-.21.76c15.75.4,32.73-.46,49.26-1.65l-.17-.6C526.79,100.92,510,101.71,494.35,101.25Z" style="fill: #009ee2"/>
        <path d="M493.64,103.81l-.2.71c4.76.07,9.62,0,14.54-.1l.15-.58H522.7c7.11-.37,14.24-.86,21.27-1.4l-.16-.59C527.06,103.12,509.74,104.08,493.64,103.81Z" style="fill: #009ee2"/>
        <path d="M529.82,105.57c4.94-.34,9.86-.71,14.72-1.1l-.16-.58c-4.87.39-9.79.75-14.72,1.08Z" style="fill: #009ee2"/>
        <path d="M507.39,106.71l.16-.64c-4.93.14-9.81.21-14.59.18l-.19.67C497.56,107,502.45,106.87,507.39,106.71Z" style="fill: #009ee2"/>
        <path d="M530.37,107.61c5-.35,9.87-.74,14.73-1.14l-.16-.57c-4.86.4-9.78.78-14.72,1.13Z" style="fill: #009ee2"/>
        <path d="M492.31,108.58l-.18.64c4.82,0,9.73-.11,14.69-.29l.16-.63C502,108.48,497.12,108.57,492.31,108.58Z" style="fill: #009ee2"/>
        <path d="M491.52,111.42c4.84,0,9.77-.15,14.75-.35l.15-.61c-5,.2-9.89.32-14.73.34Z" style="fill: #009ee2"/>
        <path d="M530.91,109.62q7.44-.56,14.74-1.18l-.16-.56c-4.85.41-9.78.8-14.73,1.17Z" style="fill: #009ee2"/>
        <path d="M490.94,113.51c4.86,0,9.8-.17,14.79-.37l.15-.59c-5,.2-9.92.33-14.78.37Z" style="fill: #009ee2"/>
        <path d="M531.45,111.58c4.95-.38,9.88-.78,14.74-1.2l-.16-.56c-4.85.42-9.78.82-14.74,1.2Z" style="fill: #009ee2"/>
        <path d="M490.4,115.43c4.86,0,9.82-.14,14.82-.33l.15-.54c-5,.19-10,.31-14.82.34Z" style="fill: #009ee2"/>
        <path d="M532,113.52c5-.38,9.9-.78,14.76-1.2l-.15-.54c-4.86.41-9.79.82-14.76,1.19Z" style="fill: #009ee2"/>
        <path d="M489.92,117.16c4.86,0,9.82-.08,14.84-.25l.13-.5c-5,.18-10,.28-14.84.28Z" style="fill: #009ee2"/>
        <path d="M532.47,115.35c5-.36,9.91-.76,14.78-1.17l-.15-.52q-7.3.61-14.77,1.18Z" style="fill: #009ee2"/>
        <path d="M489.61,118.28l-.12.43c4.85.05,9.81,0,14.84-.14l.12-.46C499.42,118.26,494.46,118.32,489.61,118.28Z" style="fill: #009ee2"/>
        <path d="M532.94,117.09c5-.35,9.92-.74,14.8-1.13l-.14-.5c-4.88.4-9.82.79-14.79,1.14Z" style="fill: #009ee2"/>
        <path d="M489.21,119.7l-.1.38c4.84.1,9.81.09,14.83,0l.11-.42C499,119.76,494.06,119.79,489.21,119.7Z" style="fill: #009ee2"/>
        <path d="M533.38,118.73q7.47-.49,14.84-1.07l-.14-.48c-4.9.38-9.85.75-14.82,1.09Z" style="fill: #009ee2"/>
        <path d="M533.79,120.23h.89q7-.44,14-1l-.13-.45c-4.92.36-9.88.71-14.86,1Z" style="fill: #009ee2"/>
        <path d="M594.77,42.94h-1.56l1.56,0Z" style="fill: #009ee2"/>
        <path d="M540.67,43.06a500.25,500.25,0,0,0,54.1,3.23v-.94c-15.74-.24-31.18-.94-45.95-2.41h-8.15Z" style="fill: #009ee2"/>
        <path d="M540.67,46.51a448.66,448.66,0,0,0,54.1,3v-.9a461.54,461.54,0,0,1-54.1-3.05Z" style="fill: #009ee2"/>
        <path d="M594.77,52.56V51.7c-18.82.07-37.12-.63-54.1-2.79v.94C557.63,52,575.94,52.68,594.77,52.56Z" style="fill: #009ee2"/>
        <path d="M540.67,52.15v.9c16.92,2.15,35.24,2.71,54.1,2.44v-.82C575.92,54.9,557.6,54.31,540.67,52.15Z" style="fill: #009ee2"/>
        <path d="M560.15,57v.82c5,.28,10,.45,15.15.54v-.8Q567.61,57.38,560.15,57Z" style="fill: #009ee2"/>
        <path d="M544,56.44h8.61q-6.09-.48-12-1.23v.84C541.79,56.19,542.92,56.32,544,56.44Z" style="fill: #009ee2"/>
        <path d="M560.15,60.49q7.47.39,15.15.47v-.73c-5.12-.07-10.18-.22-15.15-.49Z" style="fill: #009ee2"/>
        <path d="M560.15,63c5,.24,10,.38,15.15.42v-.66c-5.11,0-10.17-.19-15.15-.44Z" style="fill: #009ee2"/>
        <path d="M575.3,65.52v-.58q-7.65,0-15.15-.4v.59C565.15,65.37,570.2,65.49,575.3,65.52Z" style="fill: #009ee2"/>
        <path d="M560.15,67.26c5,.22,10.06.32,15.15.34V67c-5.1,0-10.15-.14-15.15-.37Z" style="fill: #009ee2"/>
        <path d="M560.15,69.53c5,.19,10.06.26,15.15.26v-.64c-5.09,0-10.15-.08-15.15-.28Z" style="fill: #009ee2"/>
        <path d="M560.15,71.21v.69q7.51.21,15.15.16V71.4Q567.67,71.45,560.15,71.21Z" style="fill: #009ee2"/>
        <path d="M560.15,73.64v.71c5,.1,10.06.1,15.15,0v-.67C570.21,73.77,565.16,73.76,560.15,73.64Z" style="fill: #009ee2"/>
        <path d="M575.3,76.75v-.68q-7.63.15-15.15.06v.72Q567.67,76.91,575.3,76.75Z" style="fill: #009ee2"/>
        <path d="M560.15,79c5.05-.06,10.11-.2,15.15-.39V78c-5,.19-10.11.31-15.15.36Z" style="fill: #009ee2"/>
        <path d="M560.15,81.33c5.06-.14,10.12-.36,15.15-.62v-.64c-5,.25-10.1.45-15.15.57Z" style="fill: #009ee2"/>
        <path d="M560.15,83.69c5.07-.2,10.13-.46,15.15-.75V82.3c-5,.29-10.08.53-15.15.72Z" style="fill: #009ee2"/>
        <path d="M560.15,86c5.08-.25,10.15-.55,15.15-.88V84.5c-5,.32-10.07.61-15.15.84Z" style="fill: #009ee2"/>
        <path d="M560.15,88.27c5.1-.29,10.16-.62,15.15-1v-.62c-5,.35-10.06.66-15.15.94Z" style="fill: #009ee2"/>
        <path d="M560.15,90.5c5.11-.33,10.18-.69,15.15-1.06v-.61c-5,.37-10,.72-15.15,1Z" style="fill: #009ee2"/>
        <path d="M560.15,92.07v.62c5.13-.36,10.19-.75,15.15-1.13V91C570.34,91.34,565.27,91.72,560.15,92.07Z" style="fill: #009ee2"/>
        <path d="M560.15,94.84c5.15-.38,10.21-.79,15.15-1.18v-.6c-4.94.39-10,.79-15.15,1.17Z" style="fill: #009ee2"/>
        <path d="M560.15,97c5.16-.41,10.23-.82,15.15-1.23v-.59c-4.92.4-10,.82-15.15,1.22Z" style="fill: #009ee2"/>
        <path d="M560.15,99.05,575.3,97.8v-.59l-15.15,1.25Z" style="fill: #009ee2"/>
        <path d="M560.15,101.12l15.15-1.27v-.59c-4.9.4-10,.84-15.15,1.27Z" style="fill: #009ee2"/>
        <path d="M560.15,103.16c5.2-.45,10.27-.88,15.15-1.28v-.58c-4.88.4-10,.83-15.15,1.28Z" style="fill: #009ee2"/>
        <path d="M560.15,105.18c5.21-.45,10.27-.89,15.15-1.28v-.58c-4.88.4-9.95.83-15.15,1.29Z" style="fill: #009ee2"/>
        <path d="M560.15,107.18c5.21-.45,10.28-.89,15.15-1.28v-.57c-4.87.39-9.94.83-15.15,1.28Z" style="fill: #009ee2"/>
        <path d="M560.15,109.16c5.2-.45,10.27-.89,15.15-1.28v-.57c-4.88.39-9.95.83-15.15,1.29Z" style="fill: #009ee2"/>
        <path d="M560.15,111.16c5.21-.46,10.28-.89,15.15-1.28v-.56c-4.87.38-9.94.82-15.15,1.28Z" style="fill: #009ee2"/>
        <path d="M560.15,113.08c5.2-.45,10.27-.88,15.15-1.26v-.55c-4.88.39-9.94.82-15.15,1.27Z" style="fill: #009ee2"/>
        <path d="M560.15,114.93c5.19-.43,10.26-.86,15.15-1.24v-.53c-4.89.38-10,.81-15.15,1.25Z" style="fill: #009ee2"/>
        <path d="M560.15,116.71c5.17-.42,10.24-.83,15.15-1.2V115c-4.91.38-10,.8-15.15,1.22Z" style="fill: #009ee2"/>
        <path d="M560.15,118.42l15.15-1.15v-.5c-4.93.37-10,.77-15.15,1.17Z" style="fill: #009ee2"/>
        <path d="M560.15,120.07c5.12-.37,10.19-.75,15.15-1.1v-.48l-15.15,1.11Z" style="fill: #009ee2"/>
        <path d="M575.3,120.23v-.08l-1.08.08Z" style="fill: #009ee2"/>
        <path d="M693.26,44.22c-.79-.21-1.61-.4-2.45-.56-11.29.29-22.83.65-34.46,1v.73C668.84,45,681.2,44.54,693.26,44.22Z" style="fill: #009ee2"/>
        <path d="M656.35,47.88c14.35-.61,28.5-1.26,42.12-1.67-.39-.2-.78-.39-1.19-.57-13.27.39-27,1-40.93,1.53Z" style="fill: #009ee2"/>
        <path d="M656.35,50.33c15.51-.82,30.76-1.65,45.27-2.12l-.78-.57c-14.3.46-29.27,1.24-44.49,2Z" style="fill: #009ee2"/>
        <path d="M656.35,52.71c16.34-1,32.35-2,47.49-2.49-.19-.19-.37-.39-.57-.57-15,.49-30.79,1.44-46.92,2.38Z" style="fill: #009ee2"/>
        <path d="M656.35,55c16.94-1.15,33.53-2.27,49.14-2.77-.14-.19-.27-.39-.42-.57-15.48.5-31.93,1.58-48.72,2.69Z" style="fill: #009ee2"/>
        <path d="M656.35,57.2c17.37-1.27,34.38-2.48,50.41-3-.11-.19-.21-.39-.32-.57-15.92.48-32.82,1.67-50.09,2.91Z" style="fill: #009ee2"/>
        <path d="M671.5,58.17v-.58c-5,.35-10.06.73-15.15,1.11v.59Q664,58.71,671.5,58.17Z" style="fill: #009ee2"/>
        <path d="M688.5,57.07c6.52-.36,12.94-.65,19.23-.81-.08-.2-.16-.39-.25-.58-6.77.18-13.71.51-20.76.92A12.83,12.83,0,0,1,688.5,57.07Z" style="fill: #009ee2"/>
        <path d="M656.35,61.26q7.62-.59,15.15-1.12v-.56q-7.53.53-15.15,1.13Z" style="fill: #009ee2"/>
        <path d="M691.57,58.9q8.56-.43,16.92-.62l-.21-.58c-5.7.13-11.49.36-17.35.66A8.3,8.3,0,0,1,691.57,58.9Z" style="fill: #009ee2"/>
        <path d="M656.35,63.25q7.62-.59,15.15-1.11v-.58q-7.53.52-15.15,1.12Z" style="fill: #009ee2"/>
        <path d="M693.06,60.85q8.09-.37,16-.53c0-.19-.09-.39-.14-.58q-8,.15-16.16.55A6.22,6.22,0,0,1,693.06,60.85Z" style="fill: #009ee2"/>
        <path d="M693.91,62.85c5.24-.23,10.42-.4,15.55-.48,0-.2-.08-.39-.11-.59-5.15.09-10.37.26-15.63.5C693.79,62.46,693.85,62.66,693.91,62.85Z" style="fill: #009ee2"/>
        <path d="M656.35,65.27q7.62-.58,15.15-1.11v-.58q-7.53.53-15.15,1.11Z" style="fill: #009ee2"/>
        <path d="M694.4,64.88q7.74-.34,15.32-.46c0-.2,0-.39-.06-.59q-7.6.12-15.38.46C694.32,64.49,694.37,64.68,694.4,64.88Z" style="fill: #009ee2"/>
        <path d="M656.35,67.32q7.62-.6,15.15-1.12v-.59q-7.53.52-15.15,1.12Z" style="fill: #009ee2"/>
        <path d="M656.35,69.38q7.62-.6,15.15-1.13v-.59q-7.53.53-15.15,1.13Z" style="fill: #009ee2"/>
        <path d="M694.66,66.92q7.7-.33,15.22-.45c0-.19,0-.39,0-.58q-7.53.1-15.24.44C694.63,66.52,694.64,66.72,694.66,66.92Z" style="fill: #009ee2"/>
        <path d="M656.35,71.46c5.08-.4,10.13-.79,15.15-1.14v-.59q-7.53.52-15.15,1.13Z" style="fill: #009ee2"/>
        <path d="M694.77,69q7.66-.33,15.17-.44c0-.2,0-.39,0-.59q-7.5.11-15.17.44C694.76,68.57,694.76,68.78,694.77,69Z" style="fill: #009ee2"/>
        <path d="M656.35,73.17c5-.36,10.09-.71,15.15-1v-.59q-7.59.48-15.15,1Z" style="fill: #009ee2"/>
        <path d="M694.79,71q7.55-.27,15.15-.39V70q-7.61.1-15.15.38Z" style="fill: #009ee2"/>
        <path d="M656.35,75.09q7.56-.53,15.15-1v-.59q-7.59.45-15.15,1Z" style="fill: #009ee2"/>
        <path d="M694.79,73q7.55-.27,15.15-.38v-.59q-7.61.12-15.15.38Z" style="fill: #009ee2"/>
        <path d="M656.35,77.15c5-.34,10.09-.67,15.15-1v-.6q-7.59.45-15.15,1Z" style="fill: #009ee2"/>
        <path d="M694.79,75.09q7.55-.27,15.15-.39v-.59q-7.61.12-15.15.39Z" style="fill: #009ee2"/>
        <path d="M656.35,79.21q7.56-.51,15.15-.95v-.59q-7.59.43-15.15,1Z" style="fill: #009ee2"/>
        <path d="M694.79,77.16q7.55-.27,15.15-.4v-.59c-5.07.08-10.12.22-15.15.39Z" style="fill: #009ee2"/>
        <path d="M656.35,81.28q7.56-.51,15.15-1v-.59q-7.59.44-15.15,1Z" style="fill: #009ee2"/>
        <path d="M694.79,79.23q7.55-.28,15.15-.41v-.59q-7.61.13-15.15.4Z" style="fill: #009ee2"/>
        <path d="M694.79,81.29q7.55-.27,15.15-.41v-.59q-7.61.13-15.15.41Z" style="fill: #009ee2"/>
        <path d="M656.35,83.35q7.56-.51,15.15-.95v-.59q-7.59.43-15.15,1Z" style="fill: #009ee2"/>
        <path d="M694.79,83.36q7.55-.27,15.15-.43v-.58c-5.07.09-10.12.24-15.15.42Z" style="fill: #009ee2"/>
        <path d="M656.35,85.42q7.56-.51,15.15-1v-.59q-7.59.44-15.15,1Z" style="fill: #009ee2"/>
        <path d="M694.79,85.43q7.55-.29,15.15-.44V84.4q-7.61.16-15.15.44Z" style="fill: #009ee2"/>
        <path d="M656.35,87.48q7.56-.51,15.15-.94V86q-7.59.43-15.15.94Z" style="fill: #009ee2"/>
        <path d="M694.79,87.49c5-.19,10.08-.33,15.15-.44v-.59c-5.07.11-10.11.25-15.15.44Z" style="fill: #009ee2"/>
        <path d="M656.35,89.54q7.56-.51,15.15-.94V88q-7.59.43-15.15.94Z" style="fill: #009ee2"/>
        <path d="M694.79,89.55q7.56-.28,15.15-.44v-.59q-7.59.17-15.15.44Z" style="fill: #009ee2"/>
        <path d="M656.35,91.59q7.56-.5,15.15-.94v-.58q-7.59.44-15.15.94Z" style="fill: #009ee2"/>
        <path d="M656.35,93.64q7.56-.49,15.15-.94v-.58q-7.59.43-15.15.93Z" style="fill: #009ee2"/>
        <path d="M694.79,91.61q7.56-.28,15.15-.45v-.58q-7.59.15-15.15.44Z" style="fill: #009ee2"/>
        <path d="M694.79,93.54v.12q7.56-.28,15.15-.44v-.59q-7.59.16-15.15.44Z" style="fill: #009ee2"/>
        <path d="M656.35,95.68c5-.34,10.09-.65,15.15-.93v-.58c-5.06.28-10.1.59-15.15.93Z" style="fill: #009ee2"/>
        <path d="M694.73,95.71q7.57-.28,15.2-.44c0-.19,0-.39,0-.58q-7.62.15-15.18.43Z" style="fill: #009ee2"/>
        <path d="M656.35,97.7c5-.33,10.09-.64,15.15-.92V96.2c-5.06.28-10.1.6-15.15.93Z" style="fill: #009ee2"/>
        <path d="M656.35,99.72c5-.33,10.09-.64,15.15-.91v-.58c-5.06.28-10.1.59-15.15.91Z" style="fill: #009ee2"/>
        <path d="M694.54,97.75c5.08-.18,10.19-.32,15.3-.42l0-.59q-7.65.15-15.26.43C694.59,97.37,694.56,97.56,694.54,97.75Z" style="fill: #009ee2"/>
        <path d="M694.17,99.8q7.73-.27,15.48-.41c0-.2,0-.4.06-.59q-7.73.15-15.42.41C694.25,99.41,694.22,99.61,694.17,99.8Z" style="fill: #009ee2"/>
        <path d="M656.35,101.72c5-.32,10.09-.62,15.15-.9v-.58c-5.06.28-10.1.58-15.15.91Z" style="fill: #009ee2"/>
        <path d="M693.45,101.92q7.92-.3,15.88-.47c0-.19.07-.39.11-.59q-7.89.17-15.74.45C693.62,101.52,693.54,101.72,693.45,101.92Z" style="fill: #009ee2"/>
        <path d="M656.35,103.82c5-.32,10.09-.62,15.15-.9v-.6c-5.06.28-10.1.58-15.15.9Z" style="fill: #009ee2"/>
        <path d="M656.35,105.88c5-.32,10.09-.62,15.15-.89v-.59c-5.06.27-10.1.57-15.15.89Z" style="fill: #009ee2"/>
        <path d="M692.16,104c5.55-.22,11.13-.39,16.71-.52,0-.19.09-.39.14-.59q-8.22.19-16.4.5C692.46,103.64,692.32,103.85,692.16,104Z" style="fill: #009ee2"/>
        <path d="M656.35,107.33v.57q7.57-.47,15.15-.87v-.58C666.44,106.72,661.4,107,656.35,107.33Z" style="fill: #009ee2"/>
        <path d="M689.21,106.21q9.48-.39,19-.61c.07-.2.15-.4.21-.6q-9,.23-18,.58A10.45,10.45,0,0,1,689.21,106.21Z" style="fill: #009ee2"/>
        <path d="M656.35,109.9c16.92-1,33.91-1.81,51-2.23.1-.2.19-.39.27-.59-17.21.41-34.29,1.23-51.29,2.25Z" style="fill: #009ee2"/>
        <path d="M656.35,111.86c16.55-1,33.17-1.71,49.91-2.11l.35-.6c-16.86.41-33.59,1.19-50.26,2.15Z" style="fill: #009ee2"/>
        <path d="M656.35,113.82c16.07-.88,32.19-1.58,48.42-2l.46-.6c-16.38.4-32.66,1.12-48.88,2Z" style="fill: #009ee2"/>
        <path d="M656.35,115.74c15.42-.8,30.89-1.44,46.45-1.81.21-.19.43-.39.63-.6-15.77.38-31.45,1-47.08,1.86Z" style="fill: #009ee2"/>
        <path d="M656.35,117.64c14.52-.71,29.08-1.29,43.71-1.63l.89-.59c-14.93.35-29.78.94-44.6,1.68Z" style="fill: #009ee2"/>
        <path d="M656.35,119.52c13.11-.59,26.24-1.08,39.42-1.39.52-.19,1-.4,1.51-.62-13.69.32-27.32.85-40.93,1.47Z" style="fill: #009ee2"/>
        <path d="M682.53,120.23a46.48,46.48,0,0,0,6.85-.49q-7.21.21-14.35.49Z" style="fill: #009ee2"/>
        <path d="M165.86,42.31c3.83.14,7.67.27,11.5.36a44.2,44.2,0,0,0-7.17-.55C168.69,42.12,167.25,42.19,165.86,42.31Z" style="fill: #009ee2"/>
        <path d="M156.24,44.5c10.09.53,20.18.93,30.26,1.1-.56-.29-1.13-.56-1.72-.82-8.91-.16-17.82-.49-26.75-.93C157.42,44.05,156.82,44.26,156.24,44.5Z" style="fill: #009ee2"/>
        <path d="M190.64,48.43l-1-.8c-12.24-.19-24.5-.76-36.76-1.49q-.54.31-1.05.66C164.79,47.61,177.73,48.23,190.64,48.43Z" style="fill: #009ee2"/>
        <path d="M149,49.11c14.78,1,29.56,1.88,44.3,2.11-.21-.27-.43-.53-.66-.79-14.28-.22-28.6-1-42.93-2C149.44,48.66,149.21,48.89,149,49.11Z" style="fill: #009ee2"/>
        <path d="M195.08,54q-.21-.39-.45-.78c-15.7-.26-31.44-1.24-47.19-2.42l-.52.65C163,52.65,179.06,53.69,195.08,54Z" style="fill: #009ee2"/>
        <path d="M170.19,55.51a23.74,23.74,0,0,1,3,.19c7.72.45,15.43.78,23.13.93-.1-.26-.21-.51-.32-.76-16.71-.3-33.47-1.46-50.22-2.84-.14.21-.26.43-.39.65,8.22.69,16.45,1.32,24.67,1.83Z" style="fill: #009ee2"/>
        <path d="M163.26,56.8q-9.34-.69-18.68-1.53c-.1.21-.2.42-.29.64,6,.53,11.91,1,17.86,1.49A9.8,9.8,0,0,1,163.26,56.8Z" style="fill: #009ee2"/>
        <path d="M197,58.48q-9.11-.18-18.23-.69a9.5,9.5,0,0,1,.9.76q8.78.47,17.55.66C197.14,59,197.07,58.72,197,58.48Z" style="fill: #009ee2"/>
        <path d="M160.31,58.93q-8.33-.68-16.64-1.46l-.21.62q8.16.77,16.34,1.45C160,59.33,160.13,59.12,160.31,58.93Z" style="fill: #009ee2"/>
        <path d="M197.64,61q-8.26-.2-16.54-.65c.14.23.26.47.39.7q8.14.45,16.3.65C197.75,61.46,197.69,61.23,197.64,61Z" style="fill: #009ee2"/>
        <path d="M198.06,63.41c-5.28-.13-10.57-.36-15.85-.65q.1.32.21.66,7.86.45,15.72.66C198.11,63.85,198.09,63.63,198.06,63.41Z" style="fill: #009ee2"/>
        <path d="M158.82,61.07q-7.9-.69-15.81-1.46l-.15.61c5.23.5,10.46,1,15.68,1.45C158.63,61.47,158.72,61.26,158.82,61.07Z" style="fill: #009ee2"/>
        <path d="M198.28,65.69c-5.16-.14-10.32-.37-15.47-.66,0,.2.06.41.09.62q7.71.45,15.43.67C198.32,66.11,198.3,65.9,198.28,65.69Z" style="fill: #009ee2"/>
        <path d="M158,63.16c-5.15-.46-10.3-1-15.44-1.47,0,.19-.07.38-.11.58,5.12.51,10.25,1,15.37,1.47C157.86,63.54,157.93,63.35,158,63.16Z" style="fill: #009ee2"/>
        <path d="M157.49,65.17q-7.62-.7-15.25-1.48c0,.19,0,.38-.06.58q7.6.77,15.23,1.48C157.44,65.55,157.46,65.35,157.49,65.17Z" style="fill: #009ee2"/>
        <path d="M198.38,67.84c-5.1-.15-10.2-.39-15.29-.69l.06.6c1.66.1,3.33.19,5,.27h10.23Z" style="fill: #009ee2"/>
        <path d="M157.23,67.29c-5.07-.47-10.13-1-15.18-1.5,0,.21,0,.42,0,.63,5.05.52,10.11,1,15.16,1.5Z" style="fill: #009ee2"/>
        <path d="M157.11,69.54c-5.05-.48-10.1-1-15.15-1.53,0,.17,0,.32,0,.49v.16q7.58.81,15.15,1.54V70C157.1,69.87,157.11,69.71,157.11,69.54Z" style="fill: #009ee2"/>
        <path d="M157.1,71.89q-7.57-.75-15.15-1.58V71q7.58.84,15.15,1.59Z" style="fill: #009ee2"/>
        <path d="M157.1,74.31q-7.57-.77-15.15-1.63v.69C147,74,152,74.5,157.1,75Z" style="fill: #009ee2"/>
        <path d="M157.1,76.8C152,76.28,147,75.71,142,75.11v.71C147,76.42,152,77,157.1,77.53Z" style="fill: #009ee2"/>
        <path d="M157.1,79.36C152,78.83,147,78.23,142,77.61v.72q7.56.94,15.15,1.78Z" style="fill: #009ee2"/>
        <path d="M157.1,82C152,81.43,147,80.81,142,80.15v.74c5,.67,10.08,1.3,15.15,1.85Z" style="fill: #009ee2"/>
        <path d="M157.1,84.65C152,84.08,147,83.44,142,82.75v.75c5,.69,10.08,1.35,15.15,1.92Z" style="fill: #009ee2"/>
        <path d="M157.1,87.36C152,86.77,147,86.1,142,85.38v.76c5,.73,10.07,1.41,15.15,2Z" style="fill: #009ee2"/>
        <path d="M157.1,91.31v-.8c-3.37-.43-6.8-.92-10.33-1.49L142,88.23V89l4.5.75C150.1,90.36,153.63,90.87,157.1,91.31Z" style="fill: #009ee2"/>
        <path d="M157.12,94.13c0-.2,0-.39,0-.59v-.22c-3.72-.48-7.52-1-11.46-1.72L142,91v.79l3.36.59C149.39,93.05,153.3,93.64,157.12,94.13Z" style="fill: #009ee2"/>
        <path d="M196.27,95.15H183.19c0,.2,0,.39-.05.59C187.45,95.69,191.79,95.5,196.27,95.15Z" style="fill: #009ee2"/>
        <path d="M157.28,97c0-.26,0-.54-.06-.81-4.09-.52-8.29-1.18-12.7-2L142,93.71v.78l2.26.43C148.76,95.75,153.09,96.44,157.28,97Z" style="fill: #009ee2"/>
        <path d="M198.34,96.64c-5.31.54-10.39.85-15.39,1,0,.25-.07.5-.11.74,5-.12,10.11-.46,15.45-1C198.31,97.08,198.33,96.86,198.34,96.64Z" style="fill: #009ee2"/>
        <path d="M157.82,99.82c-.07-.26-.13-.54-.19-.82-4.53-.56-9.2-1.3-14.17-2.25L142,96.46c0,.27,0,.53,0,.8l1.13.22C148.32,98.48,153.15,99.25,157.82,99.82Z" style="fill: #009ee2"/>
        <path d="M198.15,98.91c-5.47.66-10.67,1.08-15.75,1.25-.08.25-.15.5-.23.73,5.12-.19,10.36-.64,15.91-1.33C198.11,99.35,198.13,99.13,198.15,98.91Z" style="fill: #009ee2"/>
        <path d="M158.57,101.89c-5.1-.59-10.39-1.44-16.09-2.59l-.27-.06c0,.27.07.54.11.8,5.93,1.21,11.41,2.1,16.67,2.69Q158.76,102.32,158.57,101.89Z" style="fill: #009ee2"/>
        <path d="M197.84,101.16c-5.79.79-11.21,1.31-16.49,1.55-.14.25-.3.49-.45.73,5.37-.25,10.89-.81,16.82-1.65Z" style="fill: #009ee2"/>
        <path d="M179.28,105.27a8,8,0,0,1-1,.74,171.37,171.37,0,0,0,18.91-2c.05-.2.1-.41.16-.62A173.85,173.85,0,0,1,179.28,105.27Z" style="fill: #009ee2"/>
        <path d="M160.57,104.83A171.21,171.21,0,0,1,142.66,102l.18.8a161.88,161.88,0,0,0,18.75,2.86A10.63,10.63,0,0,1,160.57,104.83Z" style="fill: #009ee2"/>
        <path d="M196.47,106.16c.08-.21.16-.41.23-.62A152.17,152.17,0,0,1,170.58,108h-.39l-.6,0a134.24,134.24,0,0,1-26.2-3.1c.09.28.18.54.28.81C163.22,109.73,177.19,109.46,196.47,106.16Z" style="fill: #009ee2"/>
        <path d="M195.51,108.35c.1-.21.21-.41.31-.63-18.88,3.39-32.38,3.88-51.34,0,.13.28.26.55.4.81C163.53,112.32,176.85,111.76,195.51,108.35Z" style="fill: #009ee2"/>
        <path d="M194.21,110.59c.14-.22.29-.43.42-.65-17.95,3.4-30.78,4.13-48.57.59.18.28.37.55.56.82C164,114.76,176.62,114,194.21,110.59Z" style="fill: #009ee2"/>
        <path d="M192.42,112.92c.2-.22.39-.44.58-.68-16.48,3.25-28.46,4.17-44.65,1.18.27.28.55.56.83.83C164.8,117,176.5,116.08,192.42,112.92Z" style="fill: #009ee2"/>
        <path d="M189.72,115.45c.31-.24.61-.49.91-.75-14.13,2.83-25,3.81-38.81,1.65.42.28.85.54,1.3.8C166.07,119,176.47,118.08,189.72,115.45Z" style="fill: #009ee2"/>
        <path d="M185,118.27c.58-.26,1.13-.53,1.67-.82-10.62,1.87-19.66,2.5-30,1.37.6.23,1.21.45,1.84.64A101.76,101.76,0,0,0,185,118.27Z" style="fill: #009ee2"/>
        <path d="M170.19,121.05a44.64,44.64,0,0,0,7-.53c-3.33.31-6.59.46-9.89.44Q168.72,121.05,170.19,121.05Z" style="fill: #009ee2"/>
        <path d="M231,44.43q5.45-.43,10.78-1-1.26-.35-2.58-.6c-2.77.27-5.54.53-8.35.75q-6.81.54-13.63.83c-.72.28-1.41.59-2.07.92Q223.07,45.05,231,44.43Z" style="fill: #009ee2"/>
        <path d="M211.62,47.52c-.37.27-.72.55-1.06.85,7-.18,14-.52,20.93-1.07q8.16-.64,16.07-1.54c-.44-.24-.88-.47-1.34-.69-4.89.54-9.84,1-14.88,1.41C224.78,47,218.2,47.33,211.62,47.52Z" style="fill: #009ee2"/>
        <path d="M232,50.15c6.53-.52,12.92-1.17,19.2-1.91-.29-.25-.59-.49-.89-.72-6,.7-12.18,1.32-18.45,1.82-7.75.61-15.54.95-23.33,1.08l-.68.81C215.89,51.12,223.94,50.78,232,50.15Z" style="fill: #009ee2"/>
        <path d="M232.41,53c7.26-.58,14.34-1.31,21.28-2.16-.2-.25-.41-.5-.63-.74-6.78.83-13.69,1.54-20.77,2.1-8.59.68-17.21,1-25.85,1.08-.16.26-.3.53-.45.79C214.82,54,223.63,53.64,232.41,53Z" style="fill: #009ee2"/>
        <path d="M225.87,56.14a18.94,18.94,0,0,1,5.09-.63,21.76,21.76,0,0,1,2.35.13c7.58-.6,15-1.38,22.19-2.29-.14-.25-.3-.49-.46-.73-7.28.91-14.71,1.69-22.35,2.29-9.19.72-18.4,1-27.64,1-.11.25-.22.5-.32.75Q215.32,56.72,225.87,56.14Z" style="fill: #009ee2"/>
        <path d="M221,59q.38-.41.78-.78c-5.88.25-11.77.34-17.67.32-.08.24-.15.48-.22.73C209.58,59.33,215.28,59.25,221,59Z" style="fill: #009ee2"/>
        <path d="M256.81,55.9c-.1-.24-.21-.49-.32-.73-5.89.75-11.87,1.41-18,2a10.15,10.15,0,0,1,1,.66Q248.35,57,256.81,55.9Z" style="fill: #009ee2"/>
        <path d="M241.76,60.18c5.43-.51,10.75-1.1,16-1.77-.08-.24-.15-.48-.23-.71q-8,1-16.24,1.8C241.45,59.72,241.61,60,241.76,60.18Z" style="fill: #009ee2"/>
        <path d="M219.33,61.64c.11-.25.23-.5.35-.73-5.41.18-10.82.23-16.24.18,0,.23-.09.47-.13.7C208.65,61.85,214,61.81,219.33,61.64Z" style="fill: #009ee2"/>
        <path d="M258.39,60.85c-.05-.23-.1-.46-.16-.69q-7.65,1-15.58,1.73c.1.23.19.44.28.68Q250.79,61.82,258.39,60.85Z" style="fill: #009ee2"/>
        <path d="M218.5,64.1l.18-.69q-7.81.21-15.64.1c0,.22,0,.44-.08.66Q210.73,64.29,218.5,64.1Z" style="fill: #009ee2"/>
        <path d="M202.82,65.8c0,.21,0,.42,0,.63q7.65.13,15.3,0c0-.22.07-.43.1-.65C213.06,65.88,207.94,65.88,202.82,65.8Z" style="fill: #009ee2"/>
        <path d="M258.7,62.55c-5,.63-10.11,1.2-15.3,1.68,0,.22.11.43.15.65q7.77-.72,15.26-1.67C258.78,63,258.74,62.77,258.7,62.55Z" style="fill: #009ee2"/>
        <path d="M217.91,68.55c0-.2,0-.39,0-.59q-7.62.15-15.21,0c0,.18,0,.36,0,.55v0Q210.31,68.69,217.91,68.55Z" style="fill: #009ee2"/>
        <path d="M243.8,66.47c0,.18,0,.38.06.57,5.15-.47,10.2-1,15.18-1.65,0-.18,0-.38,0-.56Q251.53,65.76,243.8,66.47Z" style="fill: #009ee2"/>
        <path d="M247.3,68h4.79q3.54-.4,7-.87c0-.17,0-.34,0-.51Q253.27,67.41,247.3,68Z" style="fill: #009ee2"/>
        <path d="M217.88,70q-7.6.18-15.15,0v.62c5,.08,10.08.07,15.15-.07V70Z" style="fill: #009ee2"/>
        <path d="M217.88,72.75v-.62q-7.6.24-15.15.14v.64C207.76,73,212.8,72.92,217.88,72.75Z" style="fill: #009ee2"/>
        <path d="M217.88,74.94v-.63q-7.62.3-15.15.25v.66Q210.26,75.27,217.88,74.94Z" style="fill: #009ee2"/>
        <path d="M217.88,76.54q-7.63.38-15.15.37v.69q7.52,0,15.15-.41Z" style="fill: #009ee2"/>
        <path d="M217.88,78.8c-5.1.31-10.15.47-15.15.51V80c5,0,10-.23,15.15-.56Z" style="fill: #009ee2"/>
        <path d="M217.88,81.05c-5.12.38-10.16.6-15.15.69v.7q7.47-.15,15.15-.74Z" style="fill: #009ee2"/>
        <path d="M217.88,83.31q-7.69.69-15.15.89v.69c5-.15,10-.46,15.15-.94Z" style="fill: #009ee2"/>
        <path d="M217.88,85.53c-5.15.54-10.19.9-15.15,1.1v.7q7.43-.33,15.15-1.18Z" style="fill: #009ee2"/>
        <path d="M217.88,87.7q-7.74,1-15.15,1.36v.7c4.94-.3,10-.77,15.15-1.44Z" style="fill: #009ee2"/>
        <path d="M217.88,90.42v-.59L217,90c-4.94.7-9.68,1.23-14.28,1.62v.67c4.37-.39,8.88-.92,13.57-1.59Z" style="fill: #009ee2"/>
        <path d="M217.88,92.47v-.58c-1.12.17-2.23.35-3.35.51-4.08.61-8,1.09-11.8,1.48v.65c3.58-.38,7.26-.85,11.1-1.43C215.18,92.9,216.52,92.68,217.88,92.47Z" style="fill: #009ee2"/>
        <path d="M211.4,95.54l6.5-1.07c0-.19,0-.37,0-.56-1.94.31-3.86.63-5.81.93-3.21.5-6.31.93-9.32,1.3q0,.31,0,.63C205.58,96.41,208.44,96,211.4,95.54Z" style="fill: #009ee2"/>
        <path d="M218,96.42c0-.18,0-.36,0-.55-2.74.47-5.48.94-8.24,1.39-2.35.39-4.61.72-6.84,1l.06.6c2-.29,4-.6,6.12-1C212.07,97.45,215,96.94,218,96.42Z" style="fill: #009ee2"/>
        <path d="M207.5,99.65c-1.48.26-2.93.5-4.36.72,0,.19.05.39.09.58l3.67-.62q5.7-1,11.36-2c0-.17,0-.35-.08-.53Q212.86,98.73,207.5,99.65Z" style="fill: #009ee2"/>
        <path d="M244,95.15s0,.09,0,.13l.73-.13Z" style="fill: #009ee2"/>
        <path d="M218.67,100.1c0-.17-.09-.34-.13-.51-4.35.81-8.7,1.62-13.08,2.41l-2,.34c0,.19.08.37.13.55l1.28-.22Q211.83,101.39,218.67,100.1Z" style="fill: #009ee2"/>
        <path d="M219.09,101.34,204,104.24c.05.17.1.35.16.52q7.61-1.45,15.17-2.94Z" style="fill: #009ee2"/>
        <path d="M251.18,95.15l-7.32,1.4-.06.5,10-1.9Z" style="fill: #009ee2"/>
        <path d="M259.15,95.36q-7.8,1.45-15.54,3c0,.17-.07.34-.1.51q7.77-1.52,15.63-3C259.14,95.68,259.15,95.52,259.15,95.36Z" style="fill: #009ee2"/>
        <path d="M219.92,103l-15.34,3.06c.06.17.12.34.19.5l15.42-3.1C220.09,103.31,220,103.14,219.92,103Z" style="fill: #009ee2"/>
        <path d="M221.49,105c-.14-.14-.29-.28-.42-.42q-7.9,1.61-15.76,3.24c.07.17.15.32.23.49Q213.51,106.62,221.49,105Z" style="fill: #009ee2"/>
        <path d="M259.08,97.08q-8,1.48-15.9,3c-.05.18-.09.35-.15.52q8-1.56,16-3.06C259.06,97.41,259.08,97.24,259.08,97.08Z" style="fill: #009ee2"/>
        <path d="M258.89,99.3c0-.17,0-.33.05-.5q-8.25,1.55-16.42,3.15c-.08.19-.19.36-.28.54Q250.51,100.86,258.89,99.3Z" style="fill: #009ee2"/>
        <path d="M222.73,106q-8.31,1.73-16.55,3.5l.27.47q8.42-1.81,16.92-3.6C223.15,106.22,222.93,106.1,222.73,106Z" style="fill: #009ee2"/>
        <path d="M241.48,103.71a6,6,0,0,1-.5.63q8.67-1.77,17.68-3.48l.09-.54Q250,102,241.48,103.71Z" style="fill: #009ee2"/>
        <path d="M225.16,107.14c-6.2,1.33-12.2,2.65-18,3.94l.34.47q9-2,18.66-4.11C225.84,107.35,225.49,107.25,225.16,107.14Z" style="fill: #009ee2"/>
        <path d="M237.82,106.71a15.78,15.78,0,0,1-6.16,1.24q-11.64,2.39-23.07,4.9c.15.17.3.33.46.49,16-3.48,32.36-6.82,49.06-9.9.06-.23.13-.45.18-.68Q248,104.67,237.82,106.71Z" style="fill: #009ee2"/>
        <path d="M257.61,105.16c-16.08,2.93-31.82,6.1-47.33,9.39.17.16.36.31.54.46,15.27-3.2,30.75-6.29,46.54-9.16C257.45,105.62,257.53,105.39,257.61,105.16Z" style="fill: #009ee2"/>
        <path d="M256.65,107.6c-15,2.68-29.79,5.56-44.38,8.53l.66.43c14.27-2.87,28.7-5.66,43.38-8.26C256.43,108.07,256.54,107.83,256.65,107.6Z" style="fill: #009ee2"/>
        <path d="M255.33,110.08q-20.58,3.57-40.65,7.51.39.21.78.39c13-2.48,26.1-4.9,39.39-7.18Z" style="fill: #009ee2"/>
        <path d="M217.64,118.91l1,.34q17-3,34.2-5.92c.22-.24.44-.48.65-.73Q235.38,115.63,217.64,118.91Z" style="fill: #009ee2"/>
        <path d="M251.37,114.74c-10.31,1.76-20.35,3.57-30,5.28.44.1.88.2,1.33.28,9-1.55,18.25-3.18,27.74-4.78C250.74,115.27,251.06,115,251.37,114.74Z" style="fill: #009ee2"/>
        <path d="M226.86,120.88c.75.06,1.51.11,2.29.13l16.28-2.59c.63-.27,1.24-.56,1.83-.88Q236.88,119.22,226.86,120.88Z" style="fill: #009ee2"/>
        <path d="M268.45,42.94V43l.6-.09Z" style="fill: #009ee2"/>
        <path d="M286.88,42.94h-4.79q-6.76,1.14-13.64,2.16v.82C274.67,45,280.8,44,286.88,42.94Z" style="fill: #009ee2"/>
        <path d="M302.4,42.94h-4.26c-9.75,1.8-19.6,3.52-29.69,5v.81C280,47,291.26,45,302.4,42.94Z" style="fill: #009ee2"/>
        <path d="M314.82,43.28v-.34h-2.21c-14.46,2.82-29,5.57-44.16,7.83v.79C284.36,49.19,299.63,46.27,314.82,43.28Z" style="fill: #009ee2"/>
        <path d="M268.45,54.29C284.39,51.91,299.66,49,314.82,46v-.76c-15.16,3-30.44,6-46.37,8.33Z" style="fill: #009ee2"/>
        <path d="M271.6,56.46c14.83-2.28,29.09-5,43.22-7.89v-.74c-15.14,3-30.41,6-46.37,8.36v.27Z" style="fill: #009ee2"/>
        <path d="M287.06,56.45c9.39-1.66,18.61-3.47,27.76-5.33V50.4c-10.49,2.13-21.07,4.2-31.9,6.06Z" style="fill: #009ee2"/>
        <path d="M300.4,56.45q7.26-1.39,14.42-2.87v-.7q-9,1.84-18.07,3.57Z" style="fill: #009ee2"/>
        <path d="M311.85,56.44l3-.6v-.56l-5.78,1.17Z" style="fill: #009ee2"/>
        <path d="M268.45,107.86v.65l8.61-1.36h-4.21Z" style="fill: #009ee2"/>
        <path d="M293.5,107.14h-4.95q-10.12,1.45-20.1,3v.66q11.49-1.8,23.18-3.42Z" style="fill: #009ee2"/>
        <path d="M268.45,111.89v.67c12.68-2,25.65-3.88,38.71-5.42H301C290,108.54,279.15,110.16,268.45,111.89Z" style="fill: #009ee2"/>
        <path d="M314.83,108.2c-15.65,1.61-31.2,3.73-46.38,6v.66c15.19-2.25,30.73-4.32,46.38-5.9Z" style="fill: #009ee2"/>
        <path d="M314.82,110.91c-15.64,1.51-31.16,3.48-46.37,5.6v.64c15.22-2.07,30.73-4,46.37-5.46Z" style="fill: #009ee2"/>
        <path d="M268.45,118.73v.63c15.26-1.88,30.75-3.63,46.37-5v-.76C299.2,115,283.7,116.8,268.45,118.73Z" style="fill: #009ee2"/>
        <path d="M314.82,116.28c-13.61,1.1-27.13,2.47-40.51,4h5.93c11.45-1.19,23-2.28,34.58-3.19Z" style="fill: #009ee2"/>
        <path d="M298,120.23h8.9q4-.3,7.94-.57v-.74Q306.38,119.52,298,120.23Z" style="fill: #009ee2"/>
        <path d="M272.9,73.34l-4.45.79v.51l7.13-1.3Z" style="fill: #009ee2"/>
        <path d="M282,73.34q-6.75,1.29-13.55,2.54v.49q8-1.47,16-3Z" style="fill: #009ee2"/>
        <path d="M292.29,73.34c-7.91,1.49-15.84,3-23.84,4.43v.5c8.89-1.62,17.7-3.28,26.5-4.93Z" style="fill: #009ee2"/>
        <path d="M303.09,73.34c-11.53,2.1-23,4.25-34.64,6.34v.5c12.53-2.26,25-4.59,37.44-6.84Z" style="fill: #009ee2"/>
        <path d="M312.45,74v-.52l-5.37,1c-12.92,2.29-25.74,4.69-38.63,7V82c12.61-2.31,25.15-4.66,37.8-6.89Z" style="fill: #009ee2"/>
        <path d="M312.45,75.76v-.51l-8.26,1.45c-12,2.11-23.84,4.32-35.74,6.51v.5c11.61-2.14,23.21-4.3,34.92-6.35Z" style="fill: #009ee2"/>
        <path d="M312.45,77.59v-.53L301.35,79c-11.05,1.92-22,3.94-32.9,6v.5c10.65-2,21.32-3.94,32.1-5.81Z" style="fill: #009ee2"/>
        <path d="M269.34,87c9.45-1.75,18.92-3.47,28.5-5.12,4.76-.82,9.64-1.66,14.61-2.5v-.53c-4.71.8-9.33,1.61-13.85,2.39-10.14,1.74-20.16,3.58-30.15,5.43V87Z" style="fill: #009ee2"/>
        <path d="M312.45,81.27v-.53c-5.61.93-11.11,1.87-16.45,2.78Q286,85.23,276.12,87h2.77q8.16-1.47,16.41-2.89C300.86,83.21,306.59,82.23,312.45,81.27Z" style="fill: #009ee2"/>
        <path d="M312.45,83.12v-.53c-6.45,1-12.75,2.1-18.84,3.13-2.56.43-5.1.88-7.64,1.32h2.94l4.06-.7C299.26,85.28,305.77,84.18,312.45,83.12Z" style="fill: #009ee2"/>
        <path d="M312.45,85v-.53c-5.46.85-10.82,1.72-16,2.59h3.1C303.75,86.35,308.07,85.66,312.45,85Z" style="fill: #009ee2"/>
        <path d="M307.64,87h3.48l1.33-.2v-.53Z" style="fill: #009ee2"/>
        <path d="M377.64,42.94v.47l2.85-.47Z" style="fill: #009ee2"/>
        <path d="M393.68,42.94h-4.15q-6,.86-11.89,1.82v.54Q385.55,44,393.68,42.94Z" style="fill: #009ee2"/>
        <path d="M377.64,46.68v.55c8.39-1.29,16.94-2.43,25.75-3.34A149.92,149.92,0,0,1,424,43.16v-.22H407c-1.09.09-2.18.18-3.28.3C394.77,44.18,386.12,45.35,377.64,46.68Z" style="fill: #009ee2"/>
        <path d="M424,45.65v-.73a153.23,153.23,0,0,0-21.52.62c-8.49.84-16.75,1.9-24.85,3.09v.57c8-1.16,16.09-2.18,24.43-3A153,153,0,0,1,424,45.65Z" style="fill: #009ee2"/>
        <path d="M424,48.27V47.5a153.39,153.39,0,0,0-23.13.42c-7.92.73-15.65,1.66-23.24,2.71v.58q11.13-1.51,22.71-2.6A153.54,153.54,0,0,1,424,48.27Z" style="fill: #009ee2"/>
        <path d="M424,51v-.8a153.9,153.9,0,0,0-25.09.13c-7.24.63-14.32,1.41-21.28,2.32v.59c6.77-.85,13.64-1.6,20.66-2.2A153.29,153.29,0,0,1,424,51Z" style="fill: #009ee2"/>
        <path d="M424,54V53.1a152.93,152.93,0,0,0-27.35-.22q-9.68.78-19,1.92v.61q9-1,18.33-1.8A152.62,152.62,0,0,1,424,54Z" style="fill: #009ee2"/>
        <path d="M393.41,56.18a153.87,153.87,0,0,1,25.54.26H424v-.32a151.71,151.71,0,0,0-29.85-.67q-5.9.44-11.68,1h7.46Z" style="fill: #009ee2"/>
        <path d="M422.92,107.14h-1.3l2.39.75v-.4Z" style="fill: #009ee2"/>
        <path d="M424,108.88q-3-.88-6.11-1.74h-1.74c2.64.69,5.25,1.41,7.85,2.15Z" style="fill: #009ee2"/>
        <path d="M408.05,107.14c5.47,1.09,10.74,2.33,16,3.62v-.44c-4.34-1.11-8.73-2.19-13.24-3.18Z" style="fill: #009ee2"/>
        <path d="M393,107.15a293.58,293.58,0,0,1,31,5.19v-.47c-8.16-1.82-16.46-3.5-25.31-4.73Z" style="fill: #009ee2"/>
        <path d="M377.64,108v.79c16.85.39,31.83,2.58,46.37,5.22v-.5C409.52,110.79,394.59,108.48,377.64,108Z" style="fill: #009ee2"/>
        <path d="M377.64,110.84v.81A336.34,336.34,0,0,1,424,115.91v-.55A323,323,0,0,0,377.64,110.84Z" style="fill: #009ee2"/>
        <path d="M377.64,113.68v.82A392,392,0,0,1,424,117.9v-.58A375,375,0,0,0,377.64,113.68Z" style="fill: #009ee2"/>
        <path d="M377.64,116.53v.82h.52c15.88.05,31,1.18,45.85,2.67v-.61a443.41,443.41,0,0,0-46.3-2.88Z" style="fill: #009ee2"/>
        <path d="M377.64,119.39v.82h2.07c.74,0,1.48,0,2.22,0h23.3c-8.51-.5-17.14-.82-26-.84Z" style="fill: #009ee2"/>
        <path d="M421.64,73.34h-2l2,.5Z" style="fill: #009ee2"/>
        <path d="M402.75,73.34a139.56,139.56,0,0,1,18.89,4.24V76.52c-4.24-1.22-8.66-2.31-13.37-3.18Z" style="fill: #009ee2"/>
        <path d="M377.64,73.72v.72a133,133,0,0,1,44,6.92V80.29A133.24,133.24,0,0,0,377.64,73.72Z" style="fill: #009ee2"/>
        <path d="M421.64,84a131.67,131.67,0,0,0-44-7.77V77a131.34,131.34,0,0,1,44,8.1Z" style="fill: #009ee2"/>
        <path d="M419.77,87a129.49,129.49,0,0,0-42.13-8.21v.72A127.26,127.26,0,0,1,416.91,87Z" style="fill: #009ee2"/>
        <path d="M409.75,87a123.82,123.82,0,0,0-32.11-5.7v.72a122.91,122.91,0,0,1,29.19,5Z" style="fill: #009ee2"/>
        <path d="M399.12,87a122.48,122.48,0,0,0-21.48-3.22v.69A122.38,122.38,0,0,1,395.75,87Z" style="fill: #009ee2"/>
        <path d="M377.64,86.18v.66L380,87h5.69Q381.84,86.51,377.64,86.18Z" style="fill: #009ee2"/>
        <path d="M602.45,43.11c15.34.22,30.88.09,46.34-.17H602.45Z" style="fill: #009ee2"/>
        <path d="M602.45,45.44v.91c15.34,0,30.92-.3,46.37-.75v-.76C633.36,45.25,617.79,45.53,602.45,45.44Z" style="fill: #009ee2"/>
        <path d="M648.82,48.19v-.73c-15.44.58-31,1.07-46.37,1.13v.89C617.79,49.36,633.38,48.83,648.82,48.19Z" style="fill: #009ee2"/>
        <path d="M602.45,52.48c15.34-.26,30.95-1,46.37-1.76V50c-15.43.74-31,1.41-46.37,1.62Z" style="fill: #009ee2"/>
        <path d="M602.45,55.33c15.35-.39,31-1.24,46.37-2.17v-.69c-15.41.89-31,1.71-46.37,2.06Z" style="fill: #009ee2"/>
        <path d="M634.39,56.45c4.82-.3,9.64-.62,14.43-.94v-.66C639.93,55.43,631,56,622,56.45Z" style="fill: #009ee2"/>
        <path d="M602.45,107.15v0l.68,0Z" style="fill: #009ee2"/>
        <path d="M610.5,107.15h-7.37l-.68,0v.58Z" style="fill: #009ee2"/>
        <path d="M602.45,109.2v.56q17.46-1.35,35-2.62h-8Q615.94,108.15,602.45,109.2Z" style="fill: #009ee2"/>
        <path d="M602.45,111.68c15.42-1.15,30.87-2.3,46.37-3.3v-.58c-15.5,1-31,2.18-46.37,3.34Z" style="fill: #009ee2"/>
        <path d="M602.45,113.56c15.42-1.11,30.87-2.23,46.37-3.2v-.57c-15.5,1-31,2.11-46.37,3.24Z" style="fill: #009ee2"/>
        <path d="M602.45,115.38c15.43-1.06,30.87-2.13,46.37-3.07v-.56c-15.5,1-30.94,2-46.37,3.12Z" style="fill: #009ee2"/>
        <path d="M602.45,117.16c15.43-1,30.88-2,46.37-2.93v-.54c-15.49.91-30.94,1.94-46.37,3Z" style="fill: #009ee2"/>
        <path d="M602.45,118.9c15.44-1,30.88-1.92,46.37-2.76v-.54c-15.49.86-30.93,1.84-46.37,2.81Z" style="fill: #009ee2"/>
        <path d="M602.45,120.23h6.48q19.92-1.16,39.89-2.22v-.53c-15.49.81-30.93,1.73-46.37,2.64Z" style="fill: #009ee2"/>
        <path d="M641.36,120.23l7.46-.36v-.53q-8.73.42-17.43.89Z" style="fill: #009ee2"/>
        <path d="M602.45,73.33v0l.45,0Z" style="fill: #009ee2"/>
        <path d="M602.45,75.56c10.18-.62,20.41-1.4,30.61-2.22h-7.68c-7.65.59-15.31,1.14-22.93,1.59Z" style="fill: #009ee2"/>
        <path d="M602.45,76.55v.6l6.55-.44c12.52-.85,25-1.85,37.45-2.8v-.57h-.24c-12.16.92-24.3,1.9-36.5,2.72Z" style="fill: #009ee2"/>
        <path d="M602.45,78.4V79l4-.28c13.37-.92,26.69-2,40-2.94V75.2c-13.09.94-26.15,2-39.28,2.87Z" style="fill: #009ee2"/>
        <path d="M602.45,80.5v.61l1.21-.09c14.29-1,28.52-2.14,42.79-3.17v-.59c-14,1-28,2.12-42,3.1Z" style="fill: #009ee2"/>
        <path d="M602.45,83.21c14.68-1.06,29.32-2.23,44-3.3v-.59c-14.68,1.07-29.31,2.24-44,3.29Z" style="fill: #009ee2"/>
        <path d="M602.45,85.31c14.67-1.09,29.31-2.27,44-3.33v-.59c-14.69,1.06-29.33,2.24-44,3.32Z" style="fill: #009ee2"/>
        <path d="M602.45,87h4.7c13.09-1,26.17-2.05,39.3-3v-.6c-14.7,1.07-29.34,2.25-44,3.35Z" style="fill: #009ee2"/>
        <path d="M633.91,87c4.18-.32,8.35-.63,12.54-.93v-.59q-10.12.74-20.2,1.52Z" style="fill: #009ee2"/>
        <path d="M70.64,120.22h2.42l-2.36-.08Z" style="fill: #009ee2"/>
        <path d="M143.1,43l-4.37-.25-11.41,0c5.1.32,10.2.65,15.3,1Z" style="fill: #009ee2"/>
        <path d="M141.44,45.42c-5.87-.38-11.73-.79-17.59-1.19l-.45.64L141,46.09Z" style="fill: #009ee2"/>
        <path d="M139.35,48.41l.46-.66q-8.76-.63-17.52-1.3l-.44.63Z" style="fill: #009ee2"/>
        <path d="M90.1,44.28q-9.52-.54-19-.83l.43.6q9.49.3,19,.87Z" style="fill: #009ee2"/>
        <path d="M138.21,50l-17.45-1.41-.43.62,17.43,1.43Z" style="fill: #009ee2"/>
        <path d="M91.67,46.51c-6.38-.39-12.74-.72-19.09-.94l.42.61c6.36.23,12.73.57,19.12,1Z" style="fill: #009ee2"/>
        <path d="M93.23,48.75q-9.6-.64-19.16-1l.43.62c6.38.26,12.77.63,19.18,1.06Z" style="fill: #009ee2"/>
        <path d="M136.66,52.27q-8.72-.75-17.4-1.5l-.42.6,17.38,1.52Z" style="fill: #009ee2"/>
        <path d="M94.8,51q-9.64-.69-19.24-1.14l.43.61c6.41.29,12.82.69,19.25,1.16Z" style="fill: #009ee2"/>
        <path d="M135.14,54.43,117.8,52.86l-.42.59q8.67.78,17.34,1.59Z" style="fill: #009ee2"/>
        <path d="M96.35,53.2q-9.66-.73-19.3-1.23l.43.61c6.43.32,12.87.75,19.31,1.25Z" style="fill: #009ee2"/>
        <path d="M133.67,56.53q-8.65-.83-17.3-1.63l-.4.57,17.29,1.65Z" style="fill: #009ee2"/>
        <path d="M132.25,58.56c-5.76-.56-11.52-1.13-17.27-1.67l-.4.56q8.64.81,17.28,1.68Z" style="fill: #009ee2"/>
        <path d="M97.89,55.39q-9.67-.77-19.35-1.29l.43.61c6.44.34,12.9.79,19.36,1.31Z" style="fill: #009ee2"/>
        <path d="M99.4,57.56c-6.46-.53-12.92-1-19.38-1.34l.42.61q9.7.53,19.39,1.34Z" style="fill: #009ee2"/>
        <path d="M130.89,60.52q-8.64-.87-17.27-1.7l-.38.54q8.64.82,17.27,1.71Z" style="fill: #009ee2"/>
        <path d="M129.57,62.4c-5.75-.58-11.51-1.16-17.26-1.7l-.38.54c5.76.54,11.51,1.12,17.26,1.7Z" style="fill: #009ee2"/>
        <path d="M100.89,59.68q-9.69-.81-19.4-1.36l.42.6q9.72.54,19.41,1.38Z" style="fill: #009ee2"/>
        <path d="M102.43,61.87c-6.47-.56-13-1-19.46-1.42l.43.61c6.51.38,13,.88,19.47,1.45Z" style="fill: #009ee2"/>
        <path d="M128.2,64.36q-8.62-.88-17.25-1.72l-.4.57c5.76.54,11.5,1.13,17.25,1.73Z" style="fill: #009ee2"/>
        <path d="M126.78,66.4c-5.74-.61-11.48-1.21-17.23-1.76l-.41.57q8.64.84,17.23,1.78Z" style="fill: #009ee2"/>
        <path d="M104,64.12c-6.49-.59-13-1.11-19.52-1.51l.44.62c6.54.41,13,.94,19.54,1.54Z" style="fill: #009ee2"/>
        <path d="M108.13,66.66l-.41.59q8.61.85,17.19,1.83l.42-.6C119.61,67.85,113.88,67.23,108.13,66.66Z" style="fill: #009ee2"/>
        <path d="M105.61,66.42c-6.5-.63-13-1.19-19.6-1.63l.44.63q9.87.69,19.63,1.66Z" style="fill: #009ee2"/>
        <path d="M123.85,70.59c-12-1.38-24.06-2.69-36.29-3.59l.44.64c12,.9,23.71,2.2,35.42,3.56Z" style="fill: #009ee2"/>
        <path d="M122.35,72.74c-11-1.32-22-2.58-33.22-3.49l.45.65c10.93.91,21.66,2.15,32.34,3.46Z" style="fill: #009ee2"/>
        <path d="M120.83,74.91c-9.92-1.26-19.92-2.46-30.1-3.37l.46.66c9.88.91,19.58,2.09,29.21,3.33Z" style="fill: #009ee2"/>
        <path d="M119.31,77.09c-8.88-1.19-17.83-2.33-27-3.23l.47.67c8.82.9,17.47,2,26.05,3.19Z" style="fill: #009ee2"/>
        <path d="M117.77,79.29C110,78.17,102.06,77.11,94,76.23l.48.69c7.75.87,15.34,1.9,22.86,3Z" style="fill: #009ee2"/>
        <path d="M116.2,81.53l0,0c-6.75-1-13.58-2-20.55-2.83l.49.69c7,.86,13.78,1.86,20.52,2.9Z" style="fill: #009ee2"/>
        <path d="M118,84.13C111.19,83,104.35,81.91,97.33,81l.38.54-.1.14c7.12,1,14,2.08,21,3.26Z" style="fill: #009ee2"/>
        <path d="M120,87c-7.73-1.4-15.43-2.72-23.41-3.82l-.41.58c8.33,1.17,16.34,2.57,24.4,4.07Z" style="fill: #009ee2"/>
        <path d="M122,89.87c-8.87-1.73-17.65-3.38-26.87-4.7l-.4.58c9.57,1.39,18.65,3.13,27.86,5Z" style="fill: #009ee2"/>
        <path d="M124.1,92.82c-10-2.08-19.87-4.08-30.35-5.62l-.4.57c10.85,1.61,21,3.72,31.35,5.91Z" style="fill: #009ee2"/>
        <path d="M126.21,95.83C115,93.37,104.14,91,92.35,89.19l-.39.56c12.17,1.85,23.28,4.37,34.85,7Z" style="fill: #009ee2"/>
        <path d="M128.33,98.87C115.89,96,104.1,93.17,91,91.16l-.39.56c13.51,2.08,25.57,5,38.36,8Z" style="fill: #009ee2"/>
        <path d="M106,96.16c-5.29-1.14-10.69-2.18-16.37-3l-.38.55c5.68.87,11.08,1.92,16.36,3.06Z" style="fill: #009ee2"/>
        <path d="M131.07,102.79l-.6-.87c-7.55-1.8-14.79-3.62-22.19-5.26l.55.78C116.24,99.12,123.49,101,131.07,102.79Z" style="fill: #009ee2"/>
        <path d="M132.58,105c-7.68-1.89-15-3.81-22.39-5.56l.54.78c7.43,1.78,14.73,3.73,22.45,5.63Z" style="fill: #009ee2"/>
        <path d="M104.61,98.12C99.36,97,94,95.91,88.27,95l-.39.55c5.71.87,11.1,1.92,16.35,3.08Z" style="fill: #009ee2"/>
        <path d="M134.67,107.92c-7.82-2-15.15-4-22.58-5.81l.54.77c7.43,1.88,14.77,3.91,22.62,5.88Z" style="fill: #009ee2"/>
        <path d="M103.29,100c-5.24-1.17-10.63-2.22-16.35-3.09l-.38.54c5.74.86,11.12,1.91,16.35,3.08Z" style="fill: #009ee2"/>
        <path d="M136.69,110.81c-7.93-2-15.3-4.07-22.72-6l.53.76c7.42,2,14.79,4,22.75,6Z" style="fill: #009ee2"/>
        <path d="M102,101.87c-5.22-1.17-10.61-2.21-16.37-3.06l-.37.54c5.77.84,11.17,1.88,16.38,3Z" style="fill: #009ee2"/>
        <path d="M100.73,103.68c-5.21-1.16-10.61-2.19-16.41-3l-.38.54c5.82.81,11.23,1.83,16.43,3Z" style="fill: #009ee2"/>
        <path d="M138.63,113.58c-8-2-15.42-4.15-22.81-6.14l.51.74c7.38,2,14.78,4.12,22.81,6.14Z" style="fill: #009ee2"/>
        <path d="M99.47,105.48c-5.23-1.12-10.66-2.11-16.49-2.9l-.38.55c5.83.77,11.28,1.75,16.52,2.85Z" style="fill: #009ee2"/>
        <path d="M140.61,116.42l-.39-.57-.47-.11c-7.82-1.91-15-3.92-22.21-5.83l.46.66c7,1.86,14.12,3.8,21.77,5.65Z" style="fill: #009ee2"/>
        <path d="M98.25,107.23c-5.28-1.07-10.75-2-16.59-2.76l-.38.54c5.86.73,11.34,1.66,16.62,2.71Z" style="fill: #009ee2"/>
        <path d="M141.87,118.22l-.34-.49-1.6-.36c-7.29-1.7-14.1-3.5-20.83-5.23l.42.6c6.63,1.68,13.34,3.42,20.52,5.08Z" style="fill: #009ee2"/>
        <path d="M97.05,108.94c-5.32-1-10.84-1.89-16.71-2.59l-.37.54c5.88.67,11.41,1.54,16.75,2.52Z" style="fill: #009ee2"/>
        <path d="M143,119.78l-.29-.43-2.26-.47c-6.93-1.54-13.46-3.15-19.9-4.72l.38.55c6.38,1.52,12.85,3.09,19.71,4.58Z" style="fill: #009ee2"/>
        <path d="M95.89,110.61c-5.39-.94-11-1.76-16.85-2.39l-.37.53c5.9.62,11.48,1.41,16.88,2.33Z" style="fill: #009ee2"/>
        <path d="M140.92,120.22c-6.63-1.37-12.92-2.81-19.13-4.22l.35.49c5.59,1.24,11.26,2.51,17.18,3.73Z" style="fill: #009ee2"/>
        <path d="M94.73,112.26c-5.45-.86-11.08-1.6-17-2.18l-.37.54c5.93.55,11.57,1.27,17,2.11Z" style="fill: #009ee2"/>
        <path d="M135.3,120.23c-4.19-.85-8.29-1.71-12.34-2.56l.32.46c3.42.69,6.86,1.4,10.37,2.1Z" style="fill: #009ee2"/>
        <path d="M124.05,119.22l.29.42,3.14.59h1.84Z" style="fill: #009ee2"/>
        <path d="M93.57,113.91c-5.51-.78-11.2-1.44-17.15-2l-.37.53c6,.49,11.66,1.14,17.19,1.9Z" style="fill: #009ee2"/>
        <path d="M92.41,115.57c-5.59-.7-11.33-1.29-17.3-1.74l-.38.54c6,.43,11.74,1,17.35,1.68Z" style="fill: #009ee2"/>
        <path d="M91.25,117.24c-5.67-.62-11.46-1.14-17.46-1.52l-.38.55c6,.35,11.81.85,17.5,1.45Z" style="fill: #009ee2"/>
        <path d="M90.07,118.93c-5.74-.54-11.6-1-17.62-1.29l-.39.55q9,.44,17.67,1.23Z" style="fill: #009ee2"/>
        <path d="M71.09,119.58l-.39.56,2.36.08H83Q77.14,119.82,71.09,119.58Z" style="fill: #009ee2"/>
      </g>
    </g>
  </g>
</svg>
